<svg width="69" height="69" viewBox="0 0 69 69" fill="none" xmlns="http://www.w3.org/2000/svg">
<rect width="69" height="69" rx="8" fill="#A3CFF5" fill-opacity="0.5"/>
<path d="M39.3335 36.3333L46.2975 40.9759C46.3979 41.0428 46.5145 41.0811 46.635 41.0868C46.7554 41.0926 46.8752 41.0656 46.9815 41.0087C47.0878 40.9517 47.1767 40.8671 47.2387 40.7636C47.3007 40.6602 47.3334 40.5419 47.3335 40.4213V29.4933C47.3335 29.376 47.3026 29.2607 47.2439 29.1592C47.1851 29.0577 47.1006 28.9734 46.9989 28.915C46.8972 28.8566 46.7819 28.826 46.6646 28.8264C46.5473 28.8268 46.4321 28.8582 46.3308 28.9173L39.3335 32.9999" stroke="#051B2E" stroke-width="2.66667" stroke-linecap="round" stroke-linejoin="round"/>
<path d="M36.6665 27H23.3332C21.8604 27 20.6665 28.1939 20.6665 29.6667V40.3333C20.6665 41.8061 21.8604 43 23.3332 43H36.6665C38.1393 43 39.3332 41.8061 39.3332 40.3333V29.6667C39.3332 28.1939 38.1393 27 36.6665 27Z" stroke="#051B2E" stroke-width="2.66667" stroke-linecap="round" stroke-linejoin="round"/>
</svg>
