<svg width="69" height="69" viewBox="0 0 69 69" fill="none" xmlns="http://www.w3.org/2000/svg">
<rect width="69" height="69" rx="8" fill="#A3CFF5" fill-opacity="0.5"/>
<path d="M39.3332 47V44.3333C39.3332 42.9188 38.7713 41.5623 37.7711 40.5621C36.7709 39.5619 35.4143 39 33.9998 39H25.9998C24.5853 39 23.2288 39.5619 22.2286 40.5621C21.2284 41.5623 20.6665 42.9188 20.6665 44.3333V47" stroke="#051B2E" stroke-width="2.66667" stroke-linecap="round" stroke-linejoin="round"/>
<path d="M29.9998 33.6667C32.9454 33.6667 35.3332 31.2789 35.3332 28.3333C35.3332 25.3878 32.9454 23 29.9998 23C27.0543 23 24.6665 25.3878 24.6665 28.3333C24.6665 31.2789 27.0543 33.6667 29.9998 33.6667Z" stroke="#051B2E" stroke-width="2.66667" stroke-linecap="round" stroke-linejoin="round"/>
<path d="M47.3335 47V44.3333C47.3326 43.1516 46.9393 42.0037 46.2153 41.0698C45.4913 40.1358 44.4777 39.4688 43.3335 39.1733" stroke="#051B2E" stroke-width="2.66667" stroke-linecap="round" stroke-linejoin="round"/>
<path d="M39.3335 23.1733C40.4807 23.4671 41.4975 24.1343 42.2237 25.0698C42.9498 26.0052 43.344 27.1558 43.344 28.34C43.344 29.5242 42.9498 30.6748 42.2237 31.6103C41.4975 32.5457 40.4807 33.2129 39.3335 33.5067" stroke="#051B2E" stroke-width="2.66667" stroke-linecap="round" stroke-linejoin="round"/>
</svg>
