<svg width="56" height="56" viewBox="0 0 56 56" fill="none" xmlns="http://www.w3.org/2000/svg">
<rect width="56" height="56" rx="10" fill="#75B7F0"/>
<path d="M25.3335 22.3333C25.3338 22.1557 25.3815 21.9814 25.4715 21.8283C25.5615 21.6752 25.6907 21.5488 25.8458 21.4622C26.0008 21.3756 26.1762 21.3318 26.3537 21.3354C26.5313 21.339 26.7047 21.3898 26.8562 21.4827L31.7415 24.4813C31.8871 24.5708 32.0073 24.6961 32.0907 24.8452C32.1742 24.9944 32.218 25.1624 32.218 25.3333C32.218 25.5042 32.1742 25.6723 32.0907 25.8214C32.0073 25.9706 31.8871 26.0959 31.7415 26.1853L26.8562 29.1853C26.7045 29.2783 26.5309 29.3291 26.3531 29.3326C26.1753 29.3361 25.9998 29.2921 25.8446 29.2051C25.6895 29.1182 25.5603 28.9915 25.4705 28.838C25.3806 28.6845 25.3334 28.5098 25.3335 28.332V22.3333Z" stroke="white" stroke-width="2" stroke-linecap="round" stroke-linejoin="round"/>
<path d="M28 34.6666V40" stroke="white" stroke-width="2" stroke-linecap="round" stroke-linejoin="round"/>
<path d="M22.6665 40H33.3332" stroke="white" stroke-width="2" stroke-linecap="round" stroke-linejoin="round"/>
<path d="M38.6665 16H17.3332C15.8604 16 14.6665 17.1939 14.6665 18.6667V32C14.6665 33.4728 15.8604 34.6667 17.3332 34.6667H38.6665C40.1393 34.6667 41.3332 33.4728 41.3332 32V18.6667C41.3332 17.1939 40.1393 16 38.6665 16Z" stroke="white" stroke-width="2" stroke-linecap="round" stroke-linejoin="round"/>
</svg>
