<svg width="68" height="68" viewBox="0 0 68 68" fill="none" xmlns="http://www.w3.org/2000/svg">
<rect width="68" height="68" rx="10" fill="url(#paint0_linear_607_1231)"/>
<path d="M22 34V35H46V34V33H22V34ZM34 46V45C27.9249 45 23 40.0751 23 34H22H21C21 41.1797 26.8203 47 34 47V46ZM22 34H23C23 27.9249 27.9249 23 34 23V22V21C26.8203 21 21 26.8203 21 34H22ZM34 22V23C40.0751 23 45 27.9249 45 34H46H47C47 26.8203 41.1797 21 34 21V22ZM46 34H45C45 40.0751 40.0751 45 34 45V46V47C41.1797 47 47 41.1797 47 34H46ZM34 46V45C33.589 45 33.1222 44.8168 32.6134 44.3326C32.0995 43.8435 31.5912 43.0886 31.1426 42.0791C30.2464 40.0629 29.6667 37.2073 29.6667 34H28.6667H27.6667C27.6667 37.4201 28.2808 40.5646 29.315 42.8914C29.8315 44.0536 30.4724 45.056 31.2346 45.7814C32.002 46.5117 32.9382 47 34 47V46ZM28.6667 34H29.6667C29.6667 30.7927 30.2464 27.9371 31.1426 25.9209C31.5912 24.9114 32.0995 24.1565 32.6134 23.6674C33.1222 23.1832 33.589 23 34 23V22V21C32.9382 21 32.002 21.4883 31.2346 22.2186C30.4724 22.944 29.8315 23.9464 29.315 25.1086C28.2808 27.4354 27.6667 30.5799 27.6667 34H28.6667ZM34 22V23C34.411 23 34.8778 23.1832 35.3866 23.6674C35.9005 24.1565 36.4088 24.9114 36.8574 25.9209C37.7536 27.9371 38.3333 30.7927 38.3333 34H39.3333H40.3333C40.3333 30.5799 39.7192 27.4354 38.685 25.1086C38.1685 23.9464 37.5276 22.944 36.7654 22.2186C35.998 21.4883 35.0618 21 34 21V22ZM39.3333 34H38.3333C38.3333 37.2073 37.7536 40.0629 36.8574 42.0791C36.4088 43.0886 35.9005 43.8435 35.3866 44.3326C34.8778 44.8168 34.411 45 34 45V46V47C35.0618 47 35.998 46.5117 36.7654 45.7814C37.5276 45.056 38.1685 44.0536 38.685 42.8914C39.7192 40.5646 40.3333 37.4201 40.3333 34H39.3333Z" fill="white"/>
<defs>
<linearGradient id="paint0_linear_607_1231" x1="14.787" y1="-113.591" x2="90.3584" y2="-103.753" gradientUnits="userSpaceOnUse">
<stop stop-color="#0A3D67"/>
<stop offset="0.5" stop-color="#1A68A8"/>
<stop offset="1" stop-color="#49BDEE"/>
</linearGradient>
</defs>
</svg>
