<svg width="68" height="68" viewBox="0 0 68 68" fill="none" xmlns="http://www.w3.org/2000/svg">
<rect width="68" height="68" rx="10" fill="url(#paint0_linear_607_468)"/>
<path d="M34 27.3334V46" stroke="white" stroke-width="2.33333" stroke-linecap="round" stroke-linejoin="round"/>
<path d="M21.9998 42C21.6462 42 21.3071 41.8595 21.057 41.6095C20.807 41.3594 20.6665 41.0203 20.6665 40.6667V23.3333C20.6665 22.9797 20.807 22.6406 21.057 22.3905C21.3071 22.1405 21.6462 22 21.9998 22H28.6665C30.081 22 31.4375 22.5619 32.4377 23.5621C33.4379 24.5623 33.9998 25.9188 33.9998 27.3333C33.9998 25.9188 34.5617 24.5623 35.5619 23.5621C36.5621 22.5619 37.9187 22 39.3332 22H45.9998C46.3535 22 46.6926 22.1405 46.9426 22.3905C47.1927 22.6406 47.3332 22.9797 47.3332 23.3333V40.6667C47.3332 41.0203 47.1927 41.3594 46.9426 41.6095C46.6926 41.8595 46.3535 42 45.9998 42H37.9998C36.939 42 35.9216 42.4214 35.1714 43.1716C34.4213 43.9217 33.9998 44.9391 33.9998 46C33.9998 44.9391 33.5784 43.9217 32.8283 43.1716C32.0781 42.4214 31.0607 42 29.9998 42H21.9998Z" stroke="white" stroke-width="2.33333" stroke-linecap="round" stroke-linejoin="round"/>
<defs>
<linearGradient id="paint0_linear_607_468" x1="14.787" y1="-113.591" x2="90.3584" y2="-103.753" gradientUnits="userSpaceOnUse">
<stop stop-color="#0A3D67"/>
<stop offset="0.5" stop-color="#1A68A8"/>
<stop offset="1" stop-color="#49BDEE"/>
</linearGradient>
</defs>
</svg>
