<svg width="68" height="68" viewBox="0 0 68 68" fill="none" xmlns="http://www.w3.org/2000/svg">
<rect width="68" height="68" rx="10" fill="url(#paint0_linear_607_331)"/>
<path d="M27.9731 42.4667L32.1065 45.6667C32.6398 46.2 33.8398 46.4667 34.6398 46.4667H39.7065C41.3065 46.4667 43.0398 45.2667 43.4398 43.6667L46.6398 33.9333C47.3065 32.0667 46.1065 30.4667 44.1065 30.4667H38.7731C37.9731 30.4667 37.3065 29.8 37.4398 28.8667L38.1065 24.6C38.3731 23.4 37.5731 22.0667 36.3731 21.6667C35.3065 21.2667 33.9731 21.8 33.4398 22.6L27.9731 30.7333" stroke="white" stroke-width="2" stroke-miterlimit="10"/>
<path d="M21.1733 42.4667V29.4C21.1733 27.5334 21.9733 26.8667 23.84 26.8667H25.1733C27.04 26.8667 27.84 27.5334 27.84 29.4V42.4667C27.84 44.3334 27.04 45 25.1733 45H23.84C21.9733 45 21.1733 44.3334 21.1733 42.4667Z" stroke="white" stroke-width="2" stroke-linecap="round" stroke-linejoin="round"/>
<defs>
<linearGradient id="paint0_linear_607_331" x1="14.787" y1="-113.591" x2="90.3584" y2="-103.753" gradientUnits="userSpaceOnUse">
<stop stop-color="#0A3D67"/>
<stop offset="0.5" stop-color="#1A68A8"/>
<stop offset="1" stop-color="#49BDEE"/>
</linearGradient>
</defs>
</svg>
