<svg width="69" height="69" viewBox="0 0 69 69" fill="none" xmlns="http://www.w3.org/2000/svg">
<rect width="69" height="69" rx="8" fill="white"/>
<path d="M34.5002 51.1666C43.7049 51.1666 51.1668 43.7047 51.1668 34.4999C51.1668 25.2952 43.7049 17.8333 34.5002 17.8333C25.2954 17.8333 17.8335 25.2952 17.8335 34.4999C17.8335 43.7047 25.2954 51.1666 34.5002 51.1666Z" stroke="#0B3C66" stroke-width="2.33333" stroke-linecap="round" stroke-linejoin="round"/>
<path d="M34.5 44.5C40.0228 44.5 44.5 40.0228 44.5 34.5C44.5 28.9772 40.0228 24.5 34.5 24.5C28.9772 24.5 24.5 28.9772 24.5 34.5C24.5 40.0228 28.9772 44.5 34.5 44.5Z" stroke="#0B3C66" stroke-width="2.33333" stroke-linecap="round" stroke-linejoin="round"/>
<path d="M34.4998 37.8334C36.3408 37.8334 37.8332 36.341 37.8332 34.5001C37.8332 32.6591 36.3408 31.1667 34.4998 31.1667C32.6589 31.1667 31.1665 32.6591 31.1665 34.5001C31.1665 36.341 32.6589 37.8334 34.4998 37.8334Z" stroke="#0B3C66" stroke-width="2.33333" stroke-linecap="round" stroke-linejoin="round"/>
</svg>
