<svg width="336" height="240" viewBox="0 0 336 240" fill="none" xmlns="http://www.w3.org/2000/svg">
<path d="M329.048 210.908H6.95215V211.069H329.048V210.908Z" fill="#EBEBEB"/>
<path d="M296.774 221.273H275.438V221.434H296.774V221.273Z" fill="#EBEBEB"/>
<path d="M220.321 223.026H214.723V223.187H220.321V223.026Z" fill="#EBEBEB"/>
<path d="M274.794 215.295H262.432V215.456H274.794V215.295Z" fill="#EBEBEB"/>
<path d="M68.5695 216.377H40.7463V216.538H68.5695V216.377Z" fill="#EBEBEB"/>
<path d="M78.3866 216.377H74.3088V216.538H78.3866V216.377Z" fill="#EBEBEB"/>
<path d="M151.993 219.096H91.644V219.257H151.993V219.096Z" fill="#EBEBEB"/>
<path d="M159.626 182.177H35.2385C34.2641 182.176 33.3302 181.787 32.6417 181.098C31.9533 180.408 31.5666 179.473 31.5667 178.499V3.64612C31.5751 2.67728 31.9655 1.7509 32.653 1.06821C33.3406 0.385522 34.2697 0.00165969 35.2385 0H159.626C160.601 0 161.537 0.387538 162.226 1.07736C162.916 1.76718 163.304 2.70278 163.304 3.67833V178.499C163.304 179.475 162.916 180.41 162.226 181.1C161.537 181.79 160.601 182.177 159.626 182.177ZM35.2385 0.128839C34.3068 0.130545 33.4138 0.501867 32.7556 1.1613C32.0974 1.82074 31.7277 2.7144 31.7277 3.64612V178.499C31.7277 179.431 32.0974 180.324 32.7556 180.984C33.4138 181.643 34.3068 182.015 35.2385 182.016H159.626C160.558 182.015 161.451 181.643 162.111 180.984C162.77 180.325 163.141 179.431 163.143 178.499V3.64612C163.141 2.7138 162.77 1.82016 162.111 1.16091C161.451 0.501658 160.558 0.130542 159.626 0.128839H35.2385Z" fill="#EBEBEB"/>
<path d="M298.971 182.177H174.577C173.602 182.176 172.668 181.788 171.978 181.098C171.289 180.409 170.901 179.474 170.899 178.499V3.64612C170.909 2.67669 171.301 1.75032 171.989 1.06781C172.678 0.385297 173.608 0.00164159 174.577 0H298.971C299.938 0.00335269 300.866 0.387964 301.552 1.07047C302.238 1.75298 302.628 2.67839 302.636 3.64612V178.499C302.636 179.472 302.25 180.406 301.563 181.095C300.876 181.785 299.944 182.174 298.971 182.177ZM174.577 0.128839C173.645 0.130542 172.751 0.501658 172.092 1.16091C171.433 1.82016 171.062 2.7138 171.06 3.64612V178.499C171.062 179.431 171.433 180.325 172.092 180.984C172.751 181.643 173.645 182.015 174.577 182.016H298.971C299.903 182.015 300.797 181.643 301.456 180.984C302.115 180.325 302.486 179.431 302.488 178.499V3.64612C302.486 2.7138 302.115 1.82016 301.456 1.16091C300.797 0.501658 299.903 0.130542 298.971 0.128839H174.577Z" fill="#EBEBEB"/>
<path d="M272.024 188.626C272.024 188.626 267.077 178.963 272.733 169.39C278.389 159.818 280.025 157.589 276.417 155.63C272.81 153.672 271.161 163.27 271.161 163.27C271.161 163.27 268.12 156.667 270.633 149.742C273.145 142.817 274.717 131.576 271.277 130.372C267.837 129.167 270.633 144.408 267.644 149.607C267.644 149.607 265.151 143.809 264.738 138.269C264.326 132.729 264.97 123.859 262.265 121.585C259.559 119.311 257.82 120.889 260.48 133.135C262.077 140.432 262.962 147.866 263.121 155.334C263.121 155.334 257.246 139.268 253.304 138.804C249.361 138.34 249.368 143.539 252.743 148.048C256.119 152.558 262.625 160.649 263.695 164.797C263.695 164.797 257.253 152.712 251.455 156.423C245.657 160.133 256.505 167.432 261.343 170.067C266.181 172.701 269.531 189.251 269.531 189.251L272.024 188.626Z" fill="#E0E0E0"/>
<path d="M268.114 192.613C268.114 192.613 272.939 182.86 267.154 173.384C261.369 163.908 259.701 161.686 263.289 159.682C266.877 157.679 268.648 167.251 268.648 167.251C268.648 167.251 271.599 160.603 268.996 153.723C266.394 146.843 264.674 135.615 268.082 134.365C271.489 133.116 268.925 148.396 271.947 153.549C271.947 153.549 274.369 147.752 274.704 142.179C275.039 136.607 274.279 127.769 276.959 125.463C279.638 123.156 281.384 124.703 278.891 136.981C277.394 144.3 276.608 151.748 276.546 159.218C276.546 159.218 282.209 143.075 286.145 142.553C290.081 142.031 290.145 147.236 286.828 151.791C283.51 156.345 277.113 164.52 276.102 168.694C276.102 168.694 282.389 156.519 288.238 160.146C294.088 163.773 283.336 171.22 278.537 173.925C273.738 176.631 270.6 193.212 270.6 193.212L268.114 192.613Z" fill="#E6E6E6"/>
<path d="M290.351 185.65H250.527L253.748 211.211H287.13L290.351 185.65Z" fill="#F0F0F0"/>
<path d="M219.316 23.8738H146.768V104.153H219.316V23.8738Z" fill="#E9E9E9"/>
<path d="M216.314 27.0562H149.963V101.138H216.314V27.0562Z" fill="#F4F4F4"/>
<path d="M168.715 27.0562L149.963 97.2859V59.2657L158.543 27.0562H168.715Z" fill="white"/>
<path d="M177.096 27.0562L157.319 101.138H153.589L173.366 27.0562H177.096Z" fill="white"/>
<path d="M216.314 47.2578V85.2844L212.114 101.138H201.942L216.314 47.2578Z" fill="white"/>
<path d="M184.33 23.8738H181.754V104.153H184.33V23.8738Z" fill="#E9E9E9"/>
<path d="M217.925 40.1653H148.03V42.742H217.925V40.1653Z" fill="#E9E9E9"/>
<path d="M120.111 23.8738H47.562V104.153H120.111V23.8738Z" fill="#E9E9E9"/>
<path d="M117.109 27.0562H50.7571V101.138H117.109V27.0562Z" fill="#F4F4F4"/>
<path d="M69.5095 27.0562L50.7571 97.2859V59.2657L59.3377 27.0562H69.5095Z" fill="white"/>
<path d="M77.8906 27.0562L58.1139 101.138H54.384L74.1607 27.0562H77.8906Z" fill="white"/>
<path d="M117.109 47.2578V85.2844L112.909 101.138H102.737L117.109 47.2578Z" fill="white"/>
<path d="M85.1249 23.8738H82.5481V104.153H85.1249V23.8738Z" fill="#E9E9E9"/>
<path d="M118.719 40.1653H48.8247V42.742H118.719V40.1653Z" fill="#E9E9E9"/>
<path d="M168 240C236.982 240 292.902 236.735 292.902 232.708C292.902 228.68 236.982 225.416 168 225.416C99.0183 225.416 43.0977 228.68 43.0977 232.708C43.0977 236.735 99.0183 240 168 240Z" fill="#F5F5F5"/>
<path d="M252.814 211.211H153.937C153.346 211.22 152.759 211.104 152.215 210.871C151.671 210.637 151.182 210.291 150.782 209.856C150.381 209.42 150.077 208.905 149.889 208.344C149.701 207.782 149.634 207.188 149.692 206.599L162.157 46.6844C162.27 45.4382 162.84 44.2777 163.757 43.4262C164.673 42.5747 165.873 42.0924 167.124 42.072H265.995C266.587 42.0629 267.174 42.1789 267.718 42.4124C268.262 42.6459 268.751 42.9916 269.152 43.427C269.554 43.8624 269.859 44.3776 270.047 44.9389C270.236 45.5003 270.303 46.0951 270.246 46.6844L257.781 206.599C257.667 207.844 257.097 209.004 256.18 209.855C255.264 210.706 254.065 211.189 252.814 211.211Z" fill="#2E353A"/>
<path opacity="0.2" d="M252.814 211.211H153.937C153.346 211.22 152.759 211.104 152.215 210.871C151.671 210.637 151.182 210.291 150.782 209.856C150.381 209.42 150.077 208.905 149.889 208.344C149.701 207.782 149.634 207.188 149.692 206.599L162.157 46.6844C162.27 45.4382 162.84 44.2777 163.757 43.4262C164.673 42.5747 165.873 42.0924 167.124 42.072H265.995C266.587 42.0629 267.174 42.1789 267.718 42.4124C268.262 42.6459 268.751 42.9916 269.152 43.427C269.554 43.8624 269.859 44.3776 270.047 44.9389C270.236 45.5003 270.303 46.0951 270.246 46.6844L257.781 206.599C257.667 207.844 257.097 209.004 256.18 209.855C255.264 210.706 254.065 211.189 252.814 211.211Z" fill="white"/>
<path d="M239.422 52.5271H192.074C191.867 52.5308 191.661 52.4907 191.471 52.4094C191.28 52.3281 191.109 52.2075 190.969 52.0554C190.828 51.9033 190.721 51.7232 190.655 51.527C190.589 51.3308 190.565 51.1228 190.585 50.9167L191.313 41.5695C191.353 41.1329 191.553 40.7265 191.874 40.428C192.195 40.1296 192.615 39.9603 193.053 39.9525H240.401C240.608 39.9497 240.813 39.9906 241.003 40.0727C241.194 40.1548 241.364 40.2762 241.504 40.4289C241.644 40.5816 241.75 40.7621 241.815 40.9587C241.88 41.1553 241.903 41.3634 241.882 41.5695L241.155 50.8909C241.121 51.3303 240.925 51.7414 240.604 52.044C240.284 52.3466 239.862 52.5188 239.422 52.5271Z" fill="#146BB8"/>
<path opacity="0.2" d="M239.422 52.5271H192.074C191.867 52.5308 191.661 52.4907 191.471 52.4094C191.28 52.3281 191.109 52.2075 190.969 52.0554C190.828 51.9033 190.721 51.7232 190.655 51.527C190.589 51.3308 190.565 51.1228 190.585 50.9167L191.313 41.5695C191.353 41.1329 191.553 40.7265 191.874 40.428C192.195 40.1296 192.615 39.9603 193.053 39.9525H240.401C240.608 39.9497 240.813 39.9906 241.003 40.0727C241.194 40.1548 241.364 40.2762 241.504 40.4289C241.644 40.5816 241.75 40.7621 241.815 40.9587C241.88 41.1553 241.903 41.3634 241.882 41.5695L241.155 50.8909C241.121 51.3303 240.925 51.7414 240.604 52.044C240.284 52.3466 239.862 52.5188 239.422 52.5271Z" fill="black"/>
<path d="M220.18 42.8579H212.771L213.061 39.1474C213.152 38.1468 213.609 37.2149 214.345 36.5311C215.081 35.8473 216.044 35.4599 217.049 35.4433C217.525 35.4357 217.997 35.5286 218.434 35.7159C218.872 35.9032 219.265 36.1808 219.588 36.5304C219.91 36.88 220.156 37.2938 220.308 37.7448C220.46 38.1957 220.515 38.6737 220.47 39.1474L220.18 42.8579Z" fill="#146BB8"/>
<path opacity="0.4" d="M220.18 42.8579H212.771L213.061 39.1474C213.152 38.1468 213.609 37.2149 214.345 36.5311C215.081 35.8473 216.044 35.4599 217.049 35.4433C217.525 35.4357 217.997 35.5286 218.434 35.7159C218.872 35.9032 219.265 36.1808 219.588 36.5304C219.91 36.88 220.156 37.2938 220.308 37.7448C220.46 38.1957 220.515 38.6737 220.47 39.1474L220.18 42.8579Z" fill="white"/>
<path d="M251.481 204.531H156.308L168.458 48.7458H263.624L251.481 204.531Z" fill="white"/>
<path d="M230.616 56.9012H200.21C199.722 56.9081 199.239 56.812 198.791 56.6192C198.343 56.4265 197.941 56.1415 197.611 55.7828C197.281 55.4241 197.03 54.9998 196.875 54.5376C196.72 54.0754 196.665 53.5857 196.712 53.1005L197.098 48.1531C197.192 47.1268 197.661 46.1712 198.416 45.4697C199.171 44.7683 200.159 44.3704 201.189 44.3524H231.601C232.089 44.3457 232.573 44.4418 233.021 44.6344C233.469 44.8271 233.871 45.112 234.202 45.4706C234.532 45.8291 234.784 46.2533 234.939 46.7155C235.095 47.1777 235.152 47.6676 235.106 48.1531L234.719 53.1005C234.623 54.1279 234.151 55.0837 233.394 55.7849C232.636 56.4861 231.647 56.8836 230.616 56.9012ZM201.073 45.6472C200.393 45.6587 199.742 45.9209 199.244 46.3834C198.745 46.8459 198.436 47.4761 198.374 48.1531L197.987 53.1005C197.956 53.4208 197.992 53.7443 198.094 54.0497C198.195 54.3551 198.361 54.6355 198.578 54.8726C198.796 55.1098 199.061 55.2983 199.357 55.4259C199.652 55.5534 199.972 55.6171 200.294 55.6128H230.712C231.394 55.6014 232.047 55.3385 232.546 54.8748C233.046 54.4111 233.356 53.7792 233.418 53.1005L233.804 48.1531C233.834 47.8329 233.796 47.5101 233.693 47.2055C233.59 46.9008 233.424 46.6213 233.206 46.385C232.988 46.1487 232.723 45.9609 232.427 45.8338C232.132 45.7067 231.813 45.6431 231.492 45.6472H201.073Z" fill="#146BB8"/>
<g opacity="0.4">
<path d="M230.616 56.9012H200.21C199.722 56.9081 199.239 56.812 198.791 56.6192C198.343 56.4265 197.941 56.1415 197.611 55.7828C197.281 55.4241 197.03 54.9998 196.875 54.5376C196.72 54.0754 196.665 53.5857 196.712 53.1005L197.098 48.1531C197.192 47.1268 197.661 46.1712 198.416 45.4697C199.171 44.7683 200.159 44.3704 201.189 44.3524H231.601C232.089 44.3457 232.573 44.4418 233.021 44.6344C233.469 44.8271 233.871 45.112 234.202 45.4706C234.532 45.8291 234.784 46.2533 234.939 46.7155C235.095 47.1777 235.152 47.6676 235.106 48.1531L234.719 53.1005C234.623 54.1279 234.151 55.0837 233.394 55.7849C232.636 56.4861 231.647 56.8836 230.616 56.9012ZM201.073 45.6472C200.393 45.6587 199.742 45.9209 199.244 46.3834C198.745 46.8459 198.436 47.4761 198.374 48.1531L197.987 53.1005C197.956 53.4208 197.992 53.7443 198.094 54.0497C198.195 54.3551 198.361 54.6355 198.578 54.8726C198.796 55.1098 199.061 55.2983 199.357 55.4259C199.652 55.5534 199.972 55.6171 200.294 55.6128H230.712C231.394 55.6014 232.047 55.3385 232.546 54.8748C233.046 54.4111 233.356 53.7792 233.418 53.1005L233.804 48.1531C233.834 47.8329 233.796 47.5101 233.693 47.2055C233.59 46.9008 233.424 46.6213 233.206 46.385C232.988 46.1487 232.723 45.9609 232.427 45.8338C232.132 45.7067 231.813 45.6431 231.492 45.6472H201.073Z" fill="white"/>
</g>
<path d="M229.044 47.2063H203.276C203.162 47.2086 203.049 47.1869 202.945 47.1425C202.84 47.0981 202.746 47.032 202.669 46.9487C202.592 46.8653 202.533 46.7665 202.496 46.6588C202.46 46.5511 202.447 46.4369 202.458 46.3238L202.658 43.747C202.681 43.5077 202.792 43.2855 202.969 43.1227C203.146 42.96 203.377 42.868 203.617 42.8644H229.385C229.498 42.862 229.611 42.8837 229.715 42.9282C229.82 42.9726 229.914 43.0388 229.99 43.1223C230.067 43.2058 230.125 43.3047 230.161 43.4124C230.196 43.5201 230.209 43.6342 230.197 43.747L229.997 46.3238C229.975 46.5625 229.865 46.7846 229.689 46.9475C229.513 47.1104 229.283 47.2026 229.044 47.2063Z" fill="#146BB8"/>
<path d="M250.863 71.5051H178.713L179.325 63.6331H251.475L250.863 71.5051Z" fill="#146BB8"/>
<path d="M221.661 82.4628H173.63L173.791 80.4336H221.822L221.661 82.4628Z" fill="#146BB8"/>
<path d="M221.21 88.325H173.179L173.334 86.2893H221.365L221.21 88.325Z" fill="#146BB8"/>
<path d="M220.753 94.1873H172.722L172.877 92.1516H220.908L220.753 94.1873Z" fill="#146BB8"/>
<path d="M220.296 100.043H172.265L172.419 98.0137H220.45L220.296 100.043Z" fill="#146BB8"/>
<path d="M251.809 100.043H232.213L233.746 80.4336H253.343L251.809 100.043Z" fill="#146BB8"/>
<path d="M246.385 87.7131C246.476 86.5664 245.587 85.7805 243.976 85.7805C243.351 85.7507 242.727 85.8627 242.152 86.1082C241.576 86.3536 241.063 86.7261 240.652 87.1977L239.415 86.2636C240.016 85.5934 240.758 85.0652 241.588 84.7176C242.418 84.3699 243.316 84.2115 244.215 84.2538C246.791 84.2538 248.376 85.4584 248.215 87.4747C247.983 90.4702 244.794 90.6957 244.614 93.0212H242.817C243.042 90.1868 246.224 89.7745 246.385 87.7131ZM242.34 95.9136C242.363 95.5924 242.511 95.2928 242.751 95.0787C242.992 94.8645 243.307 94.7527 243.628 94.767C243.776 94.7612 243.924 94.7877 244.061 94.8446C244.198 94.9015 244.321 94.9874 244.421 95.0964C244.522 95.2055 244.597 95.335 244.643 95.4761C244.688 95.6172 244.703 95.7665 244.685 95.9136C244.66 96.2252 244.52 96.5163 244.291 96.7288C244.061 96.9412 243.76 97.0596 243.448 97.0603C243.296 97.0716 243.144 97.0493 243.002 96.9951C242.859 96.941 242.731 96.8561 242.625 96.7467C242.519 96.6373 242.439 96.5059 242.39 96.3619C242.34 96.218 242.323 96.0649 242.34 95.9136Z" fill="white"/>
<path d="M219.349 112.141H171.318L171.479 110.105H219.51L219.349 112.141Z" fill="#146BB8"/>
<path d="M218.891 117.996H170.86L171.021 115.967H219.052L218.891 117.996Z" fill="#146BB8"/>
<path d="M218.44 123.859H170.409L170.564 121.829H218.595L218.44 123.859Z" fill="#146BB8"/>
<path d="M217.983 129.721H169.952L170.107 127.685H218.138L217.983 129.721Z" fill="#146BB8"/>
<path d="M249.497 129.721H229.9L231.427 110.105H251.023L249.497 129.721Z" fill="#146BB8"/>
<path d="M244.073 117.391C244.163 116.238 243.274 115.458 241.663 115.458C241.038 115.429 240.415 115.541 239.839 115.786C239.263 116.032 238.751 116.404 238.339 116.876L237.103 115.954C237.702 115.283 238.444 114.754 239.275 114.407C240.105 114.059 241.003 113.901 241.902 113.945C244.479 113.945 246.063 115.149 245.902 117.166C245.67 120.161 242.482 120.387 242.301 122.712H240.504C240.723 119.82 243.912 119.452 244.073 117.391ZM240.027 125.617C240.049 125.301 240.191 125.004 240.425 124.79C240.659 124.575 240.966 124.459 241.283 124.464C241.432 124.458 241.58 124.485 241.718 124.542C241.855 124.599 241.978 124.686 242.079 124.796C242.18 124.906 242.255 125.036 242.3 125.178C242.345 125.32 242.359 125.47 242.34 125.617C242.314 125.928 242.173 126.219 241.944 126.431C241.715 126.643 241.415 126.762 241.103 126.764C240.954 126.77 240.805 126.745 240.667 126.688C240.529 126.632 240.404 126.546 240.302 126.437C240.2 126.329 240.122 126.199 240.075 126.057C240.028 125.916 240.011 125.766 240.027 125.617Z" fill="white"/>
<path d="M217.036 141.812H169.005L169.166 139.783H217.197L217.036 141.812Z" fill="#146BB8"/>
<path d="M216.579 147.674H168.548L168.709 145.639H216.74L216.579 147.674Z" fill="#146BB8"/>
<path d="M216.121 153.537H168.097L168.251 151.501H216.282L216.121 153.537Z" fill="#146BB8"/>
<path d="M215.67 159.392H167.639L167.794 157.363H215.825L215.67 159.392Z" fill="#146BB8"/>
<path d="M247.184 159.392H227.588L229.115 139.783H248.711L247.184 159.392Z" fill="#146BB8"/>
<path d="M241.76 147.062C241.85 145.916 240.961 145.13 239.344 145.13C238.72 145.101 238.098 145.213 237.523 145.458C236.949 145.704 236.437 146.076 236.027 146.547L234.79 145.587C235.39 144.916 236.132 144.387 236.962 144.039C237.793 143.692 238.69 143.534 239.589 143.577C242.166 143.577 243.744 144.776 243.59 146.766C243.358 149.768 240.169 149.987 239.989 152.313H238.217C238.41 149.523 241.599 149.124 241.76 147.062ZM237.715 155.25C237.738 154.935 237.881 154.64 238.114 154.427C238.348 154.213 238.655 154.098 238.971 154.104C239.119 154.098 239.267 154.124 239.403 154.181C239.54 154.238 239.663 154.324 239.764 154.433C239.864 154.542 239.94 154.672 239.985 154.813C240.031 154.954 240.045 155.103 240.027 155.25C240.003 155.562 239.862 155.853 239.633 156.065C239.404 156.278 239.103 156.396 238.79 156.397C238.641 156.404 238.492 156.379 238.353 156.323C238.214 156.267 238.089 156.182 237.987 156.073C237.885 155.964 237.807 155.833 237.76 155.691C237.713 155.549 237.698 155.399 237.715 155.25Z" fill="white"/>
<path d="M214.723 171.49H166.692L166.853 169.455H214.884L214.723 171.49Z" fill="#146BB8"/>
<path d="M214.266 177.352H166.235L166.396 175.317H214.427L214.266 177.352Z" fill="#146BB8"/>
<path d="M213.809 183.208H165.778L165.939 181.179H213.97L213.809 183.208Z" fill="#146BB8"/>
<path d="M213.351 189.07H165.32L165.481 187.034H213.512L213.351 189.07Z" fill="#146BB8"/>
<path d="M244.871 189.07H225.275L226.802 169.455H246.398L244.871 189.07Z" fill="#146BB8"/>
<path d="M239.447 176.74C239.538 175.587 238.649 174.808 237.032 174.808C236.408 174.778 235.785 174.89 235.21 175.136C234.636 175.381 234.124 175.753 233.714 176.225L232.477 175.291C233.077 174.62 233.819 174.091 234.649 173.743C235.48 173.395 236.377 173.237 237.277 173.281C239.853 173.281 241.432 174.486 241.277 176.502C241.045 179.497 237.856 179.723 237.676 182.048H235.879C236.098 179.195 239.286 178.802 239.447 176.74ZM235.402 184.941C235.423 184.624 235.566 184.328 235.8 184.113C236.033 183.899 236.341 183.782 236.658 183.788C236.807 183.782 236.955 183.809 237.093 183.866C237.23 183.923 237.353 184.01 237.454 184.119C237.554 184.229 237.63 184.359 237.675 184.501C237.72 184.643 237.733 184.793 237.715 184.941C237.689 185.252 237.548 185.542 237.319 185.754C237.09 185.967 236.79 186.085 236.478 186.088C236.329 186.094 236.18 186.068 236.042 186.012C235.903 185.955 235.779 185.87 235.677 185.761C235.575 185.652 235.497 185.523 235.45 185.381C235.402 185.239 235.386 185.089 235.402 184.941Z" fill="white"/>
<path opacity="0.7" d="M250.863 71.5051H178.713L179.325 63.6331H251.475L250.863 71.5051Z" fill="white"/>
<path opacity="0.7" d="M221.661 82.4628H173.63L173.791 80.4336H221.822L221.661 82.4628Z" fill="white"/>
<path opacity="0.7" d="M221.21 88.325H173.179L173.334 86.2893H221.365L221.21 88.325Z" fill="white"/>
<path opacity="0.7" d="M220.753 94.1873H172.722L172.877 92.1516H220.908L220.753 94.1873Z" fill="white"/>
<path opacity="0.7" d="M220.296 100.043H172.265L172.419 98.0137H220.45L220.296 100.043Z" fill="white"/>
<path opacity="0.7" d="M251.809 100.043H232.213L233.746 80.4336H253.343L251.809 100.043Z" fill="white"/>
<path opacity="0.7" d="M219.349 112.141H171.318L171.479 110.105H219.51L219.349 112.141Z" fill="white"/>
<path opacity="0.7" d="M218.891 117.996H170.86L171.021 115.967H219.052L218.891 117.996Z" fill="white"/>
<path opacity="0.7" d="M218.44 123.859H170.409L170.564 121.829H218.595L218.44 123.859Z" fill="white"/>
<path opacity="0.7" d="M217.983 129.721H169.952L170.107 127.685H218.138L217.983 129.721Z" fill="white"/>
<path opacity="0.7" d="M249.497 129.721H229.9L231.427 110.105H251.023L249.497 129.721Z" fill="white"/>
<path opacity="0.7" d="M217.036 141.812H169.005L169.166 139.783H217.197L217.036 141.812Z" fill="white"/>
<path opacity="0.7" d="M216.579 147.674H168.548L168.709 145.639H216.74L216.579 147.674Z" fill="white"/>
<path opacity="0.7" d="M216.121 153.537H168.097L168.251 151.501H216.282L216.121 153.537Z" fill="white"/>
<path opacity="0.7" d="M215.67 159.392H167.639L167.794 157.363H215.825L215.67 159.392Z" fill="white"/>
<path opacity="0.7" d="M247.184 159.392H227.588L229.115 139.783H248.711L247.184 159.392Z" fill="white"/>
<path opacity="0.7" d="M214.723 171.49H166.692L166.853 169.455H214.884L214.723 171.49Z" fill="white"/>
<path opacity="0.7" d="M214.266 177.352H166.235L166.396 175.317H214.427L214.266 177.352Z" fill="white"/>
<path opacity="0.7" d="M213.809 183.208H165.778L165.939 181.179H213.97L213.809 183.208Z" fill="white"/>
<path opacity="0.7" d="M213.351 189.07H165.32L165.481 187.034H213.512L213.351 189.07Z" fill="white"/>
<path opacity="0.7" d="M244.871 189.07H225.275L226.802 169.455H246.398L244.871 189.07Z" fill="white"/>
<path d="M135.791 130.127V147.868C135.795 151.366 134.444 154.73 132.022 157.254L115.466 174.576H124.839L142.039 157.647C143.322 156.385 144.341 154.881 145.038 153.222C145.735 151.564 146.095 149.783 146.098 147.984V130.127H135.791Z" fill="#146BB8"/>
<path opacity="0.4" d="M146.098 130.127V147.964C146.1 148.964 145.988 149.96 145.763 150.934C145.199 153.485 143.905 155.818 142.039 157.647L124.839 174.576H115.466L132.022 157.254C134.444 154.73 135.795 151.366 135.791 147.868V130.127H146.098Z" fill="white"/>
<path opacity="0.2" d="M146.098 130.127V147.964C146.1 148.964 145.988 149.96 145.763 150.934L135.791 146.908V130.127H146.098Z" fill="black"/>
<path d="M108.954 176.509L95.0777 229.371C94.9534 229.852 94.6727 230.278 94.2798 230.583C93.8868 230.887 93.4038 231.052 92.9068 231.052H68.1118C67.9076 231.052 67.7063 231.004 67.5232 230.914C67.3401 230.823 67.18 230.692 67.0554 230.53C66.9302 230.369 66.8442 230.181 66.8039 229.981C66.7637 229.781 66.7704 229.574 66.8234 229.377L80.7058 176.509H78.0388L64.3304 228.72C64.1802 229.299 64.1643 229.904 64.2837 230.49C64.4032 231.076 64.655 231.626 65.0198 232.1C65.3846 232.574 65.8529 232.958 66.3888 233.223C66.9247 233.488 67.514 233.627 68.1118 233.629H92.9068C93.9728 233.628 95.0085 233.275 95.8523 232.623C96.696 231.972 97.3003 231.059 97.5707 230.028L111.614 176.509H108.954Z" fill="#146BB8"/>
<g opacity="0.4">
<path d="M108.954 176.509L95.0777 229.371C94.9534 229.852 94.6727 230.278 94.2798 230.583C93.8868 230.887 93.4038 231.052 92.9068 231.052H68.1118C67.9076 231.052 67.7063 231.004 67.5232 230.914C67.3401 230.823 67.18 230.692 67.0554 230.53C66.9302 230.369 66.8442 230.181 66.8039 229.981C66.7637 229.781 66.7704 229.574 66.8234 229.377L80.7058 176.509H78.0388L64.3304 228.72C64.1802 229.299 64.1643 229.904 64.2837 230.49C64.4032 231.076 64.655 231.626 65.0198 232.1C65.3846 232.574 65.8529 232.958 66.3888 233.223C66.9247 233.488 67.514 233.627 68.1118 233.629H92.9068C93.9728 233.628 95.0085 233.275 95.8523 232.623C96.696 231.972 97.3003 231.059 97.5707 230.028L111.614 176.509H108.954Z" fill="white"/>
</g>
<path d="M114.629 233.629L99.4581 175.781L96.9651 176.431L111.962 233.629H114.629Z" fill="#146BB8"/>
<path d="M145.55 233.629L130.379 175.781L127.886 176.431L142.883 233.629H145.55Z" fill="#146BB8"/>
<g opacity="0.5">
<path d="M114.629 233.629L99.4581 175.781L96.9651 176.431L111.962 233.629H114.629Z" fill="white"/>
</g>
<g opacity="0.5">
<path d="M145.55 233.629L130.379 175.781L127.886 176.431L142.883 233.629H145.55Z" fill="white"/>
</g>
<path opacity="0.2" d="M78.0387 176.509H80.7056L78.612 184.477L76.1448 183.723L78.0387 176.509Z" fill="black"/>
<path opacity="0.2" d="M99.4581 175.781L102.905 188.928L100.012 188.052L96.9651 176.431L99.4581 175.781Z" fill="black"/>
<path opacity="0.2" d="M108.954 176.509H111.614L107.246 193.193L104.773 192.439L108.954 176.509Z" fill="black"/>
<path opacity="0.2" d="M136.467 199.152L133.562 198.263L127.886 176.592L130.379 175.884L136.467 199.152Z" fill="black"/>
<path d="M75.6875 177.391L63.6411 112.18L63.4801 111.194C63.361 110.585 63.3772 109.957 63.5275 109.355C63.6778 108.752 63.9584 108.191 64.3497 107.709C64.7276 107.256 65.2021 106.894 65.7383 106.649C66.2745 106.404 66.8588 106.282 67.4483 106.292H93.5251C94.7628 106.352 95.9449 106.824 96.885 107.631C97.8252 108.438 98.4699 109.535 98.7173 110.749L98.9106 111.851L110.951 176.914L108.412 177.378L96.3338 112.122L96.1792 111.207C96.0451 110.584 95.715 110.021 95.2373 109.6C94.7596 109.18 94.1595 108.923 93.5251 108.868H67.4225C67.2108 108.86 67.0001 108.9 66.806 108.985C66.6118 109.069 66.4394 109.197 66.3016 109.358C66.1512 109.554 66.0455 109.781 65.9921 110.023C65.9387 110.264 65.9388 110.514 65.9924 110.756L66.1728 111.838L78.2256 176.901L75.6875 177.391Z" fill="#146BB8"/>
<g opacity="0.5">
<path d="M75.6875 177.391L63.6411 112.18L63.4801 111.194C63.361 110.585 63.3772 109.957 63.5275 109.355C63.6778 108.752 63.9584 108.191 64.3497 107.709C64.7276 107.256 65.2021 106.894 65.7383 106.649C66.2745 106.404 66.8588 106.282 67.4483 106.292H93.5251C94.7628 106.352 95.9449 106.824 96.885 107.631C97.8252 108.438 98.4699 109.535 98.7173 110.749L98.9106 111.851L110.951 176.914L108.412 177.378L96.3338 112.122L96.1792 111.207C96.0451 110.584 95.715 110.021 95.2373 109.6C94.7596 109.18 94.1595 108.923 93.5251 108.868H67.4225C67.2108 108.86 67.0001 108.9 66.806 108.985C66.6118 109.069 66.4394 109.197 66.3016 109.358C66.1512 109.554 66.0455 109.781 65.9921 110.023C65.9387 110.264 65.9388 110.514 65.9924 110.756L66.1728 111.838L78.2256 176.901L75.6875 177.391Z" fill="white"/>
</g>
<path d="M80.957 170.923H130.515C131.369 170.923 132.188 171.263 132.792 171.867C133.396 172.471 133.736 173.29 133.736 174.144V178.441H77.7361V174.131C77.7395 173.279 78.0803 172.463 78.684 171.862C79.2877 171.261 80.105 170.923 80.957 170.923Z" fill="#146BB8"/>
<path d="M134.509 174.692H76.963C76.2479 174.692 75.6682 175.272 75.6682 175.987V177.159C75.6682 177.874 76.2479 178.454 76.963 178.454H134.509C135.224 178.454 135.804 177.874 135.804 177.159V175.987C135.804 175.272 135.224 174.692 134.509 174.692Z" fill="#146BB8"/>
<path opacity="0.6" d="M134.509 174.692H76.963C76.2479 174.692 75.6682 175.272 75.6682 175.987V177.159C75.6682 177.874 76.2479 178.454 76.963 178.454H134.509C135.224 178.454 135.804 177.874 135.804 177.159V175.987C135.804 175.272 135.224 174.692 134.509 174.692Z" fill="white"/>
<path d="M102.505 138.501H69.7609L64.8779 112.089H97.6157L102.46 138.256L102.505 138.501Z" fill="#146BB8"/>
<path d="M134.715 82.2181C134.715 82.2181 130.598 72.6583 130.244 71.634C129.89 70.6098 130.308 65.4369 129.993 64.5479C129.677 63.6589 124.897 63.0212 123.886 63.1372C122.874 63.2531 123.763 71.254 124.182 71.8853C124.728 72.5348 125.344 73.1223 126.018 73.6375L129.658 84.5887L134.715 82.2181Z" fill="#B97964"/>
<path d="M113.888 100.262C116.696 100.706 128.195 102.368 130.766 100.655C132.84 99.2699 126.997 76.8198 126.997 76.8198L132.196 74.7004C132.196 74.7004 144.545 101.898 137.948 108.108C134.598 111.265 125.18 112.064 111.633 112.064L113.888 100.262Z" fill="#146BB8"/>
<path opacity="0.8" d="M113.888 100.262C116.696 100.706 128.195 102.368 130.766 100.655C132.84 99.2699 126.997 76.8198 126.997 76.8198L132.196 74.7004C132.196 74.7004 144.545 101.898 137.948 108.108C134.598 111.265 125.18 112.064 111.633 112.064L113.888 100.262Z" fill="white"/>
<path opacity="0.1" d="M118.648 111.999C116.651 112.057 114.519 112.083 112.277 112.083L114.21 104.681C116.304 106.69 117.834 109.214 118.648 111.999Z" fill="black"/>
<path d="M130.102 115.948L143.733 130.365" stroke="#2E353A" stroke-width="2" stroke-miterlimit="10"/>
<path d="M120.33 124.438C120.33 124.438 130.734 124.116 131.816 124.007C132.898 123.897 137.401 121.321 138.367 121.217C139.333 121.114 141.91 125.186 142.232 126.152C142.554 127.118 134.934 129.695 134.18 129.592C133.361 129.368 132.568 129.057 131.816 128.664L120.33 130.017V124.438Z" fill="#B97964"/>
<path d="M114.21 228.578L119.344 227.876L120.053 215.675L114.931 216.384L114.21 228.578Z" fill="#B97964"/>
<path d="M119.731 227.258L113.933 226.891C113.836 226.883 113.74 226.913 113.665 226.974C113.589 227.035 113.54 227.123 113.527 227.219L112.96 231.793C112.944 232.033 113.024 232.27 113.182 232.451C113.341 232.632 113.564 232.743 113.804 232.759C115.827 232.856 116.8 232.798 119.351 232.94C120.922 233.03 124.008 233.365 126.166 233.152C128.324 232.94 128.06 230.814 127.132 230.711C124.916 230.46 121.979 228.836 120.6 227.599C120.356 227.392 120.05 227.272 119.731 227.258Z" fill="#2E353A"/>
<path d="M121.509 228.249C121.045 228.208 120.587 228.117 120.143 227.979C120.12 227.973 120.1 227.961 120.084 227.944C120.068 227.927 120.057 227.905 120.053 227.882C120.051 227.859 120.056 227.835 120.066 227.814C120.076 227.792 120.092 227.774 120.111 227.76C120.285 227.657 121.811 226.749 122.43 227.032C122.499 227.066 122.558 227.117 122.602 227.18C122.646 227.243 122.673 227.316 122.681 227.393C122.712 227.507 122.711 227.627 122.678 227.741C122.645 227.855 122.582 227.957 122.494 228.037C122.204 228.228 121.852 228.304 121.509 228.249ZM122.327 227.277C121.998 227.122 121.109 227.502 120.484 227.844C121.399 228.082 122.076 228.095 122.34 227.876C122.393 227.82 122.43 227.752 122.45 227.677C122.469 227.603 122.469 227.525 122.449 227.451C122.446 227.413 122.434 227.378 122.412 227.347C122.391 227.316 122.361 227.292 122.327 227.277Z" fill="#146BB8"/>
<path d="M120.169 227.979C120.152 227.985 120.134 227.985 120.117 227.979C120.084 227.956 120.061 227.922 120.053 227.883C120.053 227.838 120.053 226.324 120.581 225.853C120.654 225.794 120.739 225.751 120.83 225.727C120.921 225.704 121.017 225.701 121.109 225.718C121.211 225.727 121.307 225.77 121.382 225.84C121.457 225.91 121.506 226.003 121.521 226.105C121.605 226.678 120.768 227.709 120.233 227.979C120.223 227.984 120.212 227.986 120.201 227.986C120.19 227.986 120.179 227.984 120.169 227.979ZM121.006 225.969C120.958 225.966 120.909 225.973 120.864 225.989C120.818 226.006 120.777 226.032 120.742 226.066C120.407 226.343 120.323 227.193 120.304 227.677C120.804 227.311 121.152 226.774 121.283 226.169C121.283 226.098 121.238 226.008 121.064 225.976L121.006 225.969Z" fill="#146BB8"/>
<path opacity="0.2" d="M114.931 216.384L120.053 215.682L119.647 222.652L114.532 223.103L114.931 216.384Z" fill="black"/>
<path d="M114.416 156.867L113.166 149.021L84.3968 147.301C84.3968 147.301 81.3369 163.625 83.6882 167.973C87.8819 175.735 110.499 171.838 117.115 172.579C113.16 188.755 113.546 220.365 113.546 220.365L122.997 221.086C122.997 221.086 130.27 187.028 131.738 170.84C132.73 159.92 123.68 160.191 114.416 156.867Z" fill="#2E353A"/>
<path d="M112.438 220.809L123.796 221.557L124.768 216.693L112.29 216.113L112.438 220.809Z" fill="#146BB8"/>
<path d="M126.05 224.024L131.217 224.404L134.451 212.622L129.291 212.248L126.05 224.024Z" fill="#B97964"/>
<path d="M131.725 223.876L126.127 222.317C126.035 222.286 125.934 222.293 125.848 222.337C125.761 222.38 125.694 222.457 125.664 222.549L124.156 226.903C124.124 227.02 124.115 227.141 124.13 227.261C124.145 227.381 124.184 227.496 124.244 227.601C124.303 227.706 124.383 227.798 124.479 227.872C124.575 227.945 124.684 227.999 124.8 228.031C126.733 228.54 127.719 228.675 130.186 229.358C131.7 229.777 134.65 230.743 136.808 230.988C138.966 231.232 139.147 229.094 138.258 228.804C136.145 228.095 133.619 225.892 132.518 224.398C132.32 224.139 132.041 223.955 131.725 223.876Z" fill="#2E353A"/>
<path d="M133.259 225.222C132.809 225.087 132.377 224.901 131.97 224.668C131.949 224.659 131.931 224.644 131.919 224.624C131.908 224.604 131.903 224.581 131.906 224.558C131.908 224.535 131.916 224.512 131.929 224.493C131.943 224.474 131.962 224.458 131.983 224.449C132.17 224.385 133.858 223.805 134.399 224.224C134.462 224.27 134.511 224.332 134.543 224.403C134.574 224.474 134.587 224.552 134.579 224.629C134.588 224.751 134.561 224.872 134.503 224.979C134.445 225.087 134.357 225.175 134.251 225.234C133.93 225.354 133.576 225.349 133.259 225.222ZM134.257 224.436C133.967 224.217 133.02 224.436 132.325 224.61C133.169 225.035 133.832 225.189 134.128 225.028C134.193 224.986 134.245 224.927 134.28 224.859C134.315 224.79 134.332 224.713 134.328 224.636C134.335 224.598 134.331 224.559 134.316 224.524C134.301 224.488 134.276 224.458 134.244 224.436H134.257Z" fill="#146BB8"/>
<path d="M132.002 224.681H131.925C131.91 224.668 131.899 224.65 131.892 224.631C131.885 224.612 131.883 224.592 131.886 224.572C131.886 224.527 132.189 223.045 132.821 222.697C132.905 222.658 132.998 222.637 133.091 222.637C133.185 222.637 133.277 222.658 133.362 222.697C133.461 222.728 133.547 222.791 133.606 222.876C133.665 222.961 133.695 223.064 133.69 223.167C133.645 223.741 132.614 224.578 132.035 224.733C132.018 224.72 132.007 224.702 132.002 224.681ZM133.214 222.89C133.167 222.877 133.119 222.874 133.071 222.881C133.023 222.887 132.977 222.904 132.937 222.929C132.55 223.135 132.292 223.947 132.17 224.417C132.698 224.172 133.394 223.522 133.458 223.129C133.458 223.058 133.458 222.968 133.284 222.903L133.214 222.89Z" fill="#146BB8"/>
<path opacity="0.2" d="M129.29 212.248L134.45 212.628L132.602 219.36L127.5 218.735L129.29 212.248Z" fill="black"/>
<path d="M136.203 218.529L127.107 215.856C127.107 215.856 132.569 185.205 138.045 174.576C137.633 174.441 137.085 174.267 136.409 174.067C135.191 173.7 133.574 173.242 131.674 172.714C118.455 169.049 91.6633 162.175 91.6633 162.175L103.903 150.754C103.903 150.754 152.655 158.188 153.667 171.033C154.15 177.211 136.203 218.529 136.203 218.529Z" fill="#2E353A"/>
<path d="M125.934 216.055L136.886 219.154L138.85 214.599L126.765 211.43L125.934 216.055Z" fill="#146BB8"/>
<path opacity="0.2" d="M136.435 174.067C135.217 173.7 133.6 173.242 131.7 172.714C132.08 169.596 132.086 166.021 130.585 164.198C127.603 160.565 119.93 158.432 115.563 157.659C111.91 157.015 99.6384 155.727 99.6384 155.727C99.6384 155.727 115.563 154.2 131.848 158.948C139.862 161.306 138.296 169.171 136.435 174.067Z" fill="black"/>
<path d="M113.888 100.262C113.888 100.262 118.062 115.723 113.186 149.021C104.096 148.828 88.8224 148.473 84.3968 148.377C84.2873 143.738 87.7079 121.011 83.7075 99.0895C86.5883 98.5926 89.5011 98.3041 92.4234 98.2263C96.7005 98.0737 100.983 98.1662 105.249 98.5033C108.17 98.8664 111.058 99.4544 113.888 100.262Z" fill="#146BB8"/>
<path opacity="0.7" d="M113.888 100.262C113.888 100.262 118.062 115.723 113.186 149.021C104.096 148.828 88.8224 148.473 84.3968 148.377C84.2873 143.738 87.7079 121.011 83.7075 99.0895C86.5883 98.5926 89.5011 98.3041 92.4234 98.2263C96.7005 98.0737 100.983 98.1662 105.249 98.5033C108.17 98.8664 111.058 99.4544 113.888 100.262Z" fill="white"/>
<path opacity="0.1" d="M93.8084 127.337C91.2316 126.77 88.1589 124.29 85.6272 121.842C85.6272 117.488 85.4146 112.856 84.9443 108.134C88.526 113.436 98.2276 128.31 93.8084 127.337Z" fill="black"/>
<path d="M83.6881 99.0896C73.8384 102.639 91.1285 129.309 96.4947 132.059C101.861 134.81 129.136 129.051 129.136 129.051L128.06 123.537C128.06 123.537 103.929 124.149 101.706 123.588C99.4837 123.028 94.2013 111.658 91.1607 106.292C89.4705 103.179 86.8609 100.664 83.6881 99.0896Z" fill="#146BB8"/>
<path opacity="0.8" d="M83.6881 99.0896C73.8384 102.639 91.1285 129.309 96.4947 132.059C101.861 134.81 129.136 129.051 129.136 129.051L128.06 123.537C128.06 123.537 103.929 124.149 101.706 123.588C99.4837 123.028 94.2013 111.658 91.1607 106.292C89.4705 103.179 86.8609 100.664 83.6881 99.0896Z" fill="white"/>
<path d="M126.127 123.041L127.525 130.365L130.102 129.482L129.136 123.041H126.127Z" fill="#146BB8"/>
<path opacity="0.7" d="M126.127 123.041L127.525 130.365L130.102 129.482L129.136 123.041H126.127Z" fill="white"/>
<path d="M126.823 78.4495L133.755 75.7052L132.408 73.3411L126.256 75.4927L126.823 78.4495Z" fill="#146BB8"/>
<path opacity="0.7" d="M126.823 78.4495L133.755 75.7052L132.408 73.3411L126.256 75.4927L126.823 78.4495Z" fill="white"/>
<path opacity="0.1" d="M90.8516 98.2908C90.8516 98.2908 91.0384 101.299 96.9456 104.198L101.03 101.241C101.03 101.241 102.196 108.791 102.962 114.428C102.962 114.428 102.911 105.409 102.138 101.943L105.262 103.051C105.262 103.051 102.602 98.484 98.0729 97.434C93.5443 96.3839 90.8516 98.2908 90.8516 98.2908Z" fill="black"/>
<path d="M93.9823 83.8479C94.7038 87.9901 95.348 95.5657 92.4041 98.2585L101.004 100.655L105.204 98.5355C100.624 97.3373 100.817 93.9231 101.687 90.7343L93.9823 83.8479Z" fill="#B97964"/>
<path opacity="0.2" d="M97.139 86.6565L101.713 90.7342C101.501 91.4762 101.352 92.2348 101.268 93.0018C99.516 92.7119 97.1454 90.7278 96.9972 88.8854C96.9057 88.1401 96.9538 87.3842 97.139 86.6565Z" fill="black"/>
<path d="M100.083 72.3363C98.2081 74.3719 99.825 76.6975 105.81 79.5255C107.233 76.3883 106.364 71.151 104.431 70.2362C102.498 69.3215 101.719 70.5712 100.083 72.3363Z" fill="#2E353A"/>
<path d="M91.4699 78.7394C92.9902 84.1313 93.6087 87.3587 96.9713 89.5682C102.035 92.8858 108.238 88.9241 108.361 83.1843C108.464 78.0308 105.964 70.075 100.147 69.0636C98.8669 68.8349 97.5495 68.9368 96.3196 69.3597C95.0897 69.7826 93.9881 70.5124 93.1192 71.48C92.2502 72.4476 91.6427 73.6211 91.3541 74.8892C91.0655 76.1573 91.1053 77.4781 91.4699 78.7265V78.7394Z" fill="#B97964"/>
<path d="M99.954 78.4684C100.051 78.9127 100.366 79.2217 100.656 79.1573C100.946 79.0929 101.101 78.6873 101.004 78.2431C100.907 77.7988 100.598 77.4898 100.308 77.5478C100.018 77.6057 99.8896 78.0242 99.954 78.4684Z" fill="#2E353A"/>
<path d="M105.011 77.3797C105.107 77.824 105.423 78.133 105.713 78.0686C106.003 78.0042 106.164 77.5986 106.067 77.148C105.971 76.6973 105.655 76.3947 105.365 76.4591C105.075 76.5234 104.914 76.9355 105.011 77.3797Z" fill="#2E353A"/>
<path d="M103.407 77.947C104.23 79.1934 105.223 80.3187 106.357 81.2904C106.1 81.5732 105.783 81.7964 105.431 81.9443C105.078 82.0923 104.697 82.1615 104.315 82.1472L103.407 77.947Z" fill="#A24E3F"/>
<path d="M98.2276 77.1729C98.1797 77.1908 98.1276 77.1937 98.078 77.1812C98.0285 77.1686 97.984 77.1413 97.9504 77.1028C97.9168 77.0644 97.8957 77.0166 97.89 76.9658C97.8843 76.9151 97.8942 76.8638 97.9184 76.8188C98.0869 76.429 98.3471 76.0856 98.6768 75.8177C99.0066 75.5498 99.3961 75.3654 99.8123 75.2801C99.8797 75.2687 99.9488 75.2837 100.005 75.3221C100.062 75.3606 100.101 75.4193 100.115 75.4861C100.123 75.5557 100.104 75.6256 100.062 75.6818C100.02 75.7379 99.9585 75.7761 99.8896 75.7887C99.5626 75.8612 99.2576 76.0106 99 76.2244C98.7423 76.4383 98.5393 76.7105 98.408 77.0184C98.3925 77.0568 98.3681 77.0908 98.3367 77.1177C98.3053 77.1446 98.2679 77.1635 98.2276 77.1729Z" fill="#2E353A"/>
<path d="M106.944 75.1762C106.894 75.1888 106.842 75.1863 106.794 75.1691C106.745 75.1519 106.703 75.1208 106.673 75.0797C106.473 74.8107 106.213 74.5924 105.913 74.4426C105.613 74.2927 105.282 74.2154 104.947 74.2169C104.876 74.2223 104.806 74.1997 104.752 74.1539C104.697 74.1081 104.663 74.0429 104.657 73.9723C104.653 73.9029 104.675 73.8346 104.719 73.7809C104.763 73.7273 104.826 73.6922 104.895 73.6826C105.32 73.6729 105.741 73.7649 106.123 73.9508C106.505 74.1367 106.837 74.4111 107.092 74.7513C107.114 74.7787 107.13 74.8101 107.139 74.8438C107.149 74.8775 107.152 74.9127 107.147 74.9475C107.143 74.9822 107.132 75.0158 107.115 75.0462C107.098 75.0766 107.074 75.1033 107.047 75.1247C107.017 75.1505 106.982 75.1683 106.944 75.1762Z" fill="#2E353A"/>
<path d="M92.6295 73.4377C95.3738 73.7598 95.6572 76.5814 92.9516 82.6175C89.8273 81.1616 87.0766 76.6136 87.9592 74.6681C88.8417 72.7227 90.2009 73.1478 92.6295 73.4377Z" fill="#2E353A"/>
<path d="M89.8143 83.6739C90.1443 84.2893 90.5924 84.8336 91.1329 85.2758C91.6734 85.7179 92.2958 86.0492 92.9644 86.2507C94.7553 86.7725 95.67 85.1749 95.1933 83.4742C94.7617 81.941 93.3058 79.8217 91.5021 80.0471C89.6984 80.2726 89.0026 82.1472 89.8143 83.6739Z" fill="#B97964"/>
<path d="M88.1716 74.2043C88.1716 74.2043 86.8124 72.4521 89.46 68.9477C92.1076 65.4433 98.5753 64.3675 103.536 65.3338C108.496 66.3001 105.545 71.7757 103.774 72.684L103.993 71.8273C102.097 72.8165 100.009 73.3834 97.8731 73.4893L98.8523 72.581C98.8523 72.581 91.0705 74.5973 88.1716 74.2043Z" fill="#2E353A"/>
<path d="M103.987 83.6289C103.874 84.2911 103.812 84.9608 103.8 85.6323L103.452 85.6839C101.854 85.8965 101.049 85.4649 100.637 84.9302C100.441 84.6612 100.311 84.3501 100.257 84.0219C100.23 83.836 100.23 83.6473 100.257 83.4614C101.301 83.7699 102.4 83.849 103.478 83.6933C103.774 83.6676 103.987 83.6289 103.987 83.6289Z" fill="#2E353A"/>
<path d="M103.439 83.6932L103.368 84.2855C101.874 84.4787 100.791 84.4143 100.257 84.0215C100.23 83.8358 100.23 83.6472 100.257 83.4614C101.289 83.7642 102.374 83.8432 103.439 83.6932Z" fill="white"/>
<path d="M103.452 85.677C101.854 85.8894 101.049 85.4581 100.637 84.9237C101.242 84.855 101.855 84.8943 102.447 85.0396C102.841 85.1411 103.192 85.3641 103.452 85.677Z" fill="#A24E3F"/>
<path d="M93.9178 95.7139C93.9178 95.7139 98.5689 99.2054 101.004 100.011C101.004 100.011 102.151 97.859 101.68 96.0811L105.204 98.5354C105.6 100.012 105.6 101.568 105.204 103.045L101.004 100.655L97.0357 103.554C97.0357 103.554 91.1671 101.853 90.8257 98.2906L93.9178 95.7139Z" fill="#146BB8"/>
<path opacity="0.8" d="M93.9178 95.7139C93.9178 95.7139 98.5689 99.2054 101.004 100.011C101.004 100.011 102.151 97.859 101.68 96.0811L105.204 98.5354C105.6 100.012 105.6 101.568 105.204 103.045L101.004 100.655L97.0357 103.554C97.0357 103.554 91.1671 101.853 90.8257 98.2906L93.9178 95.7139Z" fill="white"/>
<path d="M170.686 128.754H106.48C106.063 128.754 105.726 129.092 105.726 129.508V131.396C105.726 131.812 106.063 132.149 106.48 132.149H170.686C171.102 132.149 171.44 131.812 171.44 131.396V129.508C171.44 129.092 171.102 128.754 170.686 128.754Z" fill="#146BB8"/>
<path opacity="0.5" d="M171.221 129.418V131.305C171.221 131.724 171.105 132.059 170.693 132.059H106.48C106.061 132.059 105.513 131.724 105.513 131.305V129.418C105.513 129.006 106.061 128.838 106.48 128.838H170.693C171.105 128.838 171.221 129.006 171.221 129.418Z" fill="white"/>
<path opacity="0.2" d="M132.569 129.418V131.305C132.569 131.724 132.428 132.059 132.015 132.059H106.48C106.061 132.059 105.513 131.724 105.513 131.305V129.418C105.513 129.006 106.061 128.838 106.48 128.838H132.015C132.428 128.838 132.569 129.006 132.569 129.418Z" fill="black"/>
<path d="M117.985 34.8702C117.43 32.8588 116.373 31.0212 114.914 29.5297C113.455 28.0383 111.641 26.9418 109.642 26.343C107.643 25.7442 105.525 25.6628 103.486 26.1063C101.447 26.5499 99.554 27.5039 97.9845 28.8789C96.4151 30.2539 95.2205 32.0049 94.5127 33.9678C93.8048 35.9307 93.607 38.0412 93.9378 40.1014C94.2685 42.1616 95.1169 44.1041 96.4036 45.7468C97.6902 47.3895 99.3728 48.6786 101.294 49.4933C102.119 49.832 102.785 50.4723 103.156 51.2842L103.574 52.2312L115.434 49.0102L115.311 47.9795C115.226 47.086 115.476 46.1927 116.014 45.4736C117.119 43.9685 117.87 42.2332 118.212 40.3973C118.553 38.5613 118.475 36.672 117.985 34.8702Z" fill="#146BB8"/>
<path d="M107.446 52.2569C107.446 52.2569 105.662 46.6589 102.511 44.1788L104.257 43.7021L104.393 41.0158L107.246 45.1451L107.014 40.1204L109.829 44.7006L110.113 42.1238L112.606 41.4796C111.242 44.543 110.998 47.9883 111.917 51.2133" stroke="white" stroke-linecap="round" stroke-linejoin="round"/>
<path d="M109.688 51.3164C107.588 51.8897 106.415 54.3054 107.072 56.7083C107.729 59.1111 109.958 60.5734 112.058 60.0194C114.158 59.4654 115.324 57.0368 114.674 54.634C114.023 52.2311 111.788 50.7495 109.688 51.3164Z" fill="#2E353A"/>
<path d="M113.733 57.8099L109.507 58.963C108.498 59.2377 107.422 59.1209 106.495 58.6359C105.568 58.1509 104.858 57.3336 104.508 56.3476L103.123 52.4374C103.096 52.3601 103.084 52.278 103.09 52.1961C103.096 52.1142 103.118 52.0344 103.157 51.9617C103.195 51.889 103.248 51.8251 103.312 51.7739C103.376 51.7227 103.45 51.6854 103.529 51.6643L115.176 48.4885C115.256 48.4666 115.338 48.4614 115.42 48.4732C115.501 48.4851 115.579 48.5138 115.649 48.5574C115.718 48.601 115.778 48.6586 115.824 48.7266C115.871 48.7946 115.902 48.8715 115.917 48.9523L116.709 53.0172C116.909 54.0441 116.713 55.1086 116.161 55.9973C115.61 56.8861 114.742 57.5335 113.733 57.8099Z" fill="#146BB8"/>
<path opacity="0.4" d="M113.733 57.8099L109.507 58.963C108.498 59.2377 107.422 59.1209 106.495 58.6359C105.568 58.1509 104.858 57.3336 104.508 56.3476L103.123 52.4374C103.096 52.3601 103.084 52.278 103.09 52.1961C103.096 52.1142 103.118 52.0344 103.157 51.9617C103.195 51.889 103.248 51.8251 103.312 51.7739C103.376 51.7227 103.45 51.6854 103.529 51.6643L115.176 48.4885C115.256 48.4666 115.338 48.4614 115.42 48.4732C115.501 48.4851 115.579 48.5138 115.649 48.5574C115.718 48.601 115.778 48.6586 115.824 48.7266C115.871 48.7946 115.902 48.8715 115.917 48.9523L116.709 53.0172C116.909 54.0441 116.713 55.1086 116.161 55.9973C115.61 56.8861 114.742 57.5335 113.733 57.8099Z" fill="white"/>
<path d="M89.6533 47.1871C88.4993 46.9751 87.3288 46.8651 86.1554 46.8586C85.572 46.8551 84.989 46.8874 84.4096 46.9552C84.1197 47.0003 83.8299 47.0325 83.5528 47.1034C83.4111 47.142 83.2694 47.1614 83.1341 47.2129L82.7283 47.3418L82.2645 47.4899L82.5415 47.0841C83.3228 45.9273 83.9446 44.6706 84.3903 43.3478C84.6118 42.6916 84.7735 42.0167 84.8734 41.3314C84.9227 40.992 84.9528 40.65 84.9636 40.3072C84.9829 39.966 84.9829 39.6241 84.9636 39.2829C84.939 38.9451 84.8916 38.6094 84.8219 38.278L84.6995 37.7884L84.5385 37.3052C84.4241 36.9894 84.2841 36.6835 84.1197 36.3905C83.9614 36.095 83.7827 35.8109 83.5851 35.5402C83.3858 35.27 83.1707 35.0118 82.9409 34.7671L82.5866 34.4064L82.2 34.0714C81.9488 33.8395 81.6525 33.6591 81.3884 33.4272C81.1242 33.1953 80.8086 33.0665 80.5187 32.8796L79.8745 32.4545L80.5896 32.1131C80.931 31.9456 81.2917 31.7459 81.6332 31.5397C81.9746 31.3336 82.316 31.121 82.651 30.8955C83.3149 30.443 83.9457 29.9435 84.5385 29.401C84.8283 29.1305 85.1118 28.8534 85.3888 28.5636C85.6658 28.2737 85.917 27.9645 86.1554 27.6553C86.3937 27.346 86.6256 27.0111 86.7996 26.6825C87.0076 26.3532 87.1948 26.0111 87.36 25.6583C87.5303 25.3078 87.6766 24.9462 87.7981 24.576L87.9656 24.022L88.088 23.4487C88.1598 23.0703 88.2029 22.687 88.2168 22.302C88.251 21.5254 88.1817 20.7477 88.0107 19.9894L87.8818 19.416L87.7014 18.8556C87.5919 18.4755 87.418 18.1212 87.2763 17.754C87.1346 17.3868 86.9284 17.0454 86.7545 16.6847L85.8333 14.7521L87.5984 15.8859C87.9076 16.092 88.2426 16.2917 88.6098 16.4785C88.9769 16.6653 89.3184 16.8457 89.6791 17.0068C90.3975 17.3423 91.1379 17.6285 91.8951 17.8635C92.2752 17.9731 92.6553 18.0761 93.0354 18.1599C93.4156 18.2467 93.8006 18.3112 94.1884 18.3531C94.5708 18.4022 94.956 18.4259 95.3416 18.424C95.7228 18.4211 96.1036 18.3953 96.4818 18.3467L97.0358 18.2501L97.5833 18.1019C97.9369 17.9858 98.2814 17.8437 98.614 17.6767C98.7799 17.597 98.9393 17.5043 99.0907 17.3997C99.2523 17.3058 99.4053 17.1981 99.5481 17.0776C99.8437 16.8475 100.123 16.5979 100.386 16.3304C100.643 16.0523 100.882 15.7575 101.101 15.4478C101.328 15.1365 101.532 14.8093 101.713 14.4687C101.912 14.1401 102.048 13.7665 102.222 13.4186C102.395 13.0708 102.499 12.6842 102.64 12.3171L103.445 10.2041L103.845 12.4072C103.912 12.7676 104.005 13.1227 104.122 13.4702C104.462 14.5475 104.98 15.5601 105.655 16.4656C106.1 17.0569 106.627 17.5818 107.22 18.0246C107.513 18.2474 107.823 18.4456 108.148 18.6172C108.473 18.7937 108.811 18.9445 109.159 19.0682C109.509 19.1903 109.866 19.2893 110.229 19.3645C110.597 19.4386 110.969 19.4902 111.343 19.5191C111.719 19.5385 112.095 19.5385 112.471 19.5191C112.851 19.5191 113.231 19.4676 113.611 19.4354C113.991 19.4032 114.371 19.313 114.745 19.255L115.872 18.9844L116.986 18.6495L118.088 18.2565L119.615 17.7089L118.739 19.0682C118.578 19.3065 118.416 19.5964 118.268 19.8734C118.12 20.1504 117.985 20.4339 117.856 20.7302C117.603 21.3078 117.402 21.9072 117.257 22.521C117.113 23.1267 117.042 23.7473 117.044 24.3699C117.051 24.98 117.158 25.585 117.36 26.1607L117.534 26.5859L117.753 27.0562C117.911 27.3174 118.089 27.5651 118.288 27.797C118.486 28.027 118.702 28.2423 118.932 28.4412C119.17 28.6485 119.422 28.84 119.686 29.0145C119.947 29.1927 120.218 29.3562 120.497 29.5041C120.774 29.6587 121.071 29.7746 121.36 29.9164L122.262 30.2578L123.19 30.5477L123.834 30.7538L123.293 31.1725C122.929 31.4554 122.586 31.7655 122.269 32.1002C121.948 32.4356 121.651 32.7929 121.38 33.1695C121.232 33.3563 121.116 33.556 120.987 33.7493C120.863 33.944 120.751 34.1462 120.652 34.3548C120.539 34.5609 120.444 34.7764 120.368 34.999C120.279 35.2072 120.208 35.4227 120.156 35.6432C120.111 35.8687 120.033 36.0877 120.008 36.2874L119.943 36.9767C119.943 37.2086 119.943 37.4405 119.982 37.6724C119.995 37.9037 120.034 38.1327 120.098 38.3553C120.14 38.5746 120.2 38.7901 120.278 38.9995L120.542 39.6437C120.631 39.8684 120.741 40.0841 120.871 40.2879L121.232 40.932L121.367 41.1575H121.116C120.163 41.16 119.215 41.2856 118.294 41.5311C117.833 41.6533 117.388 41.8284 116.967 42.0529C116.862 42.109 116.761 42.1714 116.664 42.2398C116.56 42.2989 116.462 42.3703 116.374 42.4523C116.278 42.5226 116.188 42.6002 116.104 42.6842L115.853 42.9484L116.091 42.6714C116.169 42.5798 116.255 42.4957 116.349 42.4201C116.436 42.3344 116.531 42.2568 116.632 42.1882C116.729 42.1238 116.825 42.0465 116.928 41.9885C117.345 41.7388 117.788 41.5357 118.249 41.383C119.176 41.0817 120.141 40.9104 121.116 40.8741L121.006 41.0995L120.607 40.4553C120.462 40.2531 120.337 40.0374 120.233 39.8112L119.93 39.167C119.834 38.9385 119.761 38.7012 119.711 38.4583C119.631 38.2227 119.579 37.9784 119.557 37.7304C119.557 37.4856 119.499 37.2344 119.492 36.9896V36.2359C119.492 35.9911 119.582 35.7463 119.621 35.5015C119.67 35.2558 119.739 35.0145 119.827 34.78C119.898 34.54 119.99 34.3071 120.104 34.0843C120.201 33.8622 120.313 33.647 120.439 33.4401C120.556 33.2186 120.685 33.0036 120.826 32.7959C121.104 32.385 121.412 31.9953 121.747 31.6299C122.083 31.2569 122.447 30.9101 122.836 30.5928L122.958 31.237L121.985 30.96L121.025 30.6185C120.71 30.4833 120.381 30.3609 120.085 30.1998C119.776 30.0491 119.477 29.8791 119.19 29.6909C118.895 29.5059 118.613 29.3015 118.346 29.0789C118.081 28.855 117.835 28.6093 117.611 28.3445C117.371 28.079 117.155 27.7923 116.967 27.4878L116.703 27.0239L116.49 26.5279C116.242 25.8721 116.103 25.1801 116.078 24.4794C116.053 23.7765 116.115 23.0731 116.265 22.3858C116.408 21.7099 116.611 21.0481 116.87 20.4081C116.999 20.086 117.141 19.7639 117.296 19.4676C117.45 19.1713 117.611 18.862 117.811 18.5464L118.455 19.3581L117.308 19.7768L116.142 20.1375C115.743 20.2471 115.344 20.3372 114.944 20.4339C114.545 20.5305 114.139 20.5885 113.727 20.6336C113.315 20.6906 112.899 20.725 112.483 20.7366C112.054 20.7603 111.624 20.7603 111.195 20.7366C110.776 20.7062 110.358 20.6502 109.945 20.5691C109.529 20.4854 109.118 20.3757 108.715 20.2406C108.313 20.0975 107.921 19.9275 107.543 19.7317C107.162 19.534 106.798 19.3056 106.454 19.0489C105.767 18.543 105.155 17.9422 104.637 17.2644C104.123 16.597 103.69 15.8703 103.349 15.1C103.175 14.7179 103.022 14.3265 102.891 13.9275C102.752 13.521 102.641 13.1056 102.557 12.6842L103.761 12.7744C103.613 13.1738 103.478 13.5797 103.317 13.9726C103.152 14.3703 102.967 14.7595 102.763 15.1386C102.575 15.525 102.359 15.8974 102.118 16.2531C101.866 16.6139 101.59 16.9582 101.294 17.2838C100.986 17.605 100.655 17.9022 100.302 18.1728C100.128 18.3126 99.9427 18.4376 99.7478 18.5464C99.562 18.6704 99.3683 18.7823 99.168 18.8814C98.7672 19.0808 98.3516 19.2488 97.9248 19.3838L97.2806 19.5449L96.6364 19.6608C96.2092 19.7152 95.7786 19.7389 95.348 19.7317C94.9171 19.7325 94.4867 19.7046 94.0596 19.648C93.6263 19.5965 93.1962 19.5212 92.7712 19.4225C92.3525 19.3323 91.9402 19.2163 91.5344 19.0875C90.7274 18.8349 89.9394 18.5249 89.1766 18.1599C88.7901 17.9859 88.4165 17.7927 88.0493 17.593C87.6821 17.3933 87.3214 17.1807 86.9413 16.9488L87.7852 16.1822C87.972 16.5687 88.1717 16.9423 88.3392 17.3417C88.5116 17.7354 88.6643 18.1375 88.7966 18.5464L88.9898 19.1906L89.1315 19.8348C89.2182 20.2606 89.2827 20.6906 89.3248 21.1232C89.3498 21.5522 89.3498 21.9824 89.3248 22.4115C89.3052 22.8442 89.2535 23.2749 89.1702 23.6999L89.0285 24.3441L88.8352 24.9883C88.6945 25.4026 88.5266 25.8071 88.3328 26.1994C88.1448 26.5898 87.9295 26.9665 87.6886 27.3267C87.4528 27.6788 87.1991 28.0185 86.9284 28.3445C86.6514 28.6795 86.368 28.9887 86.0716 29.3044C85.7753 29.62 85.4597 29.897 85.144 30.1805C84.5016 30.7331 83.8238 31.2431 83.1148 31.7072C82.7583 31.9391 82.3976 32.1539 82.0326 32.3514C81.6589 32.5576 81.2917 32.7508 80.8859 32.9312L80.931 32.1646C81.2338 32.3707 81.5752 32.5576 81.8457 32.7701C82.1163 32.9827 82.4384 33.2017 82.7025 33.4594L83.1148 33.833L83.4949 34.2324C83.7427 34.507 83.9749 34.7952 84.1906 35.0957C84.4038 35.4019 84.5953 35.7226 84.7639 36.0555C84.935 36.3834 85.0814 36.7237 85.202 37.0733L85.363 37.608L85.479 38.1491C85.5473 38.5129 85.5903 38.881 85.6078 39.2507C85.6535 40.7105 85.3992 42.1641 84.8606 43.5217C84.3473 44.8662 83.6562 46.1358 82.8056 47.2967L82.6188 47.039L83.0504 46.9166C83.1985 46.8715 83.3467 46.8522 83.4949 46.82C83.7848 46.7555 84.0811 46.7362 84.3774 46.6976C84.9695 46.6622 85.5633 46.6622 86.1554 46.6976C87.3333 46.76 88.5036 46.9238 89.6533 47.1871Z" fill="#146BB8"/>
<path opacity="0.7" d="M89.6533 47.1871C88.4993 46.9751 87.3288 46.8651 86.1554 46.8586C85.572 46.8551 84.989 46.8874 84.4096 46.9552C84.1197 47.0003 83.8299 47.0325 83.5528 47.1034C83.4111 47.142 83.2694 47.1614 83.1341 47.2129L82.7283 47.3418L82.2645 47.4899L82.5415 47.0841C83.3228 45.9273 83.9446 44.6706 84.3903 43.3478C84.6118 42.6916 84.7735 42.0167 84.8734 41.3314C84.9227 40.992 84.9528 40.65 84.9636 40.3072C84.9829 39.966 84.9829 39.6241 84.9636 39.2829C84.939 38.9451 84.8916 38.6094 84.8219 38.278L84.6995 37.7884L84.5385 37.3052C84.4241 36.9894 84.2841 36.6835 84.1197 36.3905C83.9614 36.095 83.7827 35.8109 83.5851 35.5402C83.3858 35.27 83.1707 35.0118 82.9409 34.7671L82.5866 34.4064L82.2 34.0714C81.9488 33.8395 81.6525 33.6591 81.3884 33.4272C81.1242 33.1953 80.8086 33.0665 80.5187 32.8796L79.8745 32.4545L80.5896 32.1131C80.931 31.9456 81.2917 31.7459 81.6332 31.5397C81.9746 31.3336 82.316 31.121 82.651 30.8955C83.3149 30.443 83.9457 29.9435 84.5385 29.401C84.8283 29.1305 85.1118 28.8534 85.3888 28.5636C85.6658 28.2737 85.917 27.9645 86.1554 27.6553C86.3937 27.346 86.6256 27.0111 86.7996 26.6825C87.0076 26.3532 87.1948 26.0111 87.36 25.6583C87.5303 25.3078 87.6766 24.9462 87.7981 24.576L87.9656 24.022L88.088 23.4487C88.1598 23.0703 88.2029 22.687 88.2168 22.302C88.251 21.5254 88.1817 20.7477 88.0107 19.9894L87.8818 19.416L87.7014 18.8556C87.5919 18.4755 87.418 18.1212 87.2763 17.754C87.1346 17.3868 86.9284 17.0454 86.7545 16.6847L85.8333 14.7521L87.5984 15.8859C87.9076 16.092 88.2426 16.2917 88.6098 16.4785C88.9769 16.6653 89.3184 16.8457 89.6791 17.0068C90.3975 17.3423 91.1379 17.6285 91.8951 17.8635C92.2752 17.9731 92.6553 18.0761 93.0354 18.1599C93.4156 18.2467 93.8006 18.3112 94.1884 18.3531C94.5708 18.4022 94.956 18.4259 95.3416 18.424C95.7228 18.4211 96.1036 18.3953 96.4818 18.3467L97.0358 18.2501L97.5833 18.1019C97.9369 17.9858 98.2814 17.8437 98.614 17.6767C98.7799 17.597 98.9393 17.5043 99.0907 17.3997C99.2523 17.3058 99.4053 17.1981 99.5481 17.0776C99.8437 16.8475 100.123 16.5979 100.386 16.3304C100.643 16.0523 100.882 15.7575 101.101 15.4478C101.328 15.1365 101.532 14.8093 101.713 14.4687C101.912 14.1401 102.048 13.7665 102.222 13.4186C102.395 13.0708 102.499 12.6842 102.64 12.3171L103.445 10.2041L103.845 12.4072C103.912 12.7676 104.005 13.1227 104.122 13.4702C104.462 14.5475 104.98 15.5601 105.655 16.4656C106.1 17.0569 106.627 17.5818 107.22 18.0246C107.513 18.2474 107.823 18.4456 108.148 18.6172C108.473 18.7937 108.811 18.9445 109.159 19.0682C109.509 19.1903 109.866 19.2893 110.229 19.3645C110.597 19.4386 110.969 19.4902 111.343 19.5191C111.719 19.5385 112.095 19.5385 112.471 19.5191C112.851 19.5191 113.231 19.4676 113.611 19.4354C113.991 19.4032 114.371 19.313 114.745 19.255L115.872 18.9844L116.986 18.6495L118.088 18.2565L119.615 17.7089L118.739 19.0682C118.578 19.3065 118.416 19.5964 118.268 19.8734C118.12 20.1504 117.985 20.4339 117.856 20.7302C117.603 21.3078 117.402 21.9072 117.257 22.521C117.113 23.1267 117.042 23.7473 117.044 24.3699C117.051 24.98 117.158 25.585 117.36 26.1607L117.534 26.5859L117.753 27.0562C117.911 27.3174 118.089 27.5651 118.288 27.797C118.486 28.027 118.702 28.2423 118.932 28.4412C119.17 28.6485 119.422 28.84 119.686 29.0145C119.947 29.1927 120.218 29.3562 120.497 29.5041C120.774 29.6587 121.071 29.7746 121.36 29.9164L122.262 30.2578L123.19 30.5477L123.834 30.7538L123.293 31.1725C122.929 31.4554 122.586 31.7655 122.269 32.1002C121.948 32.4356 121.651 32.7929 121.38 33.1695C121.232 33.3563 121.116 33.556 120.987 33.7493C120.863 33.944 120.751 34.1462 120.652 34.3548C120.539 34.5609 120.444 34.7764 120.368 34.999C120.279 35.2072 120.208 35.4227 120.156 35.6432C120.111 35.8687 120.033 36.0877 120.008 36.2874L119.943 36.9767C119.943 37.2086 119.943 37.4405 119.982 37.6724C119.995 37.9037 120.034 38.1327 120.098 38.3553C120.14 38.5746 120.2 38.7901 120.278 38.9995L120.542 39.6437C120.631 39.8684 120.741 40.0841 120.871 40.2879L121.232 40.932L121.367 41.1575H121.116C120.163 41.16 119.215 41.2856 118.294 41.5311C117.833 41.6533 117.388 41.8284 116.967 42.0529C116.862 42.109 116.761 42.1714 116.664 42.2398C116.56 42.2989 116.462 42.3703 116.374 42.4523C116.278 42.5226 116.188 42.6002 116.104 42.6842L115.853 42.9484L116.091 42.6714C116.169 42.5798 116.255 42.4957 116.349 42.4201C116.436 42.3344 116.531 42.2568 116.632 42.1882C116.729 42.1238 116.825 42.0465 116.928 41.9885C117.345 41.7388 117.788 41.5357 118.249 41.383C119.176 41.0817 120.141 40.9104 121.116 40.8741L121.006 41.0995L120.607 40.4553C120.462 40.2531 120.337 40.0374 120.233 39.8112L119.93 39.167C119.834 38.9385 119.761 38.7012 119.711 38.4583C119.631 38.2227 119.579 37.9784 119.557 37.7304C119.557 37.4856 119.499 37.2344 119.492 36.9896V36.2359C119.492 35.9911 119.582 35.7463 119.621 35.5015C119.67 35.2558 119.739 35.0145 119.827 34.78C119.898 34.54 119.99 34.3071 120.104 34.0843C120.201 33.8622 120.313 33.647 120.439 33.4401C120.556 33.2186 120.685 33.0036 120.826 32.7959C121.104 32.385 121.412 31.9953 121.747 31.6299C122.083 31.2569 122.447 30.9101 122.836 30.5928L122.958 31.237L121.985 30.96L121.025 30.6185C120.71 30.4833 120.381 30.3609 120.085 30.1998C119.776 30.0491 119.477 29.8791 119.19 29.6909C118.895 29.5059 118.613 29.3015 118.346 29.0789C118.081 28.855 117.835 28.6093 117.611 28.3445C117.371 28.079 117.155 27.7923 116.967 27.4878L116.703 27.0239L116.49 26.5279C116.242 25.8721 116.103 25.1801 116.078 24.4794C116.053 23.7765 116.115 23.0731 116.265 22.3858C116.408 21.7099 116.611 21.0481 116.87 20.4081C116.999 20.086 117.141 19.7639 117.296 19.4676C117.45 19.1713 117.611 18.862 117.811 18.5464L118.455 19.3581L117.308 19.7768L116.142 20.1375C115.743 20.2471 115.344 20.3372 114.944 20.4339C114.545 20.5305 114.139 20.5885 113.727 20.6336C113.315 20.6906 112.899 20.725 112.483 20.7366C112.054 20.7603 111.624 20.7603 111.195 20.7366C110.776 20.7062 110.358 20.6502 109.945 20.5691C109.529 20.4854 109.118 20.3757 108.715 20.2406C108.313 20.0975 107.921 19.9275 107.543 19.7317C107.162 19.534 106.798 19.3056 106.454 19.0489C105.767 18.543 105.155 17.9422 104.637 17.2644C104.123 16.597 103.69 15.8703 103.349 15.1C103.175 14.7179 103.022 14.3265 102.891 13.9275C102.752 13.521 102.641 13.1056 102.557 12.6842L103.761 12.7744C103.613 13.1738 103.478 13.5797 103.317 13.9726C103.152 14.3703 102.967 14.7595 102.763 15.1386C102.575 15.525 102.359 15.8974 102.118 16.2531C101.866 16.6139 101.59 16.9582 101.294 17.2838C100.986 17.605 100.655 17.9022 100.302 18.1728C100.128 18.3126 99.9427 18.4376 99.7478 18.5464C99.562 18.6704 99.3683 18.7823 99.168 18.8814C98.7672 19.0808 98.3516 19.2488 97.9248 19.3838L97.2806 19.5449L96.6364 19.6608C96.2092 19.7152 95.7786 19.7389 95.348 19.7317C94.9171 19.7325 94.4867 19.7046 94.0596 19.648C93.6263 19.5965 93.1962 19.5212 92.7712 19.4225C92.3525 19.3323 91.9402 19.2163 91.5344 19.0875C90.7274 18.8349 89.9394 18.5249 89.1766 18.1599C88.7901 17.9859 88.4165 17.7927 88.0493 17.593C87.6821 17.3933 87.3214 17.1807 86.9413 16.9488L87.7852 16.1822C87.972 16.5687 88.1717 16.9423 88.3392 17.3417C88.5116 17.7354 88.6643 18.1375 88.7966 18.5464L88.9898 19.1906L89.1315 19.8348C89.2182 20.2606 89.2827 20.6906 89.3248 21.1232C89.3498 21.5522 89.3498 21.9824 89.3248 22.4115C89.3052 22.8442 89.2535 23.2749 89.1702 23.6999L89.0285 24.3441L88.8352 24.9883C88.6945 25.4026 88.5266 25.8071 88.3328 26.1994C88.1448 26.5898 87.9295 26.9665 87.6886 27.3267C87.4528 27.6788 87.1991 28.0185 86.9284 28.3445C86.6514 28.6795 86.368 28.9887 86.0716 29.3044C85.7753 29.62 85.4597 29.897 85.144 30.1805C84.5016 30.7331 83.8238 31.2431 83.1148 31.7072C82.7583 31.9391 82.3976 32.1539 82.0326 32.3514C81.6589 32.5576 81.2917 32.7508 80.8859 32.9312L80.931 32.1646C81.2338 32.3707 81.5752 32.5576 81.8457 32.7701C82.1163 32.9827 82.4384 33.2017 82.7025 33.4594L83.1148 33.833L83.4949 34.2324C83.7427 34.507 83.9749 34.7952 84.1906 35.0957C84.4038 35.4019 84.5953 35.7226 84.7639 36.0555C84.935 36.3834 85.0814 36.7237 85.202 37.0733L85.363 37.608L85.479 38.1491C85.5473 38.5129 85.5903 38.881 85.6078 39.2507C85.6535 40.7105 85.3992 42.1641 84.8606 43.5217C84.3473 44.8662 83.6562 46.1358 82.8056 47.2967L82.6188 47.039L83.0504 46.9166C83.1985 46.8715 83.3467 46.8522 83.4949 46.82C83.7848 46.7555 84.0811 46.7362 84.3774 46.6976C84.9695 46.6622 85.5633 46.6622 86.1554 46.6976C87.3333 46.76 88.5036 46.9238 89.6533 47.1871Z" fill="white"/>
</svg>
