<svg width="40" height="40" viewBox="0 0 40 40" fill="none" xmlns="http://www.w3.org/2000/svg">
<path d="M29.9998 11.9334C29.8998 11.9167 29.7831 11.9167 29.6831 11.9334C27.3831 11.85 25.5498 9.96671 25.5498 7.63338C25.5498 5.25004 27.4665 3.33337 29.8498 3.33337C32.2331 3.33337 34.1498 5.26671 34.1498 7.63338C34.1331 9.96671 32.2998 11.85 29.9998 11.9334Z" stroke="#0A365C" stroke-width="2.5" stroke-linecap="round" stroke-linejoin="round"/>
<path d="M28.2829 24.0667C30.5662 24.4501 33.0829 24.0501 34.8496 22.8667C37.1996 21.3001 37.1996 18.7334 34.8496 17.1667C33.0663 15.9834 30.5162 15.5834 28.2329 15.9834" stroke="#0A365C" stroke-width="2.5" stroke-linecap="round" stroke-linejoin="round"/>
<path d="M9.94981 11.9334C10.0498 11.9167 10.1665 11.9167 10.2665 11.9334C12.5665 11.85 14.3998 9.96671 14.3998 7.63338C14.3998 5.25004 12.4831 3.33337 10.0998 3.33337C7.71647 3.33337 5.7998 5.26671 5.7998 7.63338C5.81647 9.96671 7.64981 11.85 9.94981 11.9334Z" stroke="#0A365C" stroke-width="2.5" stroke-linecap="round" stroke-linejoin="round"/>
<path d="M11.6666 24.0667C9.38323 24.4501 6.86657 24.0501 5.0999 22.8667C2.7499 21.3001 2.7499 18.7334 5.0999 17.1667C6.88324 15.9834 9.43323 15.5834 11.7166 15.9834" stroke="#0A365C" stroke-width="2.5" stroke-linecap="round" stroke-linejoin="round"/>
<path d="M20.0003 24.3833C19.9003 24.3667 19.7836 24.3667 19.6836 24.3833C17.3836 24.3 15.5503 22.4167 15.5503 20.0833C15.5503 17.7 17.467 15.7833 19.8503 15.7833C22.2336 15.7833 24.1503 17.7167 24.1503 20.0833C24.1336 22.4167 22.3003 24.3167 20.0003 24.3833Z" stroke="#0A365C" stroke-width="2.5" stroke-linecap="round" stroke-linejoin="round"/>
<path d="M24.8502 29.6333C22.2002 27.8667 17.8169 27.8667 15.1502 29.6333C12.8002 31.2 12.8002 33.7667 15.1502 35.3333C17.8169 37.1167 22.1835 37.1167 24.8502 35.3333" stroke="#0A365C" stroke-width="2.5" stroke-linecap="round" stroke-linejoin="round"/>
</svg>
