<svg width="36" height="36" viewBox="0 0 36 36" fill="none" xmlns="http://www.w3.org/2000/svg">
<path d="M32.1302 16.383C32.3987 16.2646 32.6266 16.07 32.7856 15.8233C32.9446 15.5766 33.0277 15.2886 33.0247 14.9952C33.0216 14.7017 32.9326 14.4155 32.7685 14.1722C32.6045 13.9288 32.3726 13.7389 32.1017 13.626L19.2452 7.77005C18.8543 7.59177 18.4298 7.49951 18.0002 7.49951C17.5706 7.49951 17.146 7.59177 16.7552 7.77005L3.90019 13.62C3.63314 13.737 3.40596 13.9293 3.24644 14.1733C3.08691 14.4173 3.00195 14.7025 3.00195 14.994C3.00195 15.2856 3.08691 15.5708 3.24644 15.8148C3.40596 16.0588 3.63314 16.2511 3.90019 16.368L16.7552 22.23C17.146 22.4083 17.5706 22.5006 18.0002 22.5006C18.4298 22.5006 18.8543 22.4083 19.2452 22.23L32.1302 16.383Z" stroke="white" stroke-width="3" stroke-linecap="round" stroke-linejoin="round"/>
<path d="M33 15V24" stroke="white" stroke-width="3" stroke-linecap="round" stroke-linejoin="round"/>
<path d="M9 18.75V24C9 25.1935 9.94821 26.3381 11.636 27.182C13.3239 28.0259 15.6131 28.5 18 28.5C20.3869 28.5 22.6761 28.0259 24.364 27.182C26.0518 26.3381 27 25.1935 27 24V18.75" stroke="white" stroke-width="3" stroke-linecap="round" stroke-linejoin="round"/>
</svg>
