<svg width="69" height="69" viewBox="0 0 69 69" fill="none" xmlns="http://www.w3.org/2000/svg">
<rect width="69" height="69" rx="8" fill="#A3CFF5" fill-opacity="0.5"/>
<path d="M38.6362 36.1866L40.6562 47.5546C40.6788 47.6885 40.66 47.8261 40.6023 47.949C40.5446 48.0719 40.4508 48.1742 40.3334 48.2424C40.216 48.3105 40.0806 48.3412 39.9452 48.3303C39.8099 48.3193 39.6811 48.2674 39.5762 48.1813L34.8028 44.5986C34.5724 44.4265 34.2925 44.3335 34.0048 44.3335C33.7172 44.3335 33.4373 44.4265 33.2068 44.5986L28.4255 48.18C28.3206 48.2659 28.192 48.3178 28.0568 48.3287C27.9217 48.3396 27.7864 48.3091 27.669 48.2411C27.5517 48.1732 27.4579 48.0711 27.4 47.9484C27.3422 47.8258 27.3232 47.6884 27.3455 47.5546L29.3642 36.1866" stroke="#051B2E" stroke-width="2.66667" stroke-linecap="round" stroke-linejoin="round"/>
<path d="M34 37.6666C38.4183 37.6666 42 34.0849 42 29.6666C42 25.2483 38.4183 21.6666 34 21.6666C29.5817 21.6666 26 25.2483 26 29.6666C26 34.0849 29.5817 37.6666 34 37.6666Z" stroke="#051B2E" stroke-width="2.66667" stroke-linecap="round" stroke-linejoin="round"/>
</svg>
