<svg width="600" height="503" viewBox="0 0 600 503" fill="none" xmlns="http://www.w3.org/2000/svg">
<path d="M87.866 239.639C-29.2948 299.891 -29.2825 397.444 87.866 457.642C205.015 517.839 394.973 517.839 512.134 457.642C629.295 397.444 629.282 299.891 512.134 239.639C394.985 179.387 205.027 179.441 87.866 239.639Z" fill="#FAFAFA"/>
<path d="M189.517 103.601L191.622 104.718L234.803 82.5236L232.698 81.4062L189.517 103.601Z" fill="#FAFAFA"/>
<path d="M232.699 81.4064L191.622 102.517V64.2181L232.699 43.1299V81.4064Z" fill="white"/>
<path d="M238.779 35.9102L187.646 62.202V110.853L238.779 84.561V35.9102ZM234.766 82.5233L191.683 104.718V64.1848L234.766 42.034V82.5233Z" fill="#EBEBEB"/>
<path d="M234.803 82.5236L232.698 81.4062V43.1297L234.803 42.0342V82.5236Z" fill="#E0E0E0"/>
<path d="M238.779 35.9107L236.637 34.8262L185.504 61.0961L187.646 62.1806L238.779 35.9107Z" fill="#F5F5F5"/>
<path d="M185.504 61.0957L187.646 62.1802V110.842L185.504 109.746V61.0957Z" fill="#E0E0E0"/>
<path d="M231.098 80.2562L193.222 99.7231V89.9951L202.688 70.5282L208.597 75.3922L206.467 83.5536L219.552 58.6641L231.098 70.5282V80.2562Z" fill="#F0F0F0"/>
<path d="M208.24 61.1285C207.42 61.6 206.738 62.2383 206.25 62.9907C205.762 63.7431 205.482 64.588 205.433 65.4557C205.433 67.0441 206.664 67.6467 208.24 66.8908C209.056 66.4191 209.734 65.782 210.22 65.0317C210.706 64.2814 210.985 63.4393 211.034 62.5745C211.034 60.9861 209.778 60.3836 208.24 61.1285Z" fill="#F0F0F0"/>
<path d="M257.244 68.7855L259.349 69.9029L302.542 47.7082L300.437 46.5908L257.244 68.7855Z" fill="#FAFAFA"/>
<path d="M300.437 46.591L259.348 67.6901V29.4027L300.437 8.31445V46.591Z" fill="white"/>
<path d="M306.518 1.0957L255.385 27.3875V76.0164L306.518 49.7246V1.0957ZM302.542 47.7089L259.385 69.8926V29.3594L302.579 7.17568L302.542 47.7089Z" fill="#EBEBEB"/>
<path d="M302.542 47.7091L300.437 46.5917V8.31522L302.542 7.21973V47.7091Z" fill="#E0E0E0"/>
<path d="M306.518 1.09549L304.376 0L253.243 26.2809L255.385 27.3654L306.518 1.09549Z" fill="#F5F5F5"/>
<path d="M253.243 26.2812L255.385 27.3658V76.0166L253.243 74.932V26.2812Z" fill="#E0E0E0"/>
<path d="M298.836 45.441L260.96 64.9079V55.1799L270.426 35.713L276.323 40.577L274.205 48.7384L287.278 23.8488L298.836 35.713V45.441Z" fill="#F0F0F0"/>
<path d="M275.966 26.3137C275.15 26.7854 274.472 27.4225 273.986 28.1728C273.5 28.9231 273.221 29.7652 273.172 30.6299C273.172 32.2294 274.403 32.8209 275.966 32.076C276.784 31.6055 277.465 30.969 277.953 30.2186C278.441 29.4682 278.722 28.6255 278.773 27.7598C278.773 26.1713 277.517 25.525 275.966 26.3137Z" fill="#F0F0F0"/>
<path d="M582.447 99.7448C582.447 71.6016 561.632 38.0905 535.942 24.8899C522.34 17.9006 510.092 18.0102 501.599 23.7944C491.025 27.7053 484.255 38.5287 484.255 54.5667V205.306L577.289 253.114L582.447 250.452V99.7448Z" fill="#E6E6E6"/>
<path d="M577.289 253.113V102.395C577.289 74.2518 556.462 40.7407 530.772 27.5401C505.082 14.3394 484.255 26.4446 484.255 54.5987V205.306L577.289 253.113Z" fill="#F5F5F5"/>
<path d="M572.192 102.396V245.27L489.338 202.688V54.5995C489.338 40.5334 494.902 30.8383 504.257 27.7709C506.429 27.064 508.727 26.7115 511.039 26.7302C516.332 26.7302 522.118 28.3187 528.273 31.4627C552.473 43.9513 572.192 75.7206 572.192 102.396Z" fill="#E0E0E0"/>
<path d="M489.338 202.688L494.594 199.993L572.192 239.88V245.27L489.338 202.688Z" fill="#EBEBEB"/>
<path d="M572.193 102.395V239.88L494.643 199.993V51.8932C494.643 40.7192 498.176 32.2949 504.319 27.7924C506.491 27.0855 508.788 26.733 511.101 26.7517C516.394 26.7517 522.179 28.3401 528.334 31.4842C552.473 43.9509 572.193 75.7202 572.193 102.395Z" fill="white"/>
<path d="M533.307 225.288L528.224 222.67V29.8301H533.307V225.288Z" fill="#F5F5F5"/>
<path d="M538.403 38.0136V222.681L533.32 225.277V34.3984C535.043 35.5085 536.737 36.7136 538.403 38.0136Z" fill="#E0E0E0"/>
<path d="M489.338 170.743L528.223 190.725V196.038L489.338 176.067V170.743Z" fill="#F5F5F5"/>
<path d="M494.594 168.049L489.338 170.744L528.223 190.726V185.412L494.594 168.049Z" fill="#EBEBEB"/>
<path d="M533.308 193.332L572.193 213.314V218.627L533.308 198.656V193.332Z" fill="#F5F5F5"/>
<path d="M538.564 190.638L533.308 193.333L572.193 213.314V208.001L538.564 190.638Z" fill="#EBEBEB"/>
<path d="M489.338 64.6777L528.223 84.6595V89.9726L489.338 70.0018V64.6777Z" fill="#F5F5F5"/>
<path d="M494.594 61.9941L489.338 64.6781L528.223 84.6599V79.3467L494.594 61.9941Z" fill="#EBEBEB"/>
<path d="M533.308 87.2773L572.193 107.248V112.561L533.308 92.5905V87.2773Z" fill="#F5F5F5"/>
<path d="M538.564 84.5723L533.308 87.2781L572.193 107.249V101.947L538.564 84.5723Z" fill="#EBEBEB"/>
<path d="M105.961 452.318C105.501 454.316 104.588 456.21 103.277 457.883C100.653 461.197 97.208 463.929 93.2082 465.869C75.7289 474.852 47.368 474.852 29.8887 465.869C25.8719 463.938 22.4127 461.204 19.7827 457.883C18.4768 456.208 17.5641 454.315 17.0992 452.318C15.5482 445.559 19.8196 438.526 29.901 433.344C47.3803 424.35 75.7412 424.35 93.2205 433.344C103.253 438.526 107.524 445.559 105.961 452.318Z" fill="#E0E0E0"/>
<path d="M131.367 467.205L24.2753 412.748C22.712 411.949 22.712 410.645 24.2753 409.845L365.246 234.643C366.119 234.242 367.088 234.032 368.071 234.032C369.054 234.032 370.022 234.242 370.896 234.643L477.987 289.1C479.551 289.9 479.551 291.204 477.987 292.003L137.017 467.205C136.144 467.607 135.175 467.816 134.192 467.816C133.209 467.816 132.24 467.607 131.367 467.205Z" fill="#E0E0E0"/>
<path d="M248.06 476.747L230.593 467.907L312.722 425.358C310.116 421.638 309.049 417.225 309.706 412.88C310.801 406.055 316.291 399.734 325.179 395.155C334.558 390.291 346.954 387.618 360.063 387.618C372.951 387.618 385.15 390.215 394.407 394.936C404.599 400.129 410.237 407.326 410.273 415.192C410.31 423.057 404.722 430.288 394.579 435.557C385.199 440.41 372.816 443.094 359.707 443.094C354.207 443.101 348.721 442.606 343.335 441.615L328.047 449.535L316.267 447.213L312.229 449.294L311.823 457.938L304.24 461.871L293.334 462.758L288.694 465.08L289.371 469.572L275.621 476.671L248.06 476.747ZM378.466 407.907C376.39 407.013 374.113 406.548 371.807 406.548C369.5 406.548 367.223 407.013 365.147 407.907C364.669 408.128 364.249 408.438 363.916 408.816C364.254 409.186 364.673 409.492 365.147 409.714C367.226 410.601 369.501 411.062 371.807 411.062C374.112 411.062 376.388 410.601 378.466 409.714C378.942 409.489 379.361 409.18 379.697 408.805C379.356 408.437 378.938 408.132 378.466 407.907Z" fill="#E0E0E0"/>
<path d="M502.779 414.502C541.991 414.502 573.78 398.169 573.78 378.022C573.78 357.875 541.991 341.542 502.779 341.542C463.566 341.542 431.778 357.875 431.778 378.022C431.778 398.169 463.566 414.502 502.779 414.502Z" fill="#E0E0E0"/>
<path d="M368.742 245.073L374.983 241.863C374.983 241.863 408.107 145.701 411.184 140.136C414.262 134.571 408.723 131.711 402.728 134.779L91.8172 294.326C85.8471 297.394 83.9761 301.611 78.6707 310.759C73.3654 319.906 43.4536 408.257 43.4536 408.257C43.2381 409.263 43.3795 410.303 43.8582 411.233C44.3368 412.163 45.1289 412.938 46.1247 413.45L116.916 449.941L442.118 282.889L368.742 245.073Z" fill="#0F518A"/>
<path opacity="0.35" d="M368.742 245.073L374.983 241.863C374.983 241.863 408.107 145.701 411.184 140.136C414.262 134.571 408.723 131.711 402.728 134.779L91.8172 294.326C85.8471 297.394 83.9761 301.611 78.6707 310.759C73.3654 319.906 43.4536 408.257 43.4536 408.257C43.2381 409.263 43.3795 410.303 43.8582 411.233C44.3368 412.163 45.1289 412.938 46.1247 413.45L116.916 449.941L442.118 282.889L368.742 245.073Z" fill="white"/>
<path d="M82.573 312.993C78.5478 319.95 47.405 410.185 47.405 410.185L378.922 239.847C378.922 239.847 411.8 148.133 415.087 142.348C418.373 136.564 412.625 133.935 406.63 137.002L95.6702 296.55C89.7494 299.606 86.6105 306.048 82.573 312.993Z" fill="#0F518A"/>
<path opacity="0.15" d="M82.573 312.993C78.5478 319.95 47.405 410.185 47.405 410.185L378.922 239.847C378.922 239.847 411.8 148.133 415.087 142.348C418.373 136.564 412.625 133.935 406.63 137.002L95.6702 296.55C89.7494 299.606 86.6105 306.048 82.573 312.993Z" fill="black"/>
<path d="M372.607 243.09L47.3923 410.185L119.415 447.202L444.629 280.107L372.607 243.09Z" fill="#0F518A"/>
<path d="M395.244 32.3612L81.933 193.059C75.0644 196.586 72.9226 202.305 74.1289 209.831L111.205 441.407C112.436 448.933 119.157 453.337 125.976 449.809L436.567 290.317C443.435 286.789 448.027 277.817 446.808 270.291L409.88 39.5695C408.674 32.0763 402.174 28.8337 395.244 32.3612Z" fill="#0F518A"/>
<path opacity="0.35" d="M395.244 32.3612L81.933 193.059C75.0644 196.586 72.9226 202.305 74.1289 209.831L111.205 441.407C112.436 448.933 119.157 453.337 125.976 449.809L436.567 290.317C443.435 286.789 448.027 277.817 446.808 270.291L409.88 39.5695C408.674 32.0763 402.174 28.8337 395.244 32.3612Z" fill="white"/>
<path d="M416.366 37.2796C414.972 36.851 413.487 36.712 412.023 36.8735C410.559 37.0349 409.157 37.4923 407.922 38.2107L97.3685 197.714C93.8902 199.662 91.1332 202.477 89.4412 205.81L79.4214 202.031C81.6248 197.747 85.4653 196.181 88.7519 194.483L399.293 34.9681C400.575 34.2193 402.041 33.7558 403.566 33.6167C405.091 33.4775 406.632 33.6667 408.058 34.1684L416.366 37.2796Z" fill="#455A64"/>
<path d="M121.286 452.142C118.209 451.047 115.919 448.177 115.255 444.036L78.511 214.497C77.7478 209.798 77.5017 205.58 79.4219 202.02L89.4418 205.81C89.1874 206.292 88.9412 206.796 88.7032 207.322C88.5186 207.738 88.3586 208.143 88.2108 208.56C88.2054 208.622 88.2054 208.684 88.2108 208.746C88.0226 209.22 87.8624 209.703 87.7308 210.192C87.5831 210.696 87.46 211.211 87.3738 211.704C87.2822 212.083 87.2205 212.467 87.1892 212.854C86.9367 214.475 86.9367 216.119 87.1892 217.74L124.117 448.418C124.782 452.602 127.121 455.473 130.272 456.579L121.286 452.142Z" fill="#263238"/>
<path d="M407.911 38.2218L94.5995 198.92C87.7309 202.447 85.5891 208.166 86.7954 215.692L124.056 448.429C125.287 455.966 131.823 459.208 138.692 455.67L449.233 296.177C456.102 292.65 460.693 283.689 459.475 276.152L422.546 45.463C421.34 37.937 414.779 34.6943 407.911 38.2218Z" fill="#37474F"/>
<path d="M430.165 295.115L152.97 437.529C149.412 439.358 146.015 437.682 145.387 433.782L108.828 205.427C108.2 201.527 110.576 196.882 114.133 195.053L391.329 52.7153C394.886 50.8858 398.284 52.5619 398.911 56.4618L435.47 284.762C436.098 288.64 433.722 293.285 430.165 295.115Z" fill="#263238"/>
<path d="M108.828 205.426L145.387 433.727C145.387 433.88 145.387 434.023 145.486 434.176L422.681 291.817C426.238 289.987 428.614 285.343 427.986 281.443L391.329 52.7148L114.133 195.052C110.576 196.882 108.2 201.526 108.828 205.426Z" fill="#FAFAFA"/>
<path d="M122.96 346.789C123.101 347.795 122.927 348.816 122.455 349.738C121.983 350.661 121.234 351.449 120.289 352.014C118.504 352.935 116.793 352.091 116.485 350.119C116.346 349.115 116.522 348.097 116.993 347.176C117.465 346.256 118.213 345.47 119.156 344.905C120.941 343.984 122.652 344.828 122.96 346.789Z" fill="#263238"/>
<path d="M110.847 293.329C110.117 293.773 109.537 294.387 109.171 295.103C108.804 295.819 108.664 296.611 108.767 297.393L114.823 334.98C115.07 336.502 116.399 337.171 117.79 336.448C118.52 336.006 119.1 335.394 119.467 334.68C119.834 333.965 119.973 333.175 119.87 332.394L113.814 294.819C113.568 293.274 112.238 292.628 110.847 293.329Z" fill="#263238"/>
<path d="M391.329 52.7148L114.133 195.052C110.576 196.882 108.2 201.526 108.828 205.426L110.059 212.996L393.692 67.2958L391.329 52.7148Z" fill="#0F518A"/>
<path d="M369.185 74.4381C368.139 74.9749 367.142 74.4381 366.957 73.3426L366.846 72.6963C366.774 72.1088 366.881 71.5148 367.156 70.9769C367.431 70.4391 367.864 69.9771 368.409 69.6399C369.468 69.1031 370.465 69.6399 370.65 70.7353L370.748 71.3817C370.829 71.9698 370.725 72.5663 370.45 73.1056C370.174 73.6448 369.736 74.1059 369.185 74.4381Z" fill="white"/>
<path d="M376.817 70.5162C375.758 71.064 374.761 70.5162 374.576 69.4207L374.478 68.7854C374.403 68.1961 374.509 67.5999 374.784 67.0599C375.06 66.5199 375.494 66.0562 376.041 65.718C377.087 65.1812 378.084 65.718 378.269 66.8135L378.38 67.4598C378.452 68.0473 378.345 68.6412 378.07 69.1791C377.795 69.717 377.362 70.1789 376.817 70.5162Z" fill="white"/>
<path d="M384.436 66.6061C383.39 67.1429 382.393 66.6061 382.208 65.5106L382.097 64.8643C382.028 64.2709 382.141 63.6719 382.425 63.1315C382.709 62.5912 383.153 62.1298 383.71 61.7969C384.768 61.2492 385.765 61.7969 385.95 62.8924L386.049 63.5278C386.12 64.1229 386.008 64.7242 385.724 65.2667C385.44 65.8092 384.994 66.2723 384.436 66.6061Z" fill="white"/>
<g opacity="0.2">
<path d="M232.686 181.096L361.061 115.158C361.17 115.086 361.3 115.041 361.435 115.028C361.571 115.015 361.708 115.033 361.833 115.082C361.958 115.131 362.066 115.208 362.146 115.306C362.227 115.404 362.277 115.52 362.291 115.64L379.709 223.864C379.732 224.183 379.657 224.501 379.492 224.784C379.327 225.068 379.079 225.306 378.774 225.474L250.387 291.412C250.277 291.484 250.148 291.529 250.012 291.542C249.877 291.556 249.739 291.537 249.615 291.488C249.49 291.439 249.382 291.362 249.301 291.264C249.22 291.166 249.17 291.051 249.156 290.93L231.738 182.706C231.711 182.386 231.786 182.065 231.953 181.781C232.121 181.496 232.375 181.259 232.686 181.096Z" fill="black"/>
</g>
<path d="M369.911 118.598C369.68 118.544 369.438 118.534 369.203 118.57C368.967 118.606 368.743 118.686 368.545 118.806L241.832 183.878C241.292 184.174 240.852 184.596 240.562 185.098C240.271 185.6 240.14 186.163 240.182 186.726L257.416 293.482C257.431 293.691 257.506 293.893 257.633 294.069C257.76 294.246 257.935 294.39 258.142 294.49C257.76 294.326 254.375 293.066 253.957 292.912C253.743 292.816 253.562 292.673 253.428 292.497C253.294 292.32 253.214 292.116 253.193 291.905L235.96 185.138C235.919 184.575 236.051 184.012 236.341 183.51C236.632 183.008 237.07 182.587 237.61 182.29L364.31 117.206C364.525 117.079 364.771 116.999 365.028 116.972C365.285 116.945 365.545 116.973 365.787 117.053C366.169 117.195 369.111 118.28 369.911 118.598Z" fill="#0F518A"/>
<g opacity="0.2">
<path d="M369.911 118.598C369.111 118.28 366.219 117.195 365.8 117.053C365.558 116.973 365.298 116.945 365.041 116.972C364.784 116.999 364.538 117.079 364.323 117.206L237.622 182.29C237.095 182.601 236.67 183.032 236.391 183.538L240.613 185.127C240.887 184.618 241.313 184.186 241.844 183.878L368.557 118.806C368.754 118.688 368.976 118.608 369.209 118.572C369.443 118.537 369.682 118.545 369.911 118.598Z" fill="white"/>
</g>
<path d="M241.832 183.878L368.533 118.806C369.616 118.247 370.613 118.631 370.773 119.65L388.006 226.416C388.047 226.98 387.916 227.542 387.625 228.044C387.334 228.546 386.896 228.968 386.357 229.265L259.644 294.337C258.573 294.885 257.576 294.512 257.403 293.493L240.17 186.727C240.129 186.162 240.262 185.598 240.555 185.096C240.848 184.594 241.289 184.173 241.832 183.878Z" fill="#0F518A"/>
<g opacity="0.7">
<path d="M241.832 183.878L368.533 118.806C369.616 118.248 370.613 118.631 370.773 119.65L388.006 226.416C388.047 226.98 387.916 227.542 387.625 228.044C387.334 228.546 386.896 228.968 386.357 229.265L259.644 294.337C258.573 294.885 257.576 294.512 257.403 293.493L240.17 186.727C240.129 186.162 240.262 185.598 240.555 185.096C240.848 184.594 241.289 184.173 241.832 183.878Z" fill="white"/>
</g>
<path d="M240.552 185.127L236.33 183.538C236.029 184.026 235.905 184.585 235.973 185.138L253.206 291.904C253.226 292.116 253.307 292.32 253.44 292.496C253.574 292.673 253.756 292.816 253.969 292.912C254.387 293.066 257.773 294.325 258.154 294.49C257.947 294.39 257.772 294.245 257.645 294.069C257.518 293.893 257.443 293.691 257.428 293.482L240.195 186.726C240.128 186.173 240.252 185.615 240.552 185.127Z" fill="#0F518A"/>
<path opacity="0.15" d="M240.552 185.127L236.33 183.538C236.029 184.026 235.905 184.585 235.973 185.138L253.206 291.904C253.226 292.116 253.307 292.32 253.44 292.496C253.574 292.673 253.756 292.816 253.969 292.912C254.387 293.066 257.773 294.325 258.154 294.49C257.947 294.39 257.772 294.245 257.645 294.069C257.518 293.893 257.443 293.691 257.428 293.482L240.195 186.726C240.128 186.173 240.252 185.615 240.552 185.127Z" fill="black"/>
<path d="M369.554 119.288C369.739 119.288 369.8 119.639 369.812 119.683L387.046 226.449C387.074 226.878 386.975 227.307 386.759 227.691C386.543 228.076 386.217 228.403 385.815 228.64L259.028 293.723C258.896 293.794 258.749 293.843 258.597 293.866C258.412 293.866 258.339 293.504 258.339 293.46L241.105 186.705C241.076 186.275 241.174 185.847 241.39 185.462C241.606 185.077 241.933 184.75 242.336 184.514L369.037 119.431C369.168 119.359 369.315 119.314 369.468 119.299M369.345 118.565C369.025 118.577 368.715 118.664 368.446 118.817L241.745 183.889C241.205 184.185 240.766 184.607 240.475 185.109C240.184 185.611 240.053 186.174 240.096 186.738L257.329 293.504C257.328 293.657 257.364 293.808 257.432 293.948C257.501 294.087 257.602 294.213 257.728 294.316C257.854 294.419 258.003 294.498 258.166 294.546C258.328 294.595 258.5 294.613 258.671 294.6C258.989 294.584 259.298 294.497 259.569 294.348L386.282 229.276C386.822 228.979 387.26 228.557 387.551 228.055C387.841 227.553 387.973 226.991 387.932 226.427L370.699 119.661C370.699 119.508 370.664 119.357 370.596 119.217C370.527 119.078 370.426 118.952 370.3 118.849C370.174 118.746 370.024 118.667 369.862 118.618C369.7 118.57 369.528 118.551 369.357 118.565H369.345Z" fill="#0F518A"/>
<path d="M369.825 172.189L256.849 230.25C256.209 230.579 255.618 230.25 255.483 229.582L253.759 218.879C253.712 218.52 253.777 218.156 253.946 217.828C254.116 217.5 254.383 217.219 254.719 217.017L367.707 158.977C368.348 158.649 368.938 158.977 369.061 159.646L370.785 170.349C370.827 170.704 370.76 171.063 370.591 171.387C370.422 171.711 370.157 171.988 369.825 172.189Z" fill="white"/>
<path d="M373.382 194.209L260.394 252.27C259.754 252.599 259.163 252.27 259.04 251.602L257.317 240.899C257.269 240.541 257.331 240.178 257.498 239.85C257.665 239.521 257.931 239.24 258.265 239.036L371.253 180.975C371.88 180.647 372.484 180.975 372.607 181.644L374.33 192.347C374.376 192.704 374.312 193.066 374.145 193.394C373.978 193.722 373.714 194.004 373.382 194.209Z" fill="white"/>
<path d="M365.541 194.702C364.645 195.15 363.613 195.337 362.591 195.237C361.569 195.137 360.607 194.754 359.842 194.143L359.756 194.077V193.924C359.756 193.924 361.282 189.542 364.409 187.997C365.312 187.536 366.356 187.342 367.391 187.443C368.426 187.543 369.399 187.933 370.17 188.556L370.256 188.633L370.194 188.775C370.194 188.775 368.656 193.102 365.541 194.702ZM360.101 193.891C360.831 194.457 361.742 194.806 362.706 194.891C363.67 194.975 364.639 194.79 365.48 194.362C368.151 192.982 369.603 189.608 369.899 188.885C369.177 188.306 368.269 187.945 367.303 187.852C366.337 187.76 365.363 187.941 364.52 188.37C361.848 189.717 360.396 193.135 360.101 193.891Z" fill="#E0E0E0"/>
<path d="M364.581 188.786C363.902 189.197 363.362 189.765 363.021 190.43C362.681 191.094 362.551 191.829 362.648 192.555C362.882 193.968 364.113 194.581 365.405 193.913C366.083 193.502 366.622 192.933 366.963 192.269C367.303 191.605 367.433 190.87 367.338 190.145C367.104 188.731 365.873 188.118 364.581 188.786ZM365.196 192.588C364.581 192.916 363.965 192.588 363.867 191.93C363.819 191.58 363.882 191.225 364.047 190.904C364.212 190.583 364.473 190.309 364.802 190.112C365.418 189.794 366.033 190.112 366.132 190.769C366.184 191.115 366.129 191.468 365.973 191.788C365.817 192.109 365.565 192.385 365.245 192.588H365.196Z" fill="#E0E0E0"/>
<g opacity="0.2">
<path d="M160.418 360.461L392.647 241.14C393.607 240.647 394.493 240.986 394.641 241.895L398.58 266.336C398.618 266.839 398.501 267.342 398.24 267.79C397.98 268.238 397.587 268.614 397.103 268.877L164.886 388.198C163.926 388.691 163.028 388.352 162.892 387.443L158.953 363.002C158.915 362.5 159.031 361.998 159.289 361.55C159.547 361.103 159.938 360.726 160.418 360.461Z" fill="black"/>
</g>
<path d="M390.997 247.538L165.994 363.101C165.46 363.388 165.026 363.801 164.739 364.294C164.452 364.787 164.324 365.341 164.369 365.895L167.865 387.574C168.022 388.151 168.325 388.688 168.752 389.144C169.179 389.6 169.718 389.962 170.327 390.204L174.524 391.759C175.189 391.978 175.896 392.077 176.605 392.048C177.313 392.02 178.008 391.866 178.648 391.595L403.688 276.042C404.221 275.751 404.654 275.336 404.94 274.842C405.227 274.348 405.356 273.793 405.313 273.238L401.817 251.558C401.66 250.981 401.356 250.445 400.93 249.989C400.503 249.533 399.964 249.17 399.355 248.929L395.158 247.373C394.488 247.149 393.774 247.049 393.059 247.077C392.343 247.105 391.642 247.262 390.997 247.538Z" fill="#0F518A"/>
<path opacity="0.2" d="M178.685 391.594C178.043 391.862 177.349 392.014 176.641 392.042C175.934 392.071 175.227 391.974 174.561 391.759L170.363 390.203C169.754 389.962 169.216 389.599 168.789 389.143C168.362 388.687 168.059 388.15 167.902 387.574L164.406 365.894C164.35 365.326 164.492 364.756 164.812 364.262L173.428 367.548C173.122 368.022 172.997 368.572 173.071 369.115L176.555 390.795C176.589 390.999 176.682 391.192 176.825 391.355C176.967 391.518 177.154 391.646 177.368 391.726C177.582 391.806 177.815 391.836 178.045 391.813C178.276 391.79 178.496 391.715 178.685 391.594Z" fill="black"/>
<g opacity="0.2">
<path d="M401.755 251.284C401.46 250.495 400.524 250.243 399.613 250.725L174.622 366.289C174.091 366.587 173.665 367.012 173.391 367.516L164.775 364.229C165.06 363.748 165.485 363.343 166.006 363.057L391.021 247.505C391.659 247.233 392.352 247.079 393.058 247.05C393.765 247.022 394.47 247.121 395.133 247.34L399.33 248.896C399.898 249.123 400.406 249.453 400.824 249.864C401.241 250.275 401.558 250.758 401.755 251.284Z" fill="white"/>
</g>
<path d="M399.614 250.725L174.61 366.288C174.08 366.578 173.649 366.992 173.364 367.484C173.08 367.977 172.953 368.53 172.998 369.082L173.699 373.464L176.481 390.751C176.641 391.748 177.626 392.12 178.685 391.583L403.688 276.042C404.221 275.751 404.654 275.336 404.94 274.842C405.227 274.347 405.356 273.792 405.313 273.237L401.817 251.558C401.657 250.561 400.672 250.188 399.614 250.725Z" fill="#0F518A"/>
<path d="M277.123 330.74C277.171 330.714 277.226 330.7 277.283 330.7C277.339 330.7 277.395 330.714 277.443 330.74C277.493 330.77 277.535 330.808 277.567 330.854C277.599 330.899 277.62 330.95 277.627 331.003L277.824 332.241C277.848 332.376 277.822 332.514 277.75 332.635C277.69 332.756 277.592 332.859 277.467 332.931L270.537 336.448C270.489 336.474 270.434 336.488 270.377 336.488C270.321 336.488 270.265 336.474 270.217 336.448C270.164 336.421 270.12 336.383 270.088 336.337C270.056 336.291 270.037 336.239 270.032 336.185L268.223 324.978C268.209 324.842 268.239 324.705 268.309 324.584C268.365 324.463 268.459 324.36 268.58 324.288L269.811 323.63C269.86 323.601 269.918 323.585 269.977 323.585C270.036 323.585 270.094 323.601 270.143 323.63C270.196 323.656 270.24 323.694 270.27 323.741C270.301 323.787 270.316 323.84 270.316 323.893L271.854 333.402L277.123 330.74Z" fill="white"/>
<path d="M281.418 320.914C281.914 320.643 282.467 320.468 283.043 320.399C283.507 320.349 283.976 320.417 284.397 320.596C284.811 320.773 285.163 321.046 285.419 321.385C285.719 321.776 285.921 322.221 286.01 322.688C286.01 322.787 286.071 322.918 286.096 323.083L286.17 323.565L286.244 324.047C286.253 324.178 286.253 324.31 286.244 324.441C286.288 325.006 286.247 325.573 286.121 326.128C285.873 327.266 285.282 328.323 284.41 329.184C283.97 329.62 283.455 329.99 282.883 330.28C282.389 330.552 281.835 330.727 281.258 330.795C280.797 330.842 280.329 330.778 279.904 330.609C279.495 330.431 279.146 330.158 278.895 329.82C278.605 329.422 278.4 328.98 278.292 328.516L278.206 328.144C278.206 327.99 278.144 327.826 278.12 327.673C278.095 327.519 278.12 327.344 278.12 327.18C278.12 327.015 278.12 326.873 278.12 326.763C278.069 326.202 278.111 325.638 278.243 325.087C278.378 324.523 278.588 323.975 278.87 323.455C279.156 322.931 279.52 322.445 279.954 322.009C280.379 321.582 280.872 321.212 281.418 320.914ZM283.967 323.838C283.91 323.558 283.784 323.292 283.597 323.061C283.462 322.901 283.272 322.786 283.056 322.732C282.846 322.682 282.625 322.682 282.416 322.732C282.188 322.795 281.97 322.879 281.763 322.984C281.534 323.103 281.32 323.242 281.123 323.4C280.911 323.573 280.728 323.772 280.581 323.992C280.413 324.235 280.293 324.502 280.224 324.781C280.137 325.114 280.108 325.458 280.138 325.799C280.138 325.898 280.138 326.008 280.138 326.15C280.138 326.292 280.138 326.446 280.2 326.588C280.261 326.731 280.2 326.895 280.286 327.026C280.303 327.137 280.328 327.247 280.36 327.355C280.42 327.636 280.55 327.902 280.741 328.133C280.87 328.293 281.057 328.41 281.271 328.461C281.48 328.516 281.702 328.516 281.911 328.461C282.143 328.401 282.366 328.316 282.576 328.209C282.8 328.09 283.011 327.951 283.203 327.793C283.419 327.623 283.602 327.424 283.745 327.202C283.912 326.957 284.036 326.691 284.114 326.413C284.197 326.082 284.222 325.742 284.188 325.405C284.198 325.288 284.198 325.171 284.188 325.054C284.188 324.912 284.188 324.759 284.188 324.605L284.114 324.178C284.003 324.036 284.003 323.926 284.003 323.838H283.967Z" fill="white"/>
<path d="M292.62 327.026C292.862 326.897 293.085 326.743 293.285 326.566C293.753 326.137 294.081 325.603 294.233 325.021C294.295 324.702 294.295 324.376 294.233 324.057L294.134 323.411C294.05 323.587 293.956 323.759 293.851 323.926C293.715 324.13 293.567 324.327 293.408 324.517C293.212 324.735 292.998 324.94 292.768 325.131C292.505 325.342 292.216 325.526 291.906 325.678C291.459 325.929 290.945 326.069 290.417 326.084C289.978 326.082 289.549 325.964 289.186 325.744C288.799 325.5 288.482 325.177 288.263 324.802C287.991 324.374 287.808 323.907 287.721 323.422C287.721 323.246 287.647 323.049 287.61 322.819C287.567 322.617 287.538 322.412 287.524 322.206C287.445 321.646 287.445 321.079 287.524 320.519C287.609 319.946 287.779 319.386 288.029 318.854C288.262 318.328 288.577 317.834 288.964 317.386C289.342 316.946 289.81 316.575 290.343 316.29C290.626 316.142 290.928 316.025 291.242 315.94C291.478 315.882 291.722 315.852 291.968 315.852C292.156 315.853 292.343 315.878 292.522 315.929C292.657 315.971 292.786 316.03 292.903 316.104V315.699C292.887 315.564 292.913 315.427 292.977 315.304C293.034 315.184 293.133 315.084 293.26 315.019L294.491 314.395C294.541 314.368 294.599 314.354 294.657 314.354C294.716 314.354 294.774 314.368 294.824 314.395C294.876 314.421 294.92 314.459 294.951 314.505C294.981 314.551 294.997 314.604 294.996 314.658L296.313 322.797C296.559 324.058 296.361 325.355 295.747 326.511C295.134 327.603 294.164 328.504 292.965 329.096C292.495 329.352 291.978 329.534 291.439 329.633C291.009 329.716 290.564 329.716 290.134 329.633C289.776 329.554 289.449 329.391 289.186 329.162C288.932 328.93 288.761 328.637 288.694 328.319C288.66 328.185 288.682 328.045 288.755 327.924C288.82 327.802 288.922 327.7 289.051 327.628L290.121 327.081C290.183 327.049 290.253 327.032 290.325 327.032C290.396 327.032 290.466 327.049 290.528 327.081L290.848 327.245C291.032 327.37 291.256 327.439 291.488 327.442C291.898 327.387 292.286 327.244 292.62 327.026ZM289.641 321.264C289.658 321.592 289.707 321.918 289.789 322.239C289.974 322.962 290.281 323.389 290.688 323.531C290.919 323.602 291.165 323.624 291.407 323.593C291.649 323.563 291.879 323.481 292.079 323.356C292.61 323.082 293.038 322.674 293.31 322.184C293.608 321.64 293.74 321.035 293.691 320.431C293.691 320.245 293.691 320.015 293.617 319.752C293.543 319.489 293.519 319.27 293.47 319.106C293.435 318.878 293.342 318.66 293.197 318.47C293.051 318.28 292.858 318.122 292.633 318.01C292.405 317.929 292.158 317.901 291.915 317.928C291.672 317.954 291.44 318.035 291.242 318.163C290.713 318.441 290.286 318.848 290.011 319.336C289.67 319.93 289.525 320.599 289.592 321.264H289.641Z" fill="white"/>
<path d="M298.233 308.895C298.281 308.869 298.337 308.855 298.393 308.855C298.45 308.855 298.505 308.869 298.553 308.895C298.604 308.924 298.646 308.962 298.676 309.008C298.706 309.054 298.723 309.105 298.726 309.158L298.947 310.517C298.969 310.652 298.943 310.79 298.873 310.911C298.817 311.031 298.717 311.131 298.59 311.196L297.236 311.897C297.188 311.923 297.133 311.937 297.076 311.937C297.02 311.937 296.964 311.923 296.916 311.897C296.866 311.868 296.823 311.829 296.792 311.784C296.76 311.738 296.739 311.687 296.731 311.634L296.51 310.276C296.5 310.141 296.525 310.006 296.584 309.881C296.644 309.76 296.742 309.658 296.867 309.586L298.233 308.895ZM300.486 320.573C300.498 320.708 300.472 320.844 300.412 320.968C300.355 321.091 300.256 321.194 300.129 321.264L298.898 321.877C298.85 321.903 298.794 321.917 298.738 321.917C298.681 321.917 298.626 321.903 298.578 321.877C298.527 321.849 298.485 321.81 298.455 321.764C298.425 321.719 298.408 321.667 298.406 321.614L297.101 313.518C297.079 313.383 297.105 313.245 297.175 313.124C297.226 313.005 297.322 312.904 297.445 312.839L298.676 312.215C298.725 312.189 298.78 312.175 298.836 312.175C298.893 312.175 298.948 312.189 298.996 312.215C299.051 312.24 299.096 312.278 299.129 312.324C299.161 312.37 299.179 312.423 299.181 312.478L300.486 320.573Z" fill="white"/>
<path d="M310.395 315.479C310.419 315.615 310.393 315.753 310.322 315.874C310.269 315.999 310.169 316.104 310.038 316.17L308.807 316.783C308.757 316.809 308.7 316.823 308.641 316.823C308.583 316.823 308.526 316.809 308.475 316.783C308.427 316.753 308.386 316.714 308.356 316.669C308.327 316.623 308.308 316.573 308.303 316.52L307.589 312.138C307.558 311.598 307.304 311.087 306.875 310.703C306.518 310.44 306.026 310.462 305.422 310.78C304.852 311.072 304.417 311.534 304.191 312.083C303.94 312.696 303.868 313.356 303.982 314.001L304.696 318.383C304.708 318.517 304.683 318.653 304.622 318.777C304.562 318.898 304.464 319.001 304.339 319.073L303.108 319.686C303.06 319.712 303.005 319.726 302.948 319.726C302.892 319.726 302.836 319.712 302.788 319.686C302.738 319.657 302.696 319.618 302.664 319.573C302.632 319.527 302.611 319.476 302.604 319.423L301.373 311.328C301.351 311.192 301.376 311.055 301.446 310.933C301.498 310.814 301.594 310.714 301.717 310.648L302.948 310.024C302.996 309.998 303.052 309.984 303.108 309.984C303.165 309.984 303.22 309.998 303.268 310.024C303.321 310.051 303.365 310.089 303.398 310.135C303.43 310.181 303.449 310.233 303.453 310.287L303.514 310.681C303.738 310.238 304.023 309.823 304.364 309.443C304.698 309.05 305.117 308.718 305.595 308.468C306.092 308.18 306.664 308.01 307.257 307.975C307.702 307.948 308.143 308.073 308.487 308.326C308.838 308.591 309.102 308.935 309.251 309.323C309.456 309.795 309.597 310.288 309.669 310.791L310.395 315.479Z" fill="white"/>
<path d="M160.504 332.537L237.45 293.011L232.526 271.792C230.618 265.668 226.704 261.483 221.755 259.61L215.108 257.101C210.184 255.25 204.227 255.688 198.207 258.777L171.988 272.274C159.913 278.474 151.247 293.471 151.653 307.439L153.844 330.028L160.504 332.537Z" fill="#263238"/>
<path d="M232.587 271.814C230.679 265.69 226.765 261.505 221.816 259.632C216.868 257.759 210.935 258.219 204.916 261.308L178.647 274.805C166.572 281.005 157.906 296.002 158.325 309.97L160.503 332.559L237.449 293.034L232.587 271.814Z" fill="#455A64"/>
<path d="M199.635 214.782C204.301 216.545 207.649 220.566 208.597 226.427C210.48 238.148 201.999 252.806 189.64 259.149C183.485 262.326 177.491 262.819 172.825 261.066L166.4 258.667C161.735 256.914 158.387 252.883 157.439 247.022C155.555 235.3 164.037 220.643 176.395 214.3C182.55 211.123 188.545 210.63 193.21 212.393L199.635 214.782Z" fill="#263238"/>
<path d="M189.64 259.15C183.485 262.326 177.49 262.819 172.825 261.067C168.16 259.314 164.799 255.282 163.864 249.411C161.968 237.689 170.462 223.031 182.808 216.688C188.963 213.511 194.957 213.018 199.635 214.782C204.312 216.546 207.648 220.566 208.596 226.427C210.479 238.149 201.998 252.807 189.64 259.15Z" fill="#455A64"/>
<path d="M97.2457 421.754H25.7527L33.1383 449.141C33.6922 452.428 36.4249 455.714 41.3487 458.201C52.4271 463.919 70.4973 463.919 81.6127 458.201C86.9181 455.484 89.6631 451.957 89.9092 448.342L97.2457 421.754Z" fill="#37474F"/>
<path d="M88.5306 440.52C90.049 439.748 91.4867 438.857 92.8266 437.858L96.901 423.222C94.81 425.259 92.3666 426.986 89.6631 428.338C74.5841 436.083 50.4084 436.28 34.8124 428.973L36.6342 422.4L36.068 421.71H25.7527L33.1383 449.097C33.6922 452.384 36.4249 455.67 41.3487 458.157C49.2759 462.232 60.6868 463.382 70.6327 461.652C52.821 462.835 40.5978 455.911 38.7637 449.514C38.0252 446.972 36.7573 441.33 36.7573 441.33C51.6517 448.1 74.3132 447.827 88.5306 440.52Z" fill="#263238"/>
<path d="M100.963 413.647C100.563 415.429 99.7541 417.118 98.5874 418.61C96.2463 421.553 93.176 423.978 89.6139 425.697C74.0917 433.673 48.919 433.673 33.4091 425.697C29.8446 423.981 26.7737 421.556 24.4356 418.61C23.2819 417.12 22.4742 415.44 22.0599 413.669C20.6812 407.666 24.5218 401.421 33.4214 396.82C48.9313 388.845 74.104 388.845 89.6262 396.82C98.5628 401.399 102.354 407.655 100.963 413.647Z" fill="#455A64"/>
<path d="M98.5878 418.61C96.2468 421.553 93.1765 423.978 89.6143 425.697C74.0921 433.673 48.9194 433.673 33.4096 425.697C29.8451 423.981 26.7741 421.556 24.436 418.61C23.2823 417.12 22.4746 415.44 22.0603 413.669L23.8205 424.449C24.633 428.831 28.2642 433.015 34.739 436.346C49.5103 443.937 73.5013 443.937 88.2972 436.346C94.6857 433.059 98.317 428.885 99.1787 424.602L99.2771 424.043L100.976 413.669C100.569 415.444 99.7557 417.126 98.5878 418.61Z" fill="#37474F"/>
<path d="M84.9364 399.208C71.9992 392.558 51.024 392.558 38.0991 399.208C30.775 402.965 27.6115 408.049 28.5593 412.956C29.2979 416.725 32.486 420.384 38.0991 423.265C51.024 429.915 71.9992 429.915 84.9364 423.265C90.5371 420.384 93.713 416.692 94.4515 412.967C95.424 408.049 92.2481 402.965 84.9364 399.208Z" fill="#263238"/>
<path d="M30.7502 417.514C32.6997 419.897 35.2231 421.862 38.1359 423.265C51.0607 429.915 72.036 429.915 84.9731 423.265C87.8845 421.86 90.4075 419.895 92.3588 417.514C92.2603 413.526 89.2691 409.571 83.3606 406.559C71.3343 400.38 51.8486 400.38 39.8469 406.559C33.8399 409.571 30.8487 413.537 30.7502 417.514Z" fill="#FAFAFA"/>
<path d="M63.9858 405.135C58.0403 403.711 57.031 392.252 60.3668 380.158C63.6042 368.392 73.9687 350.744 76.1721 351.138C78.3755 351.533 81.0958 370.704 79.5818 383.357C77.7107 398.705 69.9312 406.559 63.9858 405.135Z" fill="#0F518A"/>
<path opacity="0.4" d="M63.9858 405.135C58.0403 403.711 57.031 392.252 60.3668 380.158C63.6042 368.392 73.9687 350.744 76.1721 351.138C78.3755 351.533 81.0958 370.704 79.5818 383.357C77.7107 398.705 69.9312 406.559 63.9858 405.135Z" fill="black"/>
<path opacity="0.5" d="M66.8788 368.097C67.9497 369.597 68.6021 372.128 71.1009 372.139C73.1073 372.139 74.1536 370.255 75.9631 369.827C76.6774 369.739 77.4049 369.791 78.0941 369.98C78.7833 370.17 79.4173 370.491 79.9513 370.923L79.8775 369.543C78.883 368.87 77.6792 368.487 76.4309 368.447C75.3434 368.529 74.3172 368.929 73.5135 369.586C72.5903 370.233 71.4579 371.197 70.1777 370.682C68.8975 370.167 68.319 368.491 67.5804 367.461C67.2094 366.876 66.6806 366.383 66.0417 366.026C65.8694 366.344 65.7094 366.672 65.5493 367.001C66.0972 367.251 66.5572 367.63 66.8788 368.097ZM73.932 363.364C74.7814 363.002 75.2738 362.269 75.9385 361.688C76.3377 361.346 76.8397 361.115 77.3836 361.021C77.9275 360.928 78.4901 360.977 79.0035 361.162H79.102C79.102 360.757 78.9912 360.351 78.9297 359.957C78.7443 359.905 78.5551 359.865 78.3634 359.837C77.5036 359.708 76.6213 359.881 75.9015 360.319C75.0768 360.844 74.6706 361.743 73.7474 362.203C72.1964 363.035 70.9655 361.524 70.4977 360.395C70.2885 359.88 70.1284 359.365 69.9438 358.851L69.4637 359.661C69.5745 360.023 69.673 360.384 69.7961 360.757C70.3131 362.269 71.8887 364.229 73.932 363.364ZM73.7351 378.701C72.6519 379.292 71.741 380.278 70.4854 380.596C67.4204 381.374 66.7187 377.167 64.7738 375.918C63.9637 375.413 62.9763 375.183 61.9919 375.272C61.8688 375.601 61.7457 375.918 61.6349 376.236C62.1461 376.138 62.6748 376.138 63.1859 376.236C63.7805 376.391 64.3292 376.661 64.7931 377.026C65.257 377.392 65.6245 377.844 65.8694 378.35C66.8418 379.917 68.0851 382.152 70.547 381.713C71.5993 381.417 72.5686 380.924 73.3904 380.267C73.9584 379.846 74.6221 379.539 75.3359 379.367C76.0498 379.194 76.797 379.162 77.5264 379.271C78.3922 379.466 79.1936 379.842 79.8652 380.366C79.8652 379.95 79.8652 379.544 79.939 379.117C79.1184 378.539 78.1425 378.162 77.1079 378.022C75.934 377.896 74.7467 378.123 73.7351 378.668V378.701ZM75.6061 387.936C74.2314 387.676 72.7979 387.842 71.544 388.407C70.1284 389.031 69.0821 390.247 67.6173 390.751C64.3799 391.847 63.9245 387.673 61.4626 386.643C60.6983 386.312 59.8484 386.168 59.0007 386.227C59.0007 386.556 58.89 386.884 58.853 387.202C59.1638 387.169 59.4778 387.169 59.7885 387.202C60.5192 387.3 61.2095 387.562 61.7935 387.965C62.3776 388.368 62.8358 388.897 63.1244 389.502C64.2692 391.398 65.7832 392.942 68.3928 391.803C69.7961 391.2 70.8547 390.061 72.2333 389.513C73.0001 389.169 73.8603 389.023 74.7157 389.093C75.5712 389.162 76.3873 389.445 77.0709 389.908C77.407 390.209 77.7081 390.539 77.9695 390.894C78.0926 390.488 78.2034 390.061 78.3142 389.645C77.6465 388.826 76.695 388.226 75.6061 387.936Z" fill="#0F518A"/>
<path opacity="0.1" d="M63.9858 405.135C69.9312 406.57 77.7107 398.704 79.5818 383.357C80.0558 378.988 80.1669 374.594 79.9141 370.211C75.0642 373.749 70.1897 381.001 70.1897 381.001C68.5034 377.051 66.5762 373.185 64.4166 369.422C62.7808 372.91 61.4274 376.498 60.3668 380.158C57.031 392.252 58.0403 403.711 63.9858 405.135Z" fill="black"/>
<path d="M59.1357 411.489C51.3192 415.959 44.032 400.074 40.1423 388.089C36.2525 376.105 38.8005 344.752 42.7395 343.021C45.5215 341.805 60.2927 369.893 63.1855 383.554C65.2904 393.468 65.3642 407.94 59.1357 411.489Z" fill="#0F518A"/>
<path opacity="0.2" d="M59.1357 411.489C51.3192 415.959 44.032 400.074 40.1423 388.089C36.2525 376.105 38.8005 344.752 42.7395 343.021C45.5215 341.805 60.2927 369.893 63.1855 383.554C65.2904 393.468 65.3642 407.94 59.1357 411.489Z" fill="black"/>
<path d="M42.2715 365.171C44.7334 366.267 46.6783 366.267 48.5863 364.415C50.4942 362.564 51.6882 360.537 54.4578 360.811L53.6454 359.179C53.1938 359.154 52.7406 359.194 52.3037 359.299C49.8418 359.88 48.7832 362.126 47.0845 363.539C44.4626 365.73 41.6684 362.86 38.6895 363.013H38.4187L38.3448 364.459C39.702 364.376 41.0591 364.622 42.2715 365.171ZM63.7637 386.741C63.3631 386.605 62.9517 386.495 62.5328 386.413C61.893 386.3 61.2336 386.308 60.5974 386.436C59.9612 386.564 59.3624 386.81 58.84 387.158C56.4766 388.702 56.3781 392.131 52.5376 391.233C49.6325 390.554 47.4538 388.845 44.3887 390.203C43.3203 390.688 42.3475 391.325 41.5083 392.087L41.9515 393.282C42.9992 392.3 44.3135 391.576 45.7674 391.178C49.054 390.433 51.5405 393.369 54.8148 392.909C57.4859 392.515 57.7814 389.896 59.6401 388.615C60.2663 388.221 61.003 387.99 61.7682 387.948C62.5333 387.905 63.2966 388.053 63.973 388.374C63.9114 387.815 63.8376 387.278 63.7637 386.741ZM42.4069 353.789C43.3178 354.885 44.6103 356.155 46.2967 355.378C47.9831 354.6 48.2539 352.584 49.4233 351.313L48.7832 350.218C47.6507 351.565 47.0845 354.501 44.918 354.392C43.2194 354.315 42.5546 352.069 41.1391 351.423C40.7048 351.219 40.2118 351.135 39.7235 351.182C39.7235 351.489 39.6127 351.795 39.5635 352.102C39.6742 352.097 39.7851 352.097 39.8958 352.102C41.0775 352.135 41.7792 353.022 42.4069 353.789ZM48.2908 377.583C51.3805 378.175 52.8945 374.91 54.2855 373.092C55.2973 371.644 56.7962 370.517 58.5692 369.871L57.9414 368.392C57.3772 368.494 56.8336 368.671 56.3289 368.918C54.9667 369.688 53.8212 370.726 52.9807 371.952C52.0452 373.179 51.282 374.844 49.8418 375.677C48.1923 376.63 46.2475 375.14 44.5365 374.855C42.9456 374.597 41.3064 374.718 39.785 375.206C39.2771 375.367 38.7901 375.576 38.3325 375.83C38.3325 376.51 38.4064 377.178 38.4556 377.835C39.8603 376.802 41.6447 376.267 43.4655 376.334C45.275 376.367 46.6044 377.265 48.2908 377.583Z" fill="#0F518A"/>
<path opacity="0.1" d="M59.0868 371.13C56.5112 373.935 54.3822 377.043 52.7598 380.365C52.7598 380.365 44.2663 370.122 38.3085 365.478C37.9762 373.99 38.4563 382.874 40.1426 388.089C44.0324 400.073 51.3196 415.958 59.136 411.488C65.3646 407.939 65.2907 393.467 63.1858 383.586C62.1783 379.347 60.8079 375.183 59.0868 371.13Z" fill="black"/>
<path d="M58.6065 419.705C44.3029 420.395 30.9473 412.694 22.2814 402.977C13.6156 393.26 6.84546 373.201 8.80265 371.963C10.7598 370.725 33.8277 383.389 42.4935 392.526C53.8181 404.455 58.6065 419.705 58.6065 419.705Z" fill="#0F518A"/>
<path opacity="0.4" d="M58.6065 419.705C44.3029 420.395 30.9473 412.694 22.2814 402.977C13.6156 393.26 6.84546 373.201 8.80265 371.963C10.7598 370.725 33.8277 383.389 42.4935 392.526C53.8181 404.455 58.6065 419.705 58.6065 419.705Z" fill="black"/>
<path d="M27.4021 387.793C28.2391 386.588 27.759 385.142 27.5744 383.849C27.4257 382.992 27.6313 382.116 28.1529 381.384L26.5404 380.365C25.898 381.419 25.689 382.64 25.9496 383.816C26.1957 385.284 26.5896 387.103 24.3863 387.387C21.9244 387.672 18.6501 385.766 16.7175 387.88C15.7943 388.91 16.139 390.214 16.1144 391.419C16.0838 391.963 15.9065 392.493 15.5974 392.963C15.8559 393.456 16.1144 393.928 16.3852 394.41C16.9633 393.782 17.334 393.023 17.4561 392.219C17.653 390.74 17.0006 388.833 19.2532 388.516C20.8042 388.297 22.2937 388.932 23.8323 389.031C24.4977 389.135 25.1823 389.074 25.8117 388.856C26.4411 388.638 26.9912 388.27 27.4021 387.793ZM19.4256 377.167C19.5953 376.936 19.8075 376.732 20.0534 376.564L18.7609 375.885C17.7146 377.112 17.7146 378.799 16.656 380.015C16.3375 380.358 15.9089 380.608 15.4272 380.729C14.9456 380.85 14.4339 380.838 13.9602 380.694C12.9827 380.43 11.9341 380.465 10.9813 380.793C10.7738 380.88 10.5724 380.979 10.3782 381.088L10.7105 382.02C11.1679 381.785 11.6845 381.657 12.2123 381.647C13.2832 381.647 14.2926 382.129 15.3881 382.063C16.1218 382.003 16.801 381.693 17.2837 381.198C18.4531 380.026 18.5147 378.426 19.4256 377.167ZM35.2678 394.212C36.3513 393.34 37.1076 392.193 37.4342 390.926C37.6141 390.034 37.7374 389.135 37.8035 388.231L36.4495 387.135C36.154 388.636 36.3141 390.137 35.4524 391.517C35.0275 392.22 34.3757 392.792 33.5814 393.161C32.7871 393.53 31.8866 393.679 30.9964 393.588C30.3089 393.507 29.6096 393.563 28.9495 393.752C28.2894 393.942 27.685 394.26 27.1805 394.683C26.3421 395.675 25.8459 396.863 25.7526 398.101C25.4572 399.865 25.1494 401.508 23.2907 402.483C22.9787 402.651 22.6489 402.79 22.306 402.9C22.6383 403.272 22.9953 403.645 23.34 403.995C24.13 403.684 24.8322 403.22 25.3956 402.637C27.7837 400.117 25.8388 395.1 30.9226 395.1C32.4447 395.298 33.9949 394.981 35.2678 394.212ZM42.9488 395.494C43.2435 395.015 43.6031 394.57 44.0198 394.169C43.6259 393.708 43.2073 393.248 42.7888 392.799C41.6235 393.917 40.8307 395.302 40.4993 396.798C40.0561 398.419 39.8222 400.183 38.6282 401.541C37.4342 402.9 35.4155 402.812 33.766 403.623C32.3681 404.332 31.2894 405.451 30.7133 406.789C30.3297 407.831 30.0738 408.907 29.9501 409.998L31.4642 411.094C31.469 411.032 31.469 410.97 31.4642 410.908C31.7965 409.1 32.0304 407.249 33.606 405.934C35.1816 404.62 37.2003 404.839 38.8129 403.842C41.9395 401.914 41.3978 398.2 42.9488 395.494ZM49.1035 400.796C48.6917 401.088 48.3049 401.406 47.9464 401.749C45.4846 404.137 45.8169 407.227 44.9183 410.152C44.7552 410.924 44.3967 411.652 43.8699 412.283C43.343 412.913 42.6618 413.428 41.8779 413.789C40.5116 414.282 38.9729 413.789 37.7912 414.753C37.7471 414.79 37.706 414.831 37.6681 414.873C38.382 415.238 39.096 415.578 39.8099 415.892C40.2151 415.818 40.6272 415.777 41.0409 415.772C41.8121 415.753 42.5707 415.593 43.2689 415.301C44.4758 414.704 45.431 413.773 45.9893 412.649C47.4664 409.922 46.8017 406.591 48.6604 403.995C49.0831 403.398 49.6062 402.862 50.2114 402.407C49.8667 401.873 49.5097 401.337 49.1405 400.796H49.1035Z" fill="#0F518A"/>
<path opacity="0.2" d="M26.4048 380.268C27.7465 390.817 34.1228 419.168 58.6062 419.705C58.6062 419.705 53.8547 404.5 42.4932 392.526C38.8127 388.604 32.5595 384.102 26.4048 380.268Z" fill="black"/>
<path d="M58.6068 419.705C47.356 418.248 37.6809 411.905 32.7571 393.052C27.8333 374.198 27.0455 365.664 30.4552 363.813C34.3819 361.622 49.7318 380.662 54.6678 389.009C67.0511 409.977 58.6068 419.705 58.6068 419.705Z" fill="#0F518A"/>
<path opacity="0.2" d="M37.7424 384.824C40.5366 385.613 44.1925 386.445 46.359 383.981C47.3807 382.775 47.6638 381.143 48.3777 379.872C47.8853 379.226 47.3807 378.591 46.876 377.944C45.645 379.719 45.645 382.326 43.5032 383.356C41.866 384.123 39.9335 383.619 38.2963 383.181C36.6495 382.62 34.8855 382.385 33.1264 382.491C32.1734 382.608 31.2567 382.895 30.4306 383.334C30.5537 383.882 30.6891 384.43 30.8245 385.043C31.1899 384.864 31.5683 384.707 31.957 384.572C33.8603 384.059 35.9044 384.148 37.7424 384.824ZM34.4189 375.063C35.2184 375.442 36.1277 375.599 37.0285 375.512C38.7395 375.195 39.6257 373.727 40.4997 372.533C40.7522 372.181 41.0407 371.851 41.3614 371.547C41.0167 371.163 40.6597 370.78 40.3151 370.451L40.0935 370.637C39.0349 371.788 38.1363 374.121 36.1545 374.154C35.1927 374.002 34.2519 373.76 33.3479 373.431C32.535 373.29 31.699 373.29 30.8861 373.431C30.0895 373.545 29.3273 373.802 28.6458 374.187C28.6458 374.625 28.7688 375.074 28.8304 375.545C29.7477 375.06 30.7812 374.774 31.8462 374.713C32.722 374.665 33.5992 374.784 34.4189 375.063ZM46.7283 396.009C47.7992 394.607 48.5747 393.029 50.1626 392.021C51.0024 391.537 51.9425 391.208 52.9275 391.051C53.9126 390.895 54.9228 390.916 55.8988 391.112C55.5172 390.411 55.1233 389.71 54.6678 388.987C53.3681 388.82 52.0437 388.895 50.778 389.206C49.0197 389.679 47.49 390.662 46.4328 391.999C45.6155 393.314 44.6505 394.551 43.5524 395.691C41.2629 397.554 38.1732 395.921 35.6129 395.472C34.8759 395.34 34.1236 395.288 33.3726 395.319C33.5695 395.976 33.7665 396.612 33.9757 397.236C34.9779 397.236 35.9741 397.373 36.93 397.641C40.8074 398.704 44.131 399.328 46.6913 396.009H46.7283ZM59.6777 399.668C59.4931 399.723 59.3085 399.756 59.1115 399.821C57.604 400.339 56.2874 401.219 55.3079 402.363C54.2124 403.612 53.6338 405.134 52.6121 406.416C52.1806 407.09 51.4843 407.598 50.6572 407.843C49.8301 408.088 48.9306 408.052 48.1315 407.742C46.5741 407.157 44.8437 407.046 43.2078 407.424C42.0289 407.783 40.959 408.379 40.0812 409.166C40.4628 409.67 40.8567 410.141 41.3121 410.601C42.0296 410.041 42.867 409.616 43.774 409.352C45.0773 409.063 46.4549 409.215 47.6392 409.779C49.0299 410.388 50.6299 410.501 52.1108 410.093C53.5918 409.686 54.8414 408.79 55.6033 407.588C56.5635 406.329 57.1174 404.839 58.2006 403.666C58.7879 403.031 59.5284 402.522 60.3671 402.177C60.1578 401.333 59.9732 400.522 59.6408 399.668H59.6777Z" fill="white"/>
<path opacity="0.15" d="M54.6551 389.031C53.8181 387.465 52.5872 385.602 51.0731 383.554C46.1494 396.93 44.6476 416.418 58.6065 419.628C58.6065 419.705 67.0507 409.977 54.6551 389.031Z" fill="black"/>
<path d="M64.4167 419.705C78.708 420.395 92.076 412.694 100.742 402.977C109.408 393.26 116.178 373.201 114.221 371.963C112.263 370.726 89.1956 383.346 80.5297 392.482C69.1682 404.456 64.4167 419.705 64.4167 419.705Z" fill="#0F518A"/>
<path opacity="0.4" d="M64.4167 419.705C78.708 420.395 92.076 412.694 100.742 402.977C109.408 393.26 116.178 373.201 114.221 371.963C112.263 370.726 89.1956 383.346 80.5297 392.482C69.1682 404.456 64.4167 419.705 64.4167 419.705Z" fill="black"/>
<path d="M99.1906 389.031C100.729 388.932 102.219 388.297 103.77 388.516C106.01 388.834 105.358 390.707 105.567 392.219C105.689 393.023 106.06 393.782 106.638 394.41C106.909 393.928 107.167 393.457 107.426 392.964C107.116 392.493 106.939 391.963 106.909 391.419C106.909 390.214 107.229 388.91 106.293 387.88C104.373 385.766 101.049 387.672 98.6366 387.388C96.4333 387.114 96.8272 385.284 97.061 383.816C97.3253 382.641 97.1207 381.421 96.4825 380.365L94.87 381.384C95.3864 382.118 95.5916 382.992 95.4485 383.849C95.2639 385.142 94.7838 386.588 95.6208 387.793C96.0317 388.27 96.5818 388.638 97.2112 388.856C97.8406 389.074 98.5252 389.135 99.1906 389.031ZM105.739 381.143C106.222 381.638 106.901 381.949 107.635 382.009C108.73 382.074 109.727 381.57 110.811 381.592C111.338 381.604 111.854 381.732 112.312 381.965L112.645 381.034C112.45 380.924 112.249 380.826 112.042 380.738C111.089 380.41 110.04 380.376 109.063 380.639C108.589 380.783 108.077 380.796 107.596 380.674C107.114 380.553 106.685 380.304 106.367 379.96C105.308 378.744 105.308 377.057 104.25 375.83L103.019 376.531C103.265 376.699 103.477 376.903 103.647 377.134C104.508 378.426 104.57 380.026 105.739 381.176V381.143ZM92.088 395.176C97.1718 395.176 95.2269 400.194 97.615 402.713C98.1761 403.299 98.8789 403.763 99.6706 404.072C100.015 403.71 100.372 403.338 100.705 402.976C100.362 402.867 100.032 402.727 99.7199 402.56C97.8611 401.563 97.5657 399.92 97.258 398.178C97.1647 396.94 96.6685 395.752 95.8301 394.76C95.3251 394.337 94.7207 394.02 94.0607 393.83C93.4007 393.641 92.7017 393.584 92.0142 393.665C91.124 393.756 90.2235 393.607 89.4292 393.238C88.6349 392.869 87.9831 392.296 87.5582 391.594C86.6965 390.192 86.8565 388.691 86.5611 387.212L85.2071 388.308C85.2611 389.212 85.3845 390.113 85.5764 391.003C85.8977 392.272 86.6549 393.42 87.7428 394.289C89.0157 395.058 90.5659 395.374 92.088 395.176ZM84.1608 403.853C85.7856 404.861 87.8536 404.674 89.3677 405.945C90.8817 407.216 91.1895 409.111 91.5095 410.919C91.5095 410.919 91.5095 411.039 91.5095 411.105L93.0235 410.009C92.9017 408.917 92.6415 407.84 92.2481 406.8C91.6804 405.461 90.6049 404.341 89.2076 403.634C87.5582 402.823 85.5148 402.976 84.2839 401.552C83.0529 400.128 82.8683 398.43 82.4252 396.809C82.0937 395.313 81.3009 393.928 80.1356 392.81C79.7171 393.259 79.2986 393.719 78.9047 394.18C79.3213 394.581 79.6809 395.026 79.9756 395.505C81.625 398.2 81.0834 401.914 84.1608 403.853ZM72.8115 402.407C73.4136 402.865 73.9362 403.401 74.3625 403.995C76.2089 406.591 75.5934 409.922 77.0336 412.65C77.5874 413.781 78.543 414.72 79.754 415.323C80.4522 415.615 81.2108 415.775 81.982 415.794C82.3958 415.798 82.8081 415.838 83.213 415.914C83.9433 415.6 84.6573 415.26 85.3548 414.895C85.3248 414.85 85.2875 414.81 85.244 414.775C84.0131 413.822 82.5236 414.304 81.1573 413.811C80.3734 413.45 79.6922 412.935 79.1654 412.305C78.6385 411.674 78.28 410.946 78.1169 410.174C77.2183 407.249 77.526 404.159 75.0888 401.771C74.729 401.426 74.3379 401.107 73.9194 400.818C73.5132 401.333 73.1562 401.87 72.8115 402.407Z" fill="#0F518A"/>
<path opacity="0.2" d="M96.6181 380.268C95.2641 390.795 88.9494 419.147 64.4167 419.64C64.4167 419.64 69.1682 404.434 80.5297 392.46C84.1979 388.604 90.4634 384.102 96.6181 380.268Z" fill="black"/>
<path d="M64.4163 419.705C75.6671 418.248 85.3422 411.905 90.266 393.052C95.1898 374.198 95.9899 365.664 92.5802 363.813C88.6535 361.622 73.3037 380.662 68.3676 389.009C55.9597 409.977 64.4163 419.705 64.4163 419.705Z" fill="#0F518A"/>
<path opacity="0.2" d="M91.1281 384.573C91.5168 384.707 91.8951 384.865 92.2606 385.044C92.3837 384.474 92.5314 383.882 92.6545 383.335C91.8284 382.896 90.9117 382.609 89.9587 382.491C88.1996 382.385 86.4356 382.621 84.7888 383.181C83.1393 383.62 81.219 384.123 79.5819 383.357C77.4154 382.349 77.4524 379.72 76.2091 377.945C75.7044 378.591 75.1997 379.227 74.7074 379.873C75.4213 381.144 75.7044 382.776 76.7261 383.981C78.831 386.446 82.4746 385.613 85.3427 384.825C87.1807 384.149 89.2247 384.06 91.1281 384.573ZM91.1281 374.636C92.1931 374.698 93.2266 374.983 94.1439 375.469C94.1439 374.998 94.2793 374.549 94.3285 374.111C93.6434 373.725 92.8769 373.467 92.0759 373.355C91.2631 373.212 90.4268 373.212 89.614 373.355C88.7101 373.684 87.7693 373.926 86.8075 374.078C84.8257 374.078 83.9271 371.712 82.8685 370.561L82.6469 370.375L81.5883 371.47C81.9166 371.772 82.2094 372.102 82.4623 372.456C83.3239 373.651 84.2225 375.118 85.9335 375.436C86.8343 375.523 87.7435 375.366 88.5431 374.987C89.3704 374.705 90.2564 374.586 91.1404 374.636H91.1281ZM86.0197 397.642C86.9798 397.374 87.9801 397.237 88.9863 397.236C89.1955 396.612 89.3925 395.977 89.5894 395.319C88.8384 395.289 88.0861 395.341 87.3491 395.473C84.7887 395.922 81.6991 397.554 79.4095 395.692C78.3075 394.554 77.3421 393.317 76.5291 392C75.4979 390.678 74.005 389.696 72.2824 389.207C71.021 388.895 69.7005 388.82 68.4049 388.987C67.9741 389.71 67.5802 390.412 67.174 391.113C68.15 390.916 69.1602 390.896 70.1452 391.052C71.1303 391.208 72.0704 391.538 72.9102 392.022C74.4981 393.03 75.2736 394.607 76.3445 396.01C78.8802 399.329 82.2161 398.704 86.032 397.642H86.0197ZM62.6318 402.122C63.5398 402.477 64.3379 403.022 64.9583 403.711C66.0292 404.883 66.5955 406.373 67.5556 407.633C68.3152 408.833 69.5626 409.729 71.0415 410.137C72.5204 410.544 74.1185 410.432 75.5075 409.824C76.6963 409.26 78.0775 409.108 79.3849 409.396C80.2919 409.66 81.1294 410.085 81.8468 410.645C82.2407 410.185 82.6346 409.714 83.0162 409.21C82.136 408.421 81.0613 407.824 79.8773 407.468C78.2416 407.088 76.5104 407.199 74.9535 407.786C74.1545 408.096 73.255 408.132 72.4279 407.887C71.6008 407.643 70.9045 407.134 70.4729 406.461C69.4512 405.179 68.8727 403.656 67.7772 402.407C66.7977 401.263 65.4811 400.384 63.9736 399.866C63.7766 399.8 63.592 399.767 63.4073 399.712C63.0996 400.523 62.8657 401.334 62.6565 402.177L62.6318 402.122Z" fill="white"/>
<path opacity="0.15" d="M68.3676 389.031C69.2662 387.52 70.4971 385.657 71.9496 383.642C76.8734 397.018 78.3751 416.506 64.4163 419.716C64.4163 419.705 55.9597 409.977 68.3676 389.031Z" fill="black"/>
<path d="M61.5115 421.742C71.002 421.742 74.1532 410.251 73.2054 401.005C72.2576 391.759 65.6844 374.154 61.5115 374.154C57.3386 374.154 50.7654 391.748 49.8176 401.005C48.8697 410.262 52.0209 421.742 61.5115 421.742Z" fill="#0F518A"/>
<path opacity="0.3" d="M61.5115 421.742C71.002 421.742 74.1532 410.251 73.2054 401.005C72.2576 391.759 65.6844 374.154 61.5115 374.154C57.3386 374.154 50.7654 391.748 49.8176 401.005C48.8697 410.262 52.0209 421.742 61.5115 421.742Z" fill="white"/>
<path opacity="0.2" d="M61.4496 386.194C62.9637 385.92 63.9115 384.824 64.9824 383.948C65.8016 383.266 66.8147 382.796 67.9121 382.589C67.6782 382.042 67.432 381.494 67.1735 381.001C65.6453 381.403 64.2646 382.159 63.173 383.192C62.6344 383.76 61.9563 384.209 61.1912 384.507C60.0464 384.868 59.3447 384.32 58.5939 383.652C57.7633 382.835 56.6797 382.256 55.4796 381.987H55.3811C55.1842 382.425 54.9872 382.863 54.7903 383.323C56.0691 383.534 57.2335 384.116 58.1015 384.978C58.4856 385.429 58.9991 385.78 59.5883 385.994C60.1774 386.208 60.8203 386.277 61.4496 386.194ZM54.3717 396.327C57.5353 398.518 60.1448 395.396 62.1636 393.544C63.8623 391.989 65.6348 391.671 67.5674 393.106C68.6039 394.066 69.8255 394.853 71.1741 395.429C71.5243 395.543 71.8875 395.624 72.2573 395.67C72.1465 395.144 72.0111 394.574 71.8757 394.081C70.4213 393.574 69.1071 392.793 68.0229 391.792C65.204 389.732 62.656 390.597 60.4157 392.887C59.1847 394.202 57.0429 396.469 54.9257 395.078C53.6947 394.245 53.0793 392.832 51.7745 392.033C51.6391 392.504 51.516 392.964 51.3929 393.424C52.5869 394.092 53.2024 395.505 54.3717 396.327ZM57.9169 406.438C59.714 408.553 61.942 409.078 64.3793 407.26C65.6102 406.384 66.3365 405.124 67.629 404.346C69.4261 403.25 71.4941 403.82 73.3528 404.477C73.3528 403.973 73.3528 403.47 73.3528 402.977C72.5069 402.648 71.6238 402.402 70.7186 402.243C70.019 402.114 69.2973 402.113 68.5971 402.239C67.8968 402.365 67.2325 402.616 66.6442 402.977C65.3025 403.831 64.4778 405.168 63.173 406.044C62.818 406.355 62.3857 406.588 61.9109 406.723C61.4362 406.858 60.9324 406.892 60.4403 406.822C59.357 406.46 58.7047 405.266 57.9784 404.543C56.9594 403.636 55.6832 402.993 54.2856 402.681C52.7647 402.341 51.1582 402.484 49.7434 403.086C49.7434 403.557 49.7434 404.039 49.7434 404.521C51.1454 403.954 52.7246 403.835 54.2139 404.184C55.7032 404.533 57.0112 405.33 57.9169 406.438ZM66.915 415.049C65.4037 416.121 63.485 416.631 61.5604 416.473C60.5435 416.407 59.5869 416.018 58.8647 415.377C58.3477 414.906 57.9661 414.282 57.4245 413.833C56.4591 412.977 55.2051 412.427 53.8547 412.266C52.8598 412.146 51.8472 412.221 50.8882 412.485C51.0482 413 51.2328 413.504 51.4298 413.997C52.2084 413.729 53.0507 413.642 53.8775 413.744C54.7044 413.845 55.4886 414.132 56.1566 414.578C57.2891 415.334 57.843 416.572 59.0493 417.273C60.1633 417.866 61.4448 418.162 62.7421 418.127C64.1138 418.122 65.4643 417.825 66.6811 417.262C68.0352 416.615 69.0076 415.52 70.374 414.841C70.7238 414.666 71.0904 414.519 71.4695 414.403C71.728 413.789 71.9619 413.143 72.1711 412.485C71.7196 412.529 71.2742 412.614 70.8417 412.737C69.3887 413.294 68.059 414.077 66.915 415.049Z" fill="white"/>
<path d="M391.994 398.463C374.194 389.392 345.39 389.491 327.665 398.671C320.279 402.516 315.577 405.102 314.408 410.086V415.246C314.58 419.461 316.578 423.454 319.984 426.387L240.404 462.429V467.578L249.352 472.135L274.291 472.058L284.065 466.986V462.122L291.857 458.211L302.726 457.324L307.047 455.133L307.441 446.49L315.466 442.338L327.246 444.671L342.535 436.751C359.041 440.212 378.737 438.471 392.117 431.536C401.004 426.924 405.423 420.91 405.374 414.917V409.812C404.537 404.434 399.995 402.538 391.994 398.463ZM380.915 413.274C378.098 414.559 374.981 415.235 371.815 415.247C368.65 415.258 365.526 414.605 362.697 413.34C357.651 410.766 357.638 406.57 362.697 403.974C365.514 402.687 368.633 402.012 371.799 402.003C374.965 401.993 378.089 402.65 380.915 403.919C385.962 406.482 385.974 410.678 380.952 413.274H380.915Z" fill="#0F518A"/>
<path opacity="0.2" d="M391.994 398.463C374.194 389.392 345.39 389.491 327.665 398.671C320.279 402.516 315.577 405.102 314.408 410.086V415.246C314.58 419.461 316.578 423.454 319.984 426.387L240.404 462.429V467.578L249.352 472.135L274.291 472.058L284.065 466.986V462.122L291.857 458.211L302.726 457.324L307.047 455.133L307.441 446.49L315.466 442.338L327.246 444.671L342.535 436.751C359.041 440.212 378.737 438.471 392.117 431.536C401.004 426.924 405.423 420.91 405.374 414.917V409.812C404.537 404.434 399.995 402.538 391.994 398.463ZM380.915 413.274C378.098 414.559 374.981 415.235 371.815 415.247C368.65 415.258 365.526 414.605 362.697 413.34C357.651 410.766 357.638 406.57 362.697 403.974C365.514 402.687 368.633 402.012 371.799 402.003C374.965 401.993 378.089 402.65 380.915 403.919C385.962 406.482 385.974 410.678 380.952 413.274H380.915Z" fill="black"/>
<path d="M391.969 393.315C374.17 384.244 345.366 384.332 327.64 393.523C313.078 401.071 310.543 412.398 319.972 421.239L240.404 462.429L249.365 466.987L274.291 466.91L284.077 461.838L283.388 457.303L291.845 453.063L302.714 452.176L307.034 449.985L307.441 441.341L315.454 437.189L327.234 439.512L342.522 431.591C359.091 435.042 378.786 433.3 392.105 426.366C409.83 417.186 409.769 402.386 391.969 393.315ZM380.891 408.126C378.072 409.412 374.951 410.087 371.783 410.097C368.615 410.107 365.489 409.45 362.66 408.181C357.626 405.617 357.601 401.422 362.66 398.825C365.48 397.54 368.599 396.864 371.767 396.853C374.934 396.841 378.06 397.495 380.891 398.759C385.938 401.334 385.962 405.519 380.94 408.126H380.891Z" fill="#0F518A"/>
<path opacity="0.3" d="M391.969 393.315C374.17 384.244 345.366 384.332 327.64 393.523C313.078 401.071 310.543 412.398 319.972 421.239L240.404 462.429L249.365 466.987L274.291 466.91L284.077 461.838L283.388 457.303L291.845 453.063L302.714 452.176L307.034 449.985L307.441 441.341L315.454 437.189L327.234 439.512L342.522 431.591C359.091 435.042 378.786 433.3 392.105 426.366C409.83 417.186 409.769 402.386 391.969 393.315ZM380.891 408.126C378.072 409.412 374.951 410.087 371.783 410.097C368.615 410.107 365.489 409.45 362.66 408.181C357.626 405.617 357.601 401.422 362.66 398.825C365.48 397.54 368.599 396.864 371.767 396.853C374.934 396.841 378.06 397.495 380.891 398.759C385.938 401.334 385.962 405.519 380.94 408.126H380.891Z" fill="white"/>
<g opacity="0.2">
<path d="M314.543 411.587L359.399 405.288C358.168 403.097 359.275 400.577 362.673 398.825C365.492 397.539 368.612 396.863 371.779 396.852C374.947 396.841 378.072 397.494 380.903 398.759C382.356 399.431 383.536 400.493 384.276 401.793L400.647 399.493C398.173 397.007 395.238 394.917 391.969 393.314C391.452 393.051 390.898 392.821 390.369 392.569L316.513 402.933C314.852 405.562 314.163 408.59 314.543 411.587Z" fill="white"/>
<path d="M402.826 417.514C404.458 415.251 405.337 412.623 405.361 409.934C405.385 407.245 404.553 404.605 402.962 402.319L384.325 404.927C383.62 406.283 382.43 407.392 380.94 408.082C378.121 409.368 375 410.043 371.832 410.053C368.664 410.062 365.539 409.406 362.71 408.136L362.464 408.005L315.331 414.578C316.336 417.037 317.918 419.278 319.972 421.151L298.898 432.106L402.826 417.514Z" fill="white"/>
</g>
<path d="M359.952 428.666C348.701 428.666 338.202 426.475 330.41 422.531C323.59 419.059 319.676 414.523 319.651 410.076C319.627 405.628 323.516 401.06 330.311 397.543C338.103 393.501 348.591 391.266 359.854 391.222C371.117 391.178 381.604 393.413 389.396 397.357C396.216 400.83 400.142 405.376 400.155 409.813C400.167 414.25 396.29 418.829 389.495 422.345C381.678 426.388 371.191 428.622 359.952 428.666ZM359.804 392.679C348.837 392.679 338.645 394.87 331.099 398.803C324.821 402.09 321.251 406.154 321.251 410.065C321.251 413.976 324.883 418.062 331.185 421.272C338.768 425.139 348.985 427.242 359.94 427.209C370.895 427.176 381.1 425.018 388.645 421.085C394.923 417.799 398.493 413.735 398.493 409.824C398.493 405.913 394.862 401.827 388.559 398.617C380.977 394.75 370.76 392.646 359.804 392.679Z" fill="#0F518A"/>
<path opacity="0.1" d="M376.324 431.689V436.838C365.183 439.03 353.635 438.996 342.51 436.74V431.591C353.635 433.847 365.183 433.881 376.324 431.689Z" fill="black"/>
<path opacity="0.1" d="M327.234 439.5L327.259 444.66L315.479 442.327L315.454 437.178L327.234 439.5Z" fill="black"/>
<path opacity="0.1" d="M307.441 441.33L307.453 446.479L307.059 455.122L307.035 449.974L307.441 441.33Z" fill="black"/>
<path opacity="0.1" d="M302.714 452.208L302.738 457.357L291.869 458.244L291.844 453.095L302.714 452.208Z" fill="black"/>
<path opacity="0.1" d="M274.304 466.928L249.377 467.01L249.398 472.159L274.325 472.077L274.304 466.928Z" fill="black"/>
<path opacity="0.15" d="M240.404 462.462L240.428 467.611L249.377 472.168L249.365 467.019L245.438 465.014L245.45 467.238L243.284 466.143L243.272 463.886L240.404 462.462Z" fill="black"/>
<path d="M243.271 463.886L245.438 465.014L245.45 467.238L243.284 466.142L243.271 463.886Z" fill="#0F518A"/>
<path opacity="0.3" d="M243.271 463.886L245.438 465.014L245.45 467.238L243.284 466.142L243.271 463.886Z" fill="white"/>
<path d="M243.271 463.886L243.284 466.143L324.87 423.857L322.704 422.729L243.271 463.886Z" fill="#0F518A"/>
<path opacity="0.15" d="M322.705 422.729L322.717 424.974L324.871 423.857L322.705 422.729Z" fill="black"/>
<path d="M468.817 319.708C468.337 332.098 469.593 343.886 468.817 351.127C468.744 351.795 473.852 355.191 478.923 354.731C483.995 354.271 485.46 352.748 485.497 352.266C485.62 350.59 487.54 348.311 487.762 346.646C488.935 337.974 490.698 329.373 493.042 320.891L468.817 319.708Z" fill="#C8856A"/>
<path d="M549.628 326.15L526.659 324.397C529.059 334.881 531.583 345.76 533.429 353.11C533.917 355.319 534.609 357.488 535.497 359.596C536.593 364.328 549.037 364.898 551.499 357.328L550.97 350.876C550.65 344.905 550.071 335.024 549.628 326.15Z" fill="#C8856A"/>
<path d="M442.032 372.774C441.712 372.774 441.232 375.984 442.956 377.343C444.95 378.92 450.784 381.505 458.502 380.629C466.22 379.753 468.35 378.307 471.476 375.94C474.603 373.574 477.397 371.087 480.893 370.375C484.13 369.729 489.079 368.535 490.113 367.615C491.147 366.694 491.011 362.619 491.011 362.619L442.032 372.774Z" fill="#263238"/>
<path d="M488.057 344.883C488.366 344.89 488.664 344.99 488.901 345.167C489.138 345.344 489.3 345.588 489.361 345.858C489.595 346.953 489.854 350.24 490.358 352.102C491.088 356.026 491.258 360.016 490.863 363.977C490.432 366.07 483.736 367.362 480.351 368.545C476.86 369.859 473.659 371.713 470.897 374.023C466.874 376.988 461.852 378.67 456.631 378.799C450.673 378.799 443.977 376.992 442.438 374.417C440.542 371.295 440.259 368.293 449.085 364.558C450.759 363.846 455.904 361.085 457.911 359.924C460.122 358.692 462.185 357.261 464.066 355.651C464.861 354.978 465.617 354.269 466.33 353.526C466.897 352.837 467.314 352.061 467.561 351.237C467.885 349.703 468.078 348.151 468.14 346.592C468.154 346.45 468.209 346.314 468.3 346.197C468.405 346.092 468.542 346.016 468.694 345.978C470.104 345.63 471.583 345.559 473.027 345.77C474.513 345.904 475.974 346.21 477.372 346.679C478.17 346.851 478.878 347.261 479.378 347.841C479.654 348.305 479.786 348.827 479.76 349.352C479.723 349.874 479.723 350.397 479.76 350.919C479.78 351.107 479.862 351.286 479.994 351.434C480.289 351.708 480.769 351.489 481.028 351.27C481.896 350.458 482.691 349.586 483.404 348.662C483.822 348.18 485.693 347.884 486.222 347.512C486.746 347.238 487.251 346.938 487.737 346.614C488.34 346.154 488.032 345.529 488.057 344.883Z" fill="#37474F"/>
<path d="M470.898 374.023C472.196 372.989 473.565 372.027 474.997 371.142C474.997 371.142 465.592 374.549 461.395 371.92C458.687 370.233 459.979 368.184 460.041 367.538C460.102 366.891 453.443 364.065 450.821 363.78C450.082 364.153 449.467 364.449 449.085 364.613C440.259 368.359 440.543 371.361 442.438 374.472C443.977 377.003 448.827 378.975 456.52 378.975C461.793 378.771 466.844 377.031 470.898 374.023Z" fill="#455A64"/>
<path d="M460.767 365.599C455.277 367.614 457.616 368.545 459.154 368.754C460.693 368.962 468.436 364.865 474.073 360.789C479.957 356.528 485.078 352.025 487.269 350.47C488.082 349.878 488.956 349.166 489.731 348.498C489.596 347.402 489.473 346.384 489.362 345.858C489.267 345.561 489.086 345.291 488.838 345.076C488.59 344.861 488.282 344.707 487.946 344.631L487.762 346.647C487.294 346.994 486.749 347.248 486.161 347.391C485.152 347.638 484.218 348.083 483.429 348.695C482.716 349.619 481.921 350.491 481.053 351.302C476.252 356.878 466.257 363.594 460.767 365.599Z" fill="#263238"/>
<path d="M459.548 368.009C459.674 368.011 459.797 367.972 459.893 367.899C460.006 367.814 460.077 367.693 460.09 367.562C460.104 367.431 460.06 367.3 459.967 367.198C458.688 365.978 457.125 365.021 455.389 364.393C453.652 363.765 451.782 363.481 449.91 363.561C449.766 363.58 449.636 363.648 449.547 363.749C449.458 363.851 449.416 363.98 449.43 364.109C449.434 364.174 449.454 364.238 449.487 364.296C449.52 364.355 449.567 364.407 449.623 364.449C449.679 364.491 449.745 364.522 449.815 364.541C449.886 364.56 449.96 364.565 450.033 364.558C451.725 364.499 453.411 364.762 454.979 365.329C456.548 365.895 457.963 366.753 459.13 367.844C459.18 367.899 459.244 367.943 459.317 367.971C459.39 368 459.469 368.013 459.548 368.009Z" fill="#F0F0F0"/>
<path d="M464.349 365.533C464.474 365.542 464.598 365.506 464.694 365.434C464.806 365.349 464.877 365.229 464.893 365.099C464.909 364.969 464.869 364.838 464.78 364.733C463.533 363.488 461.997 362.498 460.277 361.834C458.557 361.17 456.696 360.847 454.822 360.888C454.686 360.913 454.566 360.982 454.483 361.081C454.401 361.18 454.362 361.303 454.374 361.426C454.386 361.548 454.448 361.663 454.549 361.748C454.65 361.832 454.782 361.881 454.92 361.885C456.612 361.862 458.29 362.159 459.843 362.756C461.396 363.353 462.789 364.236 463.931 365.347C463.979 365.405 464.042 365.452 464.115 365.485C464.188 365.517 464.268 365.534 464.349 365.533Z" fill="#F0F0F0"/>
<path d="M468.781 362.739C468.908 362.736 469.029 362.693 469.125 362.619C469.236 362.532 469.304 362.412 469.318 362.281C469.332 362.151 469.289 362.021 469.199 361.918C467.921 360.698 466.358 359.742 464.621 359.116C462.884 358.49 461.014 358.208 459.143 358.292C459.07 358.298 459 358.318 458.936 358.349C458.872 358.381 458.816 358.424 458.772 358.475C458.727 358.526 458.694 358.584 458.675 358.647C458.656 358.71 458.652 358.775 458.662 358.839C458.667 358.903 458.686 358.966 458.719 359.023C458.751 359.08 458.797 359.131 458.852 359.172C458.907 359.213 458.971 359.243 459.04 359.262C459.109 359.28 459.182 359.285 459.253 359.278C460.947 359.218 462.635 359.48 464.206 360.047C465.776 360.614 467.193 361.472 468.362 362.564C468.412 362.62 468.476 362.665 468.548 362.696C468.621 362.726 468.7 362.741 468.781 362.739Z" fill="#F0F0F0"/>
<path d="M472.694 360.175C472.756 360.181 472.819 360.175 472.878 360.158C472.937 360.141 472.992 360.113 473.039 360.077C473.154 359.997 473.229 359.88 473.25 359.752C473.271 359.623 473.235 359.492 473.15 359.387C471.934 358.122 470.423 357.107 468.723 356.413C467.022 355.719 465.173 355.362 463.302 355.366C463.229 355.37 463.158 355.387 463.093 355.416C463.027 355.445 462.969 355.485 462.921 355.534C462.873 355.582 462.836 355.639 462.813 355.701C462.79 355.762 462.78 355.827 462.785 355.892C462.788 355.956 462.806 356.019 462.837 356.078C462.868 356.136 462.912 356.188 462.965 356.231C463.019 356.274 463.082 356.306 463.151 356.327C463.219 356.348 463.292 356.357 463.364 356.352C465.057 356.36 466.729 356.687 468.269 357.313C469.809 357.938 471.183 358.846 472.3 359.978C472.346 360.035 472.404 360.082 472.473 360.116C472.541 360.15 472.616 360.171 472.694 360.175Z" fill="#F0F0F0"/>
<path d="M476.904 357.174C477.027 357.183 477.149 357.152 477.249 357.087C477.365 357.005 477.441 356.886 477.461 356.756C477.482 356.626 477.446 356.493 477.36 356.386C475.341 353.855 470.59 352.059 466.54 352.321C466.394 352.335 466.26 352.399 466.166 352.499C466.072 352.599 466.025 352.728 466.035 352.858C466.045 352.987 466.111 353.107 466.219 353.193C466.327 353.28 466.469 353.324 466.614 353.318C470.306 353.088 474.689 354.732 476.461 356.977C476.51 357.041 476.576 357.093 476.654 357.128C476.731 357.162 476.818 357.178 476.904 357.174Z" fill="#F0F0F0"/>
<path d="M535.645 385.339C536.027 390.225 536.876 393.457 538.846 396.294C540.815 399.132 544.373 399.997 547.992 399.11C551.611 398.222 556.202 395.922 557.174 391.682C558.147 387.443 557.901 384.561 557.014 380.037L535.645 385.339Z" fill="#263238"/>
<path d="M550.971 350.854C552.202 351.215 552.657 357.898 553.617 364.47C554.639 371.504 556.079 373.618 556.941 379.38C557.987 385.953 557.507 388.144 555.045 392.219C552.583 396.295 543.684 400.271 539.191 394.607C535.498 389.995 535.436 385.559 535.67 378.964C535.897 373.727 535.798 368.482 535.375 363.254C535.006 358.314 532.15 353.647 533.43 353.088C533.61 354.344 533.927 355.58 534.378 356.78C534.54 357.42 534.814 358.034 535.19 358.599C535.904 359.519 536.224 358.007 536.212 357.437C536.212 356.462 535.83 355.685 536.655 354.863C537.285 354.329 538.036 353.922 538.858 353.669C539.729 353.335 540.636 353.085 541.566 352.924C543.467 352.619 545.398 352.494 547.327 352.552C547.745 352.527 548.163 352.588 548.549 352.731C548.936 352.873 549.28 353.093 549.555 353.373C549.665 353.531 549.74 353.706 549.777 353.888C549.937 354.534 549.863 355.203 550.023 355.849C550.023 356.024 550.146 356.495 550.331 356.605C550.515 356.714 550.835 356.66 550.848 356.528C550.86 356.397 551.119 352.004 550.971 350.854Z" fill="#37474F"/>
<path d="M556.596 377.123C556.756 378.076 557.568 384.014 555.709 385.175C553.851 386.336 552.509 381.494 552.509 381.494C552.509 381.494 547.72 380.212 540.84 383.083C541.209 384.101 540.187 387.464 538.279 386.796C536.371 386.128 535.657 379.632 535.645 379.533C535.448 385.865 535.645 390.127 539.19 394.607C543.683 400.271 552.57 396.239 555.045 392.219C557.519 388.198 557.987 385.975 556.94 379.38C556.842 378.722 556.743 377.726 556.596 377.123Z" fill="#455A64"/>
<path d="M551.968 381.922C552.042 384.31 554.356 383.455 554.664 380.092C555.119 375.053 553.679 370.233 553.617 364.47C552.657 357.898 552.46 350.941 550.971 350.854C551.045 351.949 550.848 356.528 550.848 356.528C551.389 361.447 552.879 367.176 552.743 372.259C552.62 376.729 551.906 379.534 551.968 381.922Z" fill="#263238"/>
<path d="M541.64 383.006C541.11 380.661 540.273 380.004 539.683 375.567C539.092 371.131 536.347 363.199 535.214 358.357C534.919 356.878 533.442 353.088 533.429 353.044C532.506 353.46 533.429 356.221 534.217 359.179C535.005 362.137 535.51 363.966 536.027 366.847C537.393 372.511 537.664 378.547 538.562 381.823C539.461 385.098 542.169 385.339 541.64 383.006Z" fill="#263238"/>
<path d="M541.049 383.127C541.118 383.12 541.185 383.101 541.246 383.072C544.799 381.494 548.856 381.057 552.73 381.834C552.875 381.864 553.028 381.841 553.155 381.771C553.281 381.702 553.372 381.59 553.407 381.461C553.441 381.332 553.418 381.196 553.343 381.082C553.267 380.968 553.145 380.884 553.001 380.848C548.85 379.988 544.492 380.457 540.692 382.174C540.563 382.242 540.469 382.352 540.428 382.48C540.387 382.608 540.402 382.745 540.47 382.864C540.523 382.956 540.608 383.031 540.712 383.079C540.815 383.126 540.933 383.143 541.049 383.127Z" fill="#F0F0F0"/>
<path d="M539.473 378.405H539.658C539.719 378.405 546.305 375.502 553.051 376.838C553.197 376.861 553.348 376.833 553.472 376.76C553.595 376.686 553.683 376.573 553.715 376.444C553.745 376.313 553.717 376.178 553.636 376.065C553.556 375.953 553.43 375.873 553.284 375.841C548.499 375.073 543.564 375.651 539.166 377.496C539.098 377.525 539.038 377.565 538.988 377.616C538.939 377.666 538.901 377.724 538.877 377.787C538.853 377.85 538.843 377.917 538.848 377.984C538.853 378.05 538.873 378.115 538.907 378.175C538.966 378.258 539.051 378.324 539.151 378.365C539.252 378.406 539.364 378.42 539.473 378.405Z" fill="#F0F0F0"/>
<path d="M553.752 372.906C553.86 372.895 553.962 372.855 554.046 372.793C554.129 372.731 554.189 372.648 554.22 372.555C554.267 372.429 554.256 372.291 554.189 372.172C554.122 372.053 554.005 371.962 553.863 371.92C547.142 369.926 538.39 372.906 538.107 373.015C537.976 373.082 537.88 373.191 537.839 373.32C537.798 373.449 537.814 373.587 537.886 373.705C537.956 373.82 538.074 373.905 538.215 373.942C538.356 373.979 538.507 373.965 538.636 373.903C538.698 373.903 547.253 370.989 553.518 372.807C553.586 372.857 553.666 372.891 553.752 372.906Z" fill="#F0F0F0"/>
<path d="M552.607 368.644C552.712 368.632 552.812 368.593 552.895 368.533C552.977 368.473 553.039 368.394 553.075 368.305C553.123 368.178 553.113 368.04 553.049 367.92C552.985 367.799 552.87 367.705 552.73 367.658C545.344 365.336 537.823 369.126 537.565 369.28C537.44 369.352 537.352 369.464 537.32 369.593C537.288 369.722 537.314 369.858 537.393 369.97C537.429 370.027 537.478 370.076 537.537 370.115C537.596 370.154 537.663 370.182 537.734 370.198C537.806 370.213 537.88 370.215 537.952 370.204C538.025 370.194 538.094 370.17 538.156 370.134C538.156 370.134 545.48 366.464 552.361 368.622C552.44 368.645 552.524 368.653 552.607 368.644Z" fill="#F0F0F0"/>
<path d="M552.078 363.441C552.182 363.426 552.279 363.387 552.359 363.327C552.439 363.267 552.499 363.189 552.534 363.101C552.582 362.976 552.575 362.839 552.513 362.719C552.451 362.598 552.34 362.504 552.201 362.455C545.271 360.176 537.221 364.054 536.95 364.208C536.82 364.278 536.727 364.391 536.69 364.522C536.653 364.653 536.676 364.792 536.753 364.909C536.787 364.966 536.835 365.016 536.892 365.056C536.949 365.097 537.015 365.126 537.086 365.142C537.156 365.159 537.23 365.162 537.302 365.152C537.374 365.142 537.442 365.119 537.504 365.084C537.578 365.084 545.394 361.294 551.832 363.408C551.91 363.436 551.994 363.447 552.078 363.441Z" fill="#EBEBEB"/>
<path d="M502.841 241.731L497.13 273.347C498.18 279.508 498.592 285.742 498.36 291.97C497.856 301.096 491.886 328.242 489.744 337.915C478.407 344.05 468.018 337.455 468.018 337.455C468.018 337.455 465.051 284.411 464.165 271.605C463.279 258.799 465.396 206.894 466.061 186.595L538.834 186.781C538.834 186.781 540.188 197.736 541.394 214.015C542.6 230.294 545.358 274.004 545.358 274.004C552.743 293.405 549.654 306.146 550.946 342.385C548.108 344.314 544.744 345.533 541.199 345.919C537.655 346.304 534.059 345.84 530.783 344.576C530.783 344.576 520.074 308.983 515.951 294.545C513.981 287.654 506.829 257.692 502.841 241.786" fill="#455A64"/>
<path d="M474.467 218.222L472.51 243.111C472.387 247.088 471.414 255.797 471.34 259.774C471.267 263.75 471.131 267.727 471.34 271.638C471.55 275.549 473.618 307.789 473.273 315.786C472.042 306.946 469.876 279.723 469.334 271.726C469.112 263.674 470.122 254.559 471.291 243.013C472.461 231.466 473.359 226.131 474.467 218.222Z" fill="#37474F"/>
<path d="M514.769 213.96C518.179 227.018 523.779 260.759 525.059 269.83C526.34 278.901 535.732 314.46 536.692 323.564C534.956 314.548 524.382 279.153 523.065 270.071C521.748 260.989 516.898 230.491 514.769 213.96Z" fill="#37474F"/>
<path d="M497.018 217.039L502.841 241.753L497.129 273.369L499.492 246.924L493.165 219.887C493.165 219.887 481.287 216.666 478.185 205.646C484.241 214.486 497.018 217.039 497.018 217.039Z" fill="#37474F"/>
<path d="M478.197 107.489C471.5 108.464 464.952 111.477 459.88 120.449C455.72 127.833 454.76 134.23 448.199 145.897L420.736 145.503L425.66 161.114C425.66 161.114 442.032 163.699 450.5 164.302C456.84 164.751 459.388 163.206 463.241 158.649C468.263 152.635 475.279 138.547 475.279 138.547L478.197 107.489Z" fill="#C8856A"/>
<path d="M478.603 107.151C474.627 107.72 468.386 109.495 464.854 113.252C461.321 117.01 458.157 122.235 455.006 130.583C451.855 138.931 451.227 140.574 451.227 140.574C451.227 140.574 454.378 144.003 461.727 146.249C469.076 148.494 472.498 147.629 472.498 147.629L478.652 128.743L478.603 107.151Z" fill="#0F518A"/>
<path d="M515.901 104.861C526.979 107.052 531.78 108.049 537.036 109.144C537.036 109.144 546.009 125.653 541.307 142.831C540.224 146.785 539.658 158.518 538.919 166.931C538.304 173.844 538.919 183.616 539.768 193.453C539.768 193.453 524.025 202.48 492.993 199.643C468.608 197.452 465.678 189.345 465.678 189.345C465.678 189.345 467.155 158.409 466.983 142.36C466.737 121.008 475.895 110.021 478.64 107.161C479.514 106.712 496.07 104.488 496.07 104.488L515.901 104.861Z" fill="#FAFAFA"/>
<path d="M496.107 105.595L515.802 105.967C526.278 108.06 531.054 109.035 536.199 110.097C537.578 112.891 544.262 127.559 540.15 142.568C539.338 145.504 538.821 152.493 538.316 159.241C538.132 161.816 537.935 164.488 537.725 166.833C537.11 173.734 537.726 183.375 538.513 192.829C535.818 194.154 524.419 199.073 504.798 199.073C500.904 199.071 497.014 198.892 493.141 198.536C471.907 196.597 467.513 190.156 466.946 189.126C467.082 186.157 468.411 157.477 468.239 142.338C468.017 122.115 476.437 111.259 479.391 108.093C481.004 107.709 488.993 106.548 496.157 105.595M496.083 104.499C496.083 104.499 479.527 106.69 478.653 107.172C475.908 110.032 466.75 121.019 466.996 142.371C467.168 158.419 465.691 189.356 465.691 189.356C465.691 189.356 468.621 197.441 493.005 199.654C496.923 200.018 500.859 200.204 504.798 200.212C528.05 200.212 539.818 193.464 539.818 193.464C538.993 183.605 538.353 173.855 538.969 166.942C539.707 158.54 540.274 146.807 541.357 142.842C546.059 125.664 537.085 109.155 537.085 109.155C531.829 108.06 527.066 107.096 515.95 104.872L496.083 104.488V104.499Z" fill="#E0E0E0"/>
<path d="M524.936 66.595C523.459 63.6153 521.502 62.213 520.246 61.7639C520.114 59.1581 519.104 56.6479 517.348 54.5594C515.592 52.471 513.17 50.9009 510.398 50.0531C506.546 49.0114 502.491 48.7016 498.495 49.1438C494.63 49.4287 490.433 49.9435 487.146 48.125C487.029 48.0366 486.881 47.9864 486.727 47.9826C486.628 48.0025 486.535 48.0439 486.457 48.1031C486.105 48.3888 485.853 48.7592 485.733 49.1695C485.613 49.5798 485.629 50.0123 485.78 50.4146C486.104 51.2149 486.671 51.92 487.417 52.4522C484.785 52.6354 482.25 53.4178 480.055 54.7242C477.861 56.0307 476.081 57.8173 474.886 59.9125C474.188 61.8897 474.053 63.9901 474.492 66.0254C474.675 65.4162 475.041 64.8629 475.551 64.4247C476.06 63.9866 476.694 63.6803 477.385 63.5386C476.978 63.6153 476.695 65.6091 476.658 65.9377C476.55 66.8223 476.595 67.7166 476.794 68.5888C477.065 69.6843 477.754 72.1163 478.911 72.7845C480.068 73.4528 481.816 73.0256 483.022 72.9489L490.186 72.4449L505.684 71.3495L509.697 71.0756C509.392 72.5684 509.338 74.0931 509.537 75.6C510.041 79.6642 515.211 83.7395 515.211 83.7395L514.953 89.3922L514.83 97.5098C516.267 97.1023 517.474 96.2202 518.203 95.0449C520.693 91.4123 522.56 87.4688 523.742 83.3451C526.856 72.7736 526.413 69.5748 524.936 66.595Z" fill="#263238"/>
<path d="M523.335 89.8854C518.645 91.9778 516.442 88.6804 516.442 88.6804L515.974 106.898C507.062 117.788 482.813 113.712 492.586 105.518V100.391C491.218 100.346 489.853 100.229 488.5 100.041C484.302 99.5038 481.643 96.8856 480.338 92.8761C478.418 86.9276 477.557 77.3968 479.945 67.2197C480.4 65.2588 481.323 63.1116 483.33 62.2023C488.315 59.9347 493.005 63.0678 500.021 65.4121C502.926 66.3871 509.955 66.7486 511.801 65.9599C509.339 68.3809 510.89 74.5704 511.567 76.5314C512.54 79.3468 513.906 80.7162 514.571 80.8367C517.439 81.3296 517.747 79.1496 519.015 77.9336C519.632 77.4597 520.364 77.1201 521.154 76.9413C521.943 76.7626 522.769 76.7498 523.565 76.9039C524.362 77.0579 525.107 77.3747 525.742 77.8291C526.377 78.2834 526.885 78.863 527.225 79.5221C527.743 80.4283 528.053 81.4172 528.138 82.4312C528.222 83.4452 528.08 84.464 527.718 85.4283C527.356 86.3927 526.782 87.2834 526.029 88.0486C525.277 88.8138 524.361 89.4382 523.335 89.8854Z" fill="#C8856A"/>
<path d="M510.373 95.3732C509.45 99.5032 503.221 102.286 492.611 102.625V100.434C495.221 100.38 497.822 100.142 500.39 99.7223C505.326 98.8897 510.373 95.3732 510.373 95.3732Z" fill="#AF6152"/>
<path d="M499.824 72.0284L504.465 73.7702C504.713 73.2091 504.711 72.5848 504.46 72.0249C504.208 71.465 503.726 71.0117 503.111 70.7576C502.803 70.6399 502.47 70.5795 502.135 70.5802C501.799 70.5809 501.467 70.6426 501.16 70.7617C500.852 70.8807 500.575 71.0544 500.345 71.2723C500.115 71.4901 499.938 71.7474 499.824 72.0284Z" fill="#263238"/>
<path d="M482.358 73.1898L487.208 71.8862C487.124 71.6026 486.977 71.3369 486.776 71.1047C486.574 70.8726 486.323 70.6787 486.036 70.5347C485.749 70.3906 485.432 70.2993 485.105 70.2661C484.778 70.233 484.446 70.2586 484.13 70.3415C483.479 70.5219 482.932 70.9186 482.602 71.4492C482.272 71.9798 482.184 72.6033 482.358 73.1898Z" fill="#263238"/>
<path d="M502.778 76.4541C502.771 76.8167 502.643 77.1692 502.409 77.4668C502.176 77.7643 501.849 77.9935 501.469 78.1251C501.09 78.2568 500.674 78.285 500.277 78.2062C499.879 78.1274 499.516 77.9451 499.235 77.6825C498.954 77.4199 498.767 77.0889 498.697 76.7314C498.628 76.374 498.68 76.0063 498.846 75.675C499.012 75.3438 499.285 75.0639 499.63 74.8711C499.975 74.6782 500.377 74.581 500.784 74.5918C501.053 74.5974 501.317 74.6501 501.563 74.7468C501.808 74.8435 502.03 74.9823 502.215 75.1552C502.4 75.3282 502.545 75.5319 502.642 75.7548C502.739 75.9776 502.785 76.2153 502.778 76.4541Z" fill="#263238"/>
<path d="M487.33 76.279C487.344 76.5303 487.3 76.7814 487.2 77.0168C487.1 77.2521 486.946 77.4665 486.749 77.6467C486.552 77.8268 486.315 77.9688 486.053 78.0638C485.791 78.1588 485.51 78.2047 485.227 78.1986C484.945 78.1926 484.667 78.1347 484.41 78.0287C484.154 77.9226 483.925 77.7707 483.738 77.5823C483.55 77.3939 483.409 77.1732 483.321 76.9338C483.234 76.6945 483.203 76.4418 483.231 76.1914C483.237 75.9526 483.297 75.7172 483.405 75.4987C483.514 75.2803 483.67 75.083 483.864 74.9182C484.058 74.7534 484.287 74.6242 484.538 74.5382C484.788 74.4522 485.055 74.4109 485.324 74.4167C485.601 74.3949 485.88 74.4288 486.14 74.5159C486.401 74.6029 486.636 74.7409 486.829 74.9196C487.021 75.0984 487.166 75.3133 487.253 75.5486C487.34 75.7839 487.366 76.0335 487.33 76.279Z" fill="#263238"/>
<path d="M493.768 74.2091L491.823 85.0545L485.521 83.718C487.206 79.9191 490.066 76.6224 493.768 74.2091Z" fill="#AF6152"/>
<path d="M498.631 86.4015L491.565 88.8663C491.72 89.2918 491.971 89.6845 492.303 90.0206C492.635 90.3566 493.04 90.6288 493.494 90.8206C493.948 91.0124 494.441 91.1197 494.943 91.1359C495.446 91.1521 495.946 91.0769 496.415 90.9149C497.373 90.5684 498.14 89.9025 498.554 89.0593C498.968 88.2161 498.996 87.2624 498.631 86.4015Z" fill="#AF6152"/>
<path d="M497.941 87.5845C498.238 87.5123 498.544 87.4718 498.852 87.464C498.893 88.1909 498.677 88.911 498.236 89.5238C497.794 90.1365 497.149 90.6113 496.39 90.8819C495.995 91.0095 495.579 91.0761 495.159 91.0791C495.022 90.2892 495.236 89.4829 495.755 88.8307C496.274 88.1785 497.058 87.7316 497.941 87.5845Z" fill="#F28F8F"/>
<path d="M414.705 123.21L416.503 122.115C416.764 121.996 417.053 121.935 417.346 121.935C417.639 121.935 417.928 121.996 418.189 122.115L464.275 138.93C465.124 139.286 465.876 139.801 466.48 140.44C467.083 141.08 467.524 141.828 467.771 142.633L475.908 176.506C476.028 176.785 476.049 177.09 475.967 177.38C475.886 177.67 475.706 177.931 475.452 178.127L473.606 179.223C473.345 179.349 473.053 179.415 472.756 179.415C472.46 179.415 472.168 179.349 471.907 179.223L425.821 162.374C424.971 162.016 424.219 161.499 423.616 160.858C423.012 160.217 422.572 159.467 422.325 158.66C420.725 152.022 415.764 131.525 414.151 124.886C413.954 124.054 414.188 123.462 414.705 123.21Z" fill="#0F518A"/>
<path opacity="0.7" d="M414.705 123.21L416.503 122.115C416.764 121.996 417.053 121.935 417.346 121.935C417.639 121.935 417.928 121.996 418.189 122.115L464.275 138.93C465.124 139.286 465.876 139.801 466.48 140.44C467.083 141.08 467.524 141.828 467.771 142.633L475.908 176.506C476.028 176.785 476.049 177.09 475.967 177.38C475.886 177.67 475.706 177.931 475.452 178.127L473.606 179.223C473.345 179.349 473.053 179.415 472.756 179.415C472.46 179.415 472.168 179.349 471.907 179.223L425.821 162.374C424.971 162.016 424.219 161.499 423.616 160.858C423.012 160.217 422.572 159.467 422.325 158.66C420.725 152.022 415.764 131.525 414.151 124.886C413.954 124.054 414.188 123.462 414.705 123.21Z" fill="white"/>
<path d="M464.238 141.155C465.061 141.872 465.652 142.772 465.949 143.762L474.123 177.536C474.231 177.809 474.251 178.103 474.181 178.385C474.112 178.668 473.955 178.928 473.729 179.135L475.464 178.106C475.72 177.908 475.901 177.646 475.985 177.354C476.069 177.063 476.05 176.755 475.932 176.473L467.759 142.688C467.487 141.763 466.948 140.917 466.195 140.234L464.238 141.155Z" fill="#0F518A"/>
<path d="M474.11 177.535L465.937 143.75C465.688 142.947 465.248 142.201 464.647 141.562C464.046 140.923 463.298 140.407 462.453 140.048L416.355 123.243C414.779 122.673 413.794 123.407 414.151 124.886C415.764 131.525 420.724 152.021 422.325 158.66C422.572 159.467 423.012 160.217 423.616 160.858C424.219 161.499 424.971 162.016 425.821 162.374L471.919 179.179C473.483 179.792 474.467 179.014 474.11 177.535Z" fill="#0F518A"/>
<path opacity="0.4" d="M474.11 177.535L465.937 143.75C465.688 142.947 465.248 142.201 464.647 141.562C464.046 140.923 463.298 140.407 462.453 140.048L416.355 123.243C414.779 122.673 413.794 123.407 414.151 124.886C415.764 131.525 420.724 152.021 422.325 158.66C422.572 159.467 423.012 160.217 423.616 160.858C424.219 161.499 424.971 162.016 425.821 162.374L471.919 179.179C473.483 179.792 474.467 179.014 474.11 177.535Z" fill="white"/>
<path d="M464.953 150.554L463.414 144.233C463.368 144.081 463.286 143.94 463.173 143.819C463.061 143.698 462.92 143.6 462.762 143.532L459.598 142.381C459.303 142.272 459.118 142.381 459.18 142.688C459.475 143.937 460.41 147.771 460.706 149.009C460.752 149.161 460.834 149.302 460.946 149.423C461.059 149.544 461.199 149.642 461.358 149.71L464.534 150.86C464.866 150.959 465.051 150.828 464.953 150.554Z" fill="#455A64"/>
<path d="M463.094 145.657C462.97 145.281 462.757 144.934 462.468 144.639C462.179 144.344 461.821 144.108 461.42 143.948C460.669 143.663 460.189 143.948 460.349 144.66C460.47 145.037 460.681 145.386 460.967 145.683C461.254 145.979 461.61 146.217 462.011 146.38C462.774 146.654 463.254 146.336 463.094 145.657Z" fill="#263238"/>
<path d="M463.82 148.845C463.695 148.47 463.483 148.122 463.197 147.826C462.91 147.529 462.556 147.29 462.158 147.125C461.395 146.851 460.927 147.125 461.075 147.848C461.198 148.225 461.412 148.574 461.701 148.871C461.99 149.167 462.347 149.405 462.749 149.568C463.5 149.842 463.992 149.524 463.82 148.845Z" fill="#263238"/>
<path d="M415.715 144.814C414.225 142.732 414.398 142.48 415.321 141.527C416.025 140.743 416.93 140.12 417.96 139.71C418.99 139.301 420.115 139.116 421.242 139.172C423.211 139.314 425.218 139.369 426.165 139.884C427.113 140.399 426.165 142.272 423.568 142.666C419.469 143.291 419.432 144.266 419.432 144.266C419.432 144.266 423.211 143.707 424.725 143.696C426.724 143.92 428.7 144.287 430.634 144.792C432.32 145.109 432.554 147.092 429.612 147.629L432.714 148.221C434.893 148.637 435.582 149.71 433.785 150.839C433.202 151.233 432.485 151.437 431.754 151.419C431.754 151.419 434.093 151.518 434.105 152.219C434.105 154.202 432.652 154.662 427.852 155.659C423.273 156.612 422.214 158.726 423.026 160.26C423.026 160.26 421.266 159.241 419.703 158.168C418.57 157.379 417.61 156.513 418.238 154.881C418.238 154.881 415.665 154.805 415.592 153.38C415.615 152.337 415.888 151.31 416.392 150.368C415.951 150.108 415.602 149.743 415.384 149.315C415.167 148.887 415.089 148.412 415.161 147.947C415.213 147.049 415.593 146.191 416.244 145.504L415.715 144.814Z" fill="#C8856A"/>
<path d="M429.673 147.585C428.746 147.371 427.798 147.235 426.842 147.18C425.874 147.262 424.927 147.48 424.035 147.826C422.268 148.43 420.559 149.163 418.927 150.017C420.767 149.675 422.57 149.195 424.319 148.582C425.148 148.254 426.009 147.994 426.891 147.804C427.741 147.673 428.738 147.706 429.673 147.585Z" fill="#AF6152"/>
<path d="M431.815 151.375C430.828 151.067 429.769 150.988 428.738 151.145C427.721 151.285 426.723 151.516 425.759 151.835C423.834 152.425 421.985 153.196 420.244 154.136C422.204 153.692 424.135 153.154 426.03 152.525C427.861 151.825 429.823 151.435 431.815 151.375Z" fill="#AF6152"/>
<path d="M504.982 137.189C501.203 134.329 499.271 133.201 497.461 132.642C495.652 132.084 489.325 129.356 486.875 128.622C485.312 128.184 484.524 130.386 486.42 132.029C487.885 133.3 491.799 135.074 493.51 136.027C495.221 136.98 498.434 140.924 498.434 140.924L504.982 137.189Z" fill="#AF6152"/>
<path d="M552.829 122.016C549.407 114.348 546.071 112.047 537.196 109.473C527.693 116.758 533.011 136.915 533.011 136.915L541.27 157.882C541.27 157.882 522.301 152.241 519.716 150.565C517.131 148.888 510.423 141.603 508.158 139.412C505.056 136.422 503.407 136.707 501.72 136.838C496.193 137.265 494.975 137.605 493.768 138.196C493.403 138.384 493.098 138.651 492.883 138.974C492.667 139.296 492.548 139.662 492.537 140.037C491.073 140.114 488.844 139.96 488.475 142.064C488.317 142.618 488.246 143.19 488.266 143.762C487.892 143.798 487.544 143.949 487.281 144.189C485.989 145.372 487.761 149.798 489.005 150.926C489.879 151.715 491.196 151.879 492.931 151.77C494.421 151.671 493.83 150.302 493.83 150.302L495.885 150.521C500.132 153.577 499.972 159.164 505.733 160.72C508.151 161.072 510.528 161.618 512.836 162.352C525.231 166.844 541.147 179.453 552.324 180.975C563.279 182.432 564.695 176.736 564.633 170.722C564.658 161.169 556.226 129.674 552.829 122.016Z" fill="#C8856A"/>
<path d="M492.611 140.081L499.578 139.884L492.783 139.292C492.674 139.544 492.615 139.811 492.611 140.081Z" fill="#AF6152"/>
<path d="M488.34 143.805L495.874 143.356L488.39 143.038C488.341 143.291 488.324 143.548 488.34 143.805Z" fill="#AF6152"/>
<path d="M494.581 149.403C494.159 149.046 493.868 148.584 493.744 148.078C492.873 148.018 492.006 147.919 491.147 147.782C490.812 147.692 490.483 147.586 490.162 147.464C489.762 147.312 489.405 147.084 489.115 146.796C489.343 147.147 489.675 147.435 490.076 147.628C490.42 147.803 490.788 147.94 491.171 148.034L491.54 148.877C491.255 148.886 490.978 148.966 490.74 149.107C490.413 149.314 490.164 149.604 490.026 149.94C490.236 149.659 490.514 149.423 490.839 149.25C491.156 149.112 491.516 149.073 491.86 149.14C492.693 149.288 493.427 149.721 493.904 150.345L495.959 150.564C495.471 150.205 495.011 149.817 494.581 149.403Z" fill="#AF6152"/>
<path d="M541.271 157.882C546.01 158.978 551.992 163.677 553.149 166.044C551.783 160.873 548.225 156.557 540.089 154.902L541.271 157.882Z" fill="#AF6152"/>
<path d="M537.036 109.144C544.791 110.864 549.345 112.814 552.435 119.923C555.525 127.033 561.605 149.962 561.605 149.962C561.605 149.962 561.089 151.353 552.435 153.172C543.781 154.99 538.168 153.172 538.168 153.172C538.168 153.172 533.589 140.332 532.014 136.553C530.438 132.773 526.647 114.785 537.036 109.144Z" fill="#0F518A"/>
<path d="M111.512 125.883L113.666 119.891C114.835 115.06 92.6661 126.464 91.509 131.284L98.6608 148.396C98.916 148.913 99.3464 149.345 99.8917 149.634C101.467 150.499 107.277 153.391 107.745 153.665C108.144 153.885 108.594 154.02 109.061 154.062C109.528 154.104 109.999 154.05 110.44 153.905C110.88 153.761 111.277 153.529 111.602 153.227C111.926 152.925 112.169 152.562 112.312 152.164L121.519 123.923C122.086 121.534 116.977 123.101 111.512 125.883Z" fill="#0F518A"/>
<path opacity="0.2" d="M111.512 125.883L113.666 119.891C114.835 115.06 92.6661 126.464 91.509 131.284L98.6608 148.396C98.916 148.913 99.3464 149.345 99.8917 149.634C101.467 150.499 107.277 153.391 107.745 153.665C108.144 153.885 108.594 154.02 109.061 154.062C109.528 154.104 109.999 154.05 110.44 153.905C110.88 153.761 111.277 153.529 111.602 153.227C111.926 152.925 112.169 152.562 112.312 152.164L121.519 123.923C122.086 121.534 116.977 123.101 111.512 125.883Z" fill="white"/>
<path d="M139.725 11.8535L55.4428 55.1145C54.6183 55.5975 53.9318 56.2451 53.4381 57.0059C52.9445 57.7666 52.6573 58.6195 52.5994 59.4965V148.363C52.6452 149.245 52.9299 150.104 53.4293 150.867C53.9287 151.63 54.6279 152.274 55.4675 152.745L60.6743 155.363C61.5602 155.76 62.5383 155.967 63.5301 155.967C64.5219 155.967 65.5 155.76 66.3859 155.363L150.668 112.102C151.494 111.62 152.182 110.973 152.676 110.212C153.169 109.451 153.456 108.597 153.512 107.72V18.8209C153.466 17.9388 153.181 17.0797 152.682 16.3167C152.182 15.5537 151.483 14.9095 150.644 14.4389L145.437 11.8207C144.548 11.4289 143.568 11.2278 142.577 11.2335C141.585 11.2392 140.608 11.4516 139.725 11.8535Z" fill="#0F518A"/>
<path opacity="0.2" d="M139.725 11.8535L55.4428 55.1145C54.6183 55.5975 53.9318 56.2451 53.4381 57.0059C52.9445 57.7666 52.6573 58.6195 52.5994 59.4965V148.363C52.6452 149.245 52.9299 150.104 53.4293 150.867C53.9287 151.63 54.6279 152.274 55.4675 152.745L60.6743 155.363C61.5602 155.76 62.5383 155.967 63.5301 155.967C64.5219 155.967 65.5 155.76 66.3859 155.363L150.668 112.102C151.494 111.62 152.182 110.973 152.676 110.212C153.169 109.451 153.456 108.597 153.512 107.72V18.8209C153.466 17.9388 153.181 17.0797 152.682 16.3167C152.182 15.5537 151.483 14.9095 150.644 14.4389L145.437 11.8207C144.548 11.4289 143.568 11.2278 142.577 11.2335C141.585 11.2392 140.608 11.4516 139.725 11.8535Z" fill="white"/>
<path d="M150.668 17.3522L66.3857 60.6242C65.557 61.1033 64.8675 61.75 64.3733 62.5116C63.8791 63.2731 63.5943 64.1279 63.5422 65.0061V153.883C63.5422 155.494 64.7732 156.151 66.3857 155.34L100.557 137.813L106.49 152.404C106.74 152.917 107.16 153.349 107.693 153.643C108.226 153.938 108.847 154.081 109.474 154.054C110.101 154.026 110.703 153.83 111.202 153.49C111.7 153.151 112.07 152.684 112.263 152.153L120.289 127.679L150.68 112.079C151.506 111.598 152.194 110.95 152.688 110.189C153.182 109.428 153.468 108.575 153.524 107.697V18.8202C153.524 17.1989 152.293 16.5635 150.668 17.3522Z" fill="#0F518A"/>
<path opacity="0.4" d="M150.668 17.3522L66.3857 60.6242C65.557 61.1033 64.8675 61.75 64.3733 62.5116C63.8791 63.2731 63.5943 64.1279 63.5422 65.0061V153.883C63.5422 155.494 64.7732 156.151 66.3857 155.34L100.557 137.813L106.49 152.404C106.74 152.917 107.16 153.349 107.693 153.643C108.226 153.938 108.847 154.081 109.474 154.054C110.101 154.026 110.703 153.83 111.202 153.49C111.7 153.151 112.07 152.684 112.263 152.153L120.289 127.679L150.68 112.079C151.506 111.598 152.194 110.95 152.688 110.189C153.182 109.428 153.468 108.575 153.524 107.697V18.8202C153.524 17.1989 152.293 16.5635 150.668 17.3522Z" fill="white"/>
<path opacity="0.7" d="M153.524 18.3608C153.303 17.0791 152.133 16.6299 150.705 17.3529L66.3982 60.6249C65.5462 61.1077 64.8505 61.7798 64.3794 62.5749L53.4856 56.9769C53.9639 56.2386 54.6406 55.6175 55.4551 55.1693L139.725 11.8536C140.611 11.4567 141.589 11.25 142.581 11.25C143.573 11.25 144.551 11.4567 145.437 11.8536L150.644 14.4718C151.411 14.8964 152.066 15.4638 152.563 16.1352C153.06 16.8066 153.388 17.5659 153.524 18.3608Z" fill="white"/>
<path d="M123.44 68.5008L120.67 69.914V59.211C120.67 51.2687 115.229 47.5988 108.533 51.0387C101.837 54.4785 96.3837 63.7464 96.3837 71.6887V82.4026L93.6264 83.8158C91.1645 85.0646 89.2319 88.4059 89.2319 91.2651V120.778C89.2319 123.199 90.6475 124.568 92.6416 124.064C103.092 121.566 113.962 115.979 124.424 107.73C125.481 106.871 126.321 105.822 126.886 104.652C127.486 103.481 127.809 102.214 127.834 100.927V71.4477C127.81 68.5775 125.852 67.252 123.44 68.5008ZM112.361 105.035L104.606 109.023L105.96 98.0681C104.594 97.7614 103.671 96.4468 103.671 94.3982C103.671 91.2432 105.825 87.5843 108.472 86.2149C111.118 84.8456 113.297 86.3026 113.297 89.5014C113.215 91.6324 112.437 93.696 111.056 95.439L112.361 105.035ZM115.685 72.4336L101.369 79.7953V69.1471C101.369 64.4694 104.582 59.0029 108.533 56.9762C112.484 54.9496 115.685 57.1077 115.685 61.7964V72.4336Z" fill="#FAFAFA"/>
</svg>
