<svg width="40" height="40" viewBox="0 0 40 40" fill="none" xmlns="http://www.w3.org/2000/svg">
<path d="M13.3334 12.0833C14.0238 12.0833 14.5834 12.643 14.5834 13.3333V15.4167H16.6667C17.3571 15.4167 17.9167 15.9763 17.9167 16.6667C17.9167 17.357 17.3571 17.9167 16.6667 17.9167H14.5834V20C14.5834 20.6904 14.0238 21.25 13.3334 21.25C12.643 21.25 12.0834 20.6904 12.0834 20V17.9167H10.0001C9.30971 17.9167 8.75007 17.357 8.75007 16.6667C8.75007 15.9763 9.30971 15.4167 10.0001 15.4167H12.0834V13.3333C12.0834 12.643 12.643 12.0833 13.3334 12.0833Z" fill="#0A365C"/>
<path d="M28.3334 19.5833C28.3334 18.6629 27.5872 17.9167 26.6667 17.9167C25.7463 17.9167 25.0001 18.6629 25.0001 19.5833V20C25.0001 20.9205 25.7463 21.6667 26.6667 21.6667C27.5872 21.6667 28.3334 20.9205 28.3334 20V19.5833Z" fill="#0A365C"/>
<path d="M26.6667 11.6667C27.5872 11.6667 28.3334 12.4129 28.3334 13.3333V13.75C28.3334 14.6705 27.5872 15.4167 26.6667 15.4167C25.7463 15.4167 25.0001 14.6705 25.0001 13.75V13.3333C25.0001 12.4129 25.7463 11.6667 26.6667 11.6667Z" fill="#0A365C"/>
<path d="M31.6667 16.6667C31.6667 17.5871 30.9205 18.3333 30.0001 18.3333H29.5834C28.6629 18.3333 27.9167 17.5871 27.9167 16.6667C27.9167 15.7462 28.6629 15 29.5834 15H30.0001C30.9205 15 31.6667 15.7462 31.6667 16.6667Z" fill="#0A365C"/>
<path d="M23.7501 18.3333C24.6705 18.3333 25.4167 17.5871 25.4167 16.6667C25.4167 15.7462 24.6705 15 23.7501 15H23.3334C22.4129 15 21.6667 15.7462 21.6667 16.6667C21.6667 17.5871 22.4129 18.3333 23.3334 18.3333H23.7501Z" fill="#0A365C"/>
<path fill-rule="evenodd" clip-rule="evenodd" d="M21.2501 5C21.2501 4.30964 20.6904 3.75 20.0001 3.75C19.3097 3.75 18.7501 4.30964 18.7501 5V7.47813C16.3516 7.5109 13.954 7.63803 11.563 7.85951L11.0104 7.91071C7.02418 8.27995 3.95471 11.5901 3.88687 15.5928L3.86672 16.7819C3.78788 21.4337 4.16285 26.0821 4.98631 30.6611C5.39457 32.9314 7.37014 34.5833 9.67681 34.5833H10.0452C12.1042 34.5833 13.9697 33.37 14.8044 31.4879L16.5721 27.5024C17.8906 24.5296 22.1095 24.5296 23.428 27.5024L25.1957 31.4879C26.0305 33.37 27.896 34.5833 29.9549 34.5833H30.3233C32.63 34.5833 34.6056 32.9314 35.0138 30.6611C35.8373 26.0821 36.2123 21.4337 36.1334 16.7819L36.1133 15.5928C36.0454 11.5901 32.976 8.27995 28.9898 7.91071L28.4371 7.85951C26.0461 7.63803 23.6486 7.5109 21.2501 7.47813V5ZM11.7936 10.3489C17.2529 9.84316 22.7472 9.84316 28.2065 10.3489L28.7592 10.4001C31.4756 10.6517 33.5674 12.9074 33.6136 15.6351L33.6338 16.8242C33.7099 21.3135 33.348 25.7996 32.5533 30.2186C32.3592 31.2979 31.42 32.0833 30.3233 32.0833H29.9549C28.8847 32.0833 27.9149 31.4526 27.481 30.4743L25.7133 26.4888C23.5158 21.5341 16.4843 21.5341 14.2868 26.4888L12.5191 30.4743C12.0852 31.4526 11.1155 32.0833 10.0452 32.0833H9.67681C8.58016 32.0833 7.64093 31.2979 7.44684 30.2186C6.65215 25.7996 6.29028 21.3135 6.36636 16.8242L6.38652 15.6351C6.43275 12.9074 8.52449 10.6517 11.2409 10.4001L11.7936 10.3489Z" fill="#0A365C"/>
</svg>
