<svg width="69" height="69" viewBox="0 0 69 69" fill="none" xmlns="http://www.w3.org/2000/svg">
<rect width="69" height="69" rx="8" fill="white"/>
<path d="M34.5 26.1667V49.5001" stroke="#0B3C66" stroke-width="2.33333" stroke-linecap="round" stroke-linejoin="round"/>
<path d="M19.5002 44.5C19.0581 44.5 18.6342 44.3244 18.3217 44.0118C18.0091 43.6993 17.8335 43.2754 17.8335 42.8333V21.1667C17.8335 20.7246 18.0091 20.3007 18.3217 19.9882C18.6342 19.6756 19.0581 19.5 19.5002 19.5H27.8335C29.6016 19.5 31.2973 20.2024 32.5475 21.4526C33.7978 22.7029 34.5002 24.3986 34.5002 26.1667C34.5002 24.3986 35.2025 22.7029 36.4528 21.4526C37.703 20.2024 39.3987 19.5 41.1668 19.5H49.5002C49.9422 19.5 50.3661 19.6756 50.6787 19.9882C50.9912 20.3007 51.1668 20.7246 51.1668 21.1667V42.8333C51.1668 43.2754 50.9912 43.6993 50.6787 44.0118C50.3661 44.3244 49.9422 44.5 49.5002 44.5H39.5002C38.1741 44.5 36.9023 45.0268 35.9646 45.9645C35.0269 46.9021 34.5002 48.1739 34.5002 49.5C34.5002 48.1739 33.9734 46.9021 33.0357 45.9645C32.098 45.0268 30.8262 44.5 29.5002 44.5H19.5002Z" stroke="#0B3C66" stroke-width="2.33333" stroke-linecap="round" stroke-linejoin="round"/>
</svg>
