<svg width="69" height="69" viewBox="0 0 69 69" fill="none" xmlns="http://www.w3.org/2000/svg">
<rect width="69" height="69" rx="8" fill="white"/>
<path d="M41.1668 49.5V46.1667C41.1668 44.3986 40.4645 42.7029 39.2142 41.4526C37.964 40.2024 36.2683 39.5 34.5002 39.5H24.5002C22.7321 39.5 21.0364 40.2024 19.7861 41.4526C18.5359 42.7029 17.8335 44.3986 17.8335 46.1667V49.5" stroke="#0A365C" stroke-width="2.5" stroke-linecap="round" stroke-linejoin="round"/>
<path d="M29.5002 32.8333C33.1821 32.8333 36.1668 29.8486 36.1668 26.1667C36.1668 22.4848 33.1821 19.5 29.5002 19.5C25.8183 19.5 22.8335 22.4848 22.8335 26.1667C22.8335 29.8486 25.8183 32.8333 29.5002 32.8333Z" stroke="#0B3C66" stroke-width="2.33333" stroke-linecap="round" stroke-linejoin="round"/>
<path d="M51.1665 49.4999V46.1666C51.1654 44.6894 50.6738 43.2545 49.7688 42.0871C48.8638 40.9196 47.5967 40.0858 46.1665 39.7166" stroke="#0B3C66" stroke-width="2.33333" stroke-linecap="round" stroke-linejoin="round"/>
<path d="M41.1665 19.7166C42.6005 20.0837 43.8716 20.9177 44.7792 22.0871C45.6869 23.2564 46.1796 24.6946 46.1796 26.1749C46.1796 27.6552 45.6869 29.0934 44.7792 30.2627C43.8716 31.4321 42.6005 32.2661 41.1665 32.6332" stroke="#0B3C66" stroke-width="2.33333" stroke-linecap="round" stroke-linejoin="round"/>
</svg>
