<svg width="69" height="69" viewBox="0 0 69 69" fill="none" xmlns="http://www.w3.org/2000/svg">
<rect width="69" height="69" rx="8" fill="white"/>
<path d="M39.5 37.8333C39.8333 36.1666 40.6667 34.9999 42 33.6666C43.6667 32.1666 44.5 29.9999 44.5 27.8333C44.5 25.1811 43.4464 22.6375 41.5711 20.7622C39.6957 18.8868 37.1522 17.8333 34.5 17.8333C31.8478 17.8333 29.3043 18.8868 27.4289 20.7622C25.5536 22.6375 24.5 25.1811 24.5 27.8333C24.5 29.4999 24.8333 31.4999 27 33.6666C28.1667 34.8333 29.1667 36.1666 29.5 37.8333" stroke="#0B3C66" stroke-width="2.5" stroke-linecap="round" stroke-linejoin="round"/>
<path d="M29.5 44.5H39.5" stroke="#0B3C66" stroke-width="2.5" stroke-linecap="round" stroke-linejoin="round"/>
<path d="M31.1665 51.1667H37.8332" stroke="#0B3C66" stroke-width="2.5" stroke-linecap="round" stroke-linejoin="round"/>
</svg>
