<svg width="69" height="69" viewBox="0 0 69 69" fill="none" xmlns="http://www.w3.org/2000/svg">
<rect width="69" height="69" rx="8" fill="white"/>
<path d="M40.2951 35.9834L42.8201 50.1934C42.8484 50.3607 42.8249 50.5327 42.7528 50.6863C42.6807 50.8399 42.5634 50.9679 42.4166 51.0531C42.2698 51.1382 42.1006 51.1766 41.9314 51.1629C41.7623 51.1493 41.6013 51.0843 41.4701 50.9767L35.5034 46.4984C35.2154 46.2832 34.8655 46.1669 34.5059 46.1669C34.1464 46.1669 33.7964 46.2832 33.5084 46.4984L27.5317 50.9751C27.4006 51.0825 27.2398 51.1473 27.0709 51.161C26.902 51.1746 26.7329 51.1364 26.5862 51.0515C26.4395 50.9666 26.3222 50.8389 26.2499 50.6856C26.1777 50.5323 26.1539 50.3606 26.1817 50.1934L28.7051 35.9834" stroke="#0B3C66" stroke-width="2.5" stroke-linecap="round" stroke-linejoin="round"/>
<path d="M34.5 37.8333C40.0228 37.8333 44.5 33.3561 44.5 27.8333C44.5 22.3104 40.0228 17.8333 34.5 17.8333C28.9772 17.8333 24.5 22.3104 24.5 27.8333C24.5 33.3561 28.9772 37.8333 34.5 37.8333Z" stroke="#0B3C66" stroke-width="2.5" stroke-linecap="round" stroke-linejoin="round"/>
</svg>
