<svg width="336" height="240" viewBox="0 0 336 240" fill="none" xmlns="http://www.w3.org/2000/svg">
<path d="M301.942 105.134C298.429 112.962 291.051 118.268 288.432 134.358C287.934 137.428 288.381 142.24 288.432 144.72H280.614C279.132 137.184 278.104 125.836 280.129 115.604C282.531 103.599 290.055 97.0403 295.305 95.7166C301.124 94.2356 305.633 96.8884 301.942 105.134Z" fill="#E0E0E0"/>
<path d="M297.074 99.7525C297.039 99.7223 296.998 99.6984 296.952 99.682C296.906 99.6656 296.856 99.6572 296.806 99.6572C296.756 99.6572 296.707 99.6656 296.661 99.682C296.615 99.6984 296.573 99.7223 296.538 99.7525C288.662 106.854 280.685 124.739 284.888 144.708H285.724C281.362 124.794 289.282 107.244 297.1 100.197C297.165 100.135 297.198 100.054 297.193 99.9705C297.189 99.8875 297.146 99.8093 297.074 99.7525Z" fill="white"/>
<path d="M299.399 131.374C296.091 135.638 293.427 138.237 290.834 144.719H285.89C285.89 130.072 292.52 121.647 295.727 118.588C299.227 115.246 304.311 112.148 308.207 115.072C310.66 116.912 309.421 119.955 307.773 122.358C305.908 125.087 302.408 127.49 299.399 131.374Z" fill="#F0F0F0"/>
<path d="M304.126 118.279C304.099 118.242 304.064 118.209 304.022 118.184C303.98 118.159 303.933 118.141 303.882 118.132C303.832 118.122 303.78 118.122 303.73 118.131C303.679 118.139 303.632 118.156 303.589 118.181C298.071 121.214 289.378 133.989 287.698 144.72H288.477C290.138 134.233 298.735 121.637 304.011 118.735C304.097 118.687 304.157 118.612 304.179 118.527C304.2 118.441 304.181 118.352 304.126 118.279Z" fill="white"/>
<path d="M49.7391 144.616L55.9284 141.579C55.9284 141.579 59.6139 128.559 58.1448 116.874C56.0817 100.425 43.3327 94.2356 38.4847 95.6569C33.6368 97.0782 32.2316 101.863 40.254 111.66C44.987 117.438 50.7994 129.476 49.7391 144.616Z" fill="#F0F0F0"/>
<path d="M52.3007 138.226H52.2432C52.1878 138.217 52.135 138.198 52.0879 138.172C52.0408 138.145 52.0003 138.111 51.9689 138.071C51.9374 138.031 51.9155 137.987 51.9045 137.94C51.8935 137.893 51.8936 137.844 51.9047 137.797C55.2964 122.607 49.056 105.579 41.3273 98.4885C41.255 98.4158 41.2185 98.3222 41.2255 98.2272C41.2325 98.1322 41.2824 98.0432 41.3649 97.9788C41.4473 97.9143 41.556 97.8794 41.668 97.8814C41.78 97.8834 41.8868 97.9221 41.9661 97.9894C49.8288 105.21 56.1906 122.537 52.7478 137.938C52.7253 138.023 52.6681 138.099 52.5862 138.151C52.5044 138.204 52.4032 138.23 52.3007 138.226Z" fill="white"/>
<path d="M34.1607 152.255C33.2346 152.651 30.7755 150.866 30.092 150.432C28.9172 149.676 27.9912 148.677 27.403 147.53C26.7473 146.226 26.5822 144.782 26.9303 143.396C27.1168 142.659 27.3644 141.933 27.6712 141.226L28.5144 139.143C28.8432 138.471 29.0104 137.749 29.0062 137.022C28.872 135.568 27.4221 134.488 26.1 133.555C24.6373 132.524 23.1299 131.179 23.2384 129.438C23.4324 128.089 24.144 126.833 25.2632 125.863C26.3043 124.854 27.5243 123.969 28.4569 122.895C29.2012 122.149 29.6226 121.209 29.6513 120.232C29.5943 119.63 29.3921 119.044 29.0573 118.512C28.4185 117.346 27.5052 116.266 27.0836 115.024C26.662 113.781 26.8153 112.273 27.9842 111.449C28.9487 110.771 30.322 110.727 31.5611 110.852C32.7087 111.026 33.7983 111.409 34.7547 111.975C37.9484 113.651 39.5835 117.009 42.9688 118.338C44.2463 118.854 45.7281 119.016 47.1014 119.385C48.4746 119.754 49.8543 120.421 50.4292 121.555C51.5725 123.763 49.0623 126.313 49.7904 128.635C50.4611 130.691 52.7286 131.564 53.9166 133.441C54.399 134.269 54.5579 135.206 54.3701 136.116C54.1653 137.658 53.6284 139.154 52.7861 140.531C51.8432 141.946 50.8002 143.31 49.6627 144.616L34.1607 152.255Z" fill="#E0E0E0"/>
<path d="M43.1222 148.289C43.0131 148.281 42.9123 148.236 42.8417 148.165C42.7711 148.094 42.7365 148.002 42.7453 147.909C44.2272 134.266 37.5397 118.843 32.2829 114.221C32.2393 114.189 32.2039 114.15 32.1791 114.107C32.1543 114.063 32.1406 114.015 32.1389 113.966C32.1372 113.918 32.1475 113.869 32.1692 113.824C32.1909 113.779 32.2235 113.739 32.2649 113.705C32.3063 113.672 32.3555 113.646 32.4094 113.629C32.4633 113.613 32.5206 113.606 32.5777 113.61C32.6348 113.613 32.6904 113.627 32.7409 113.65C32.7913 113.673 32.8355 113.705 32.8706 113.743C38.2295 118.458 45.0575 134.136 43.5565 147.974C43.5467 148.065 43.4959 148.148 43.4147 148.207C43.3336 148.266 43.2286 148.295 43.1222 148.289Z" fill="white"/>
<path d="M41.5251 131.461C41.4852 131.469 41.4436 131.469 41.4037 131.461C36.2939 129.883 29.9066 129.367 29.8172 129.362C29.7098 129.353 29.6106 129.309 29.5412 129.239C29.4718 129.169 29.4378 129.079 29.4467 128.987C29.4497 128.942 29.4638 128.897 29.4881 128.857C29.5123 128.816 29.5462 128.78 29.5876 128.751C29.6289 128.722 29.6769 128.701 29.7285 128.688C29.7801 128.676 29.8342 128.672 29.8874 128.678C29.9577 128.678 36.4919 129.221 41.6848 130.816C41.7812 130.84 41.8635 130.894 41.9153 130.967C41.9671 131.041 41.9847 131.128 41.9647 131.211C41.9446 131.295 41.8884 131.369 41.807 131.42C41.7256 131.47 41.6251 131.493 41.5251 131.483V131.461Z" fill="white"/>
<path d="M68.4093 122.597C13.6574 149.45 13.6574 192.979 68.4157 219.854C123.174 246.729 211.951 246.702 266.709 219.854C321.468 193.006 321.461 149.472 266.709 122.618C211.957 95.7653 123.168 95.749 68.4093 122.597Z" fill="#FAFAFA"/>
<path d="M93.7671 220.272C118.101 220.272 137.827 210.6 137.827 198.67C137.827 186.739 118.101 177.068 93.7671 177.068C69.4337 177.068 49.7075 186.739 49.7075 198.67C49.7075 210.6 69.4337 220.272 93.7671 220.272Z" fill="#E0E0E0"/>
<path d="M241.352 219.968C265.685 219.968 285.411 210.296 285.411 198.366C285.411 186.436 265.685 176.764 241.352 176.764C217.018 176.764 197.292 186.436 197.292 198.366C197.292 210.296 217.018 219.968 241.352 219.968Z" fill="#E0E0E0"/>
<path d="M44.5336 41.8693C31.0053 41.8693 20 34.2744 20 24.9708C20 15.6671 31.0053 8.07227 44.5336 8.07227C58.0619 8.07227 69.0672 15.6671 69.0672 24.9708C69.0672 29.5385 66.3462 33.9381 61.5941 37.1116C62.9354 38.1966 65.2157 38.5492 67.6939 38.0881L68.8564 37.8765L68.2177 38.7174C67.0041 40.2364 64.5578 41.3593 61.6579 41.7174C59.0233 42.1095 56.3102 41.7024 53.9932 40.5673C50.9449 41.4372 47.7494 41.877 44.5336 41.8693ZM44.5336 8.886C31.5355 8.886 20.9581 16.1011 20.9581 24.9708C20.9581 33.8404 31.5099 41.0555 44.5336 41.0555C47.7085 41.0672 50.8631 40.6252 53.8654 39.7481L54.0954 39.683L54.2934 39.7969C56.4471 40.8927 58.9934 41.2933 61.4663 40.9253C63.3463 40.7476 65.1233 40.1043 66.5762 39.0754C64.0212 39.2762 61.7921 38.6469 60.5082 37.3395L60.1889 37.0086L60.5913 36.7536C65.3626 33.6994 68.1091 29.4409 68.1091 24.9708C68.1091 16.1011 57.5317 8.886 44.5336 8.886Z" fill="#EBEBEB"/>
<path d="M291.473 41.8693C277.945 41.8693 266.939 34.2745 266.939 24.9708C266.939 20.4031 269.66 16.0035 274.419 12.83C273.071 11.745 270.791 11.3924 268.319 11.8481L267.15 12.0651L267.789 11.2242C269.002 9.70524 271.455 8.58229 274.348 8.22425C276.983 7.83164 279.696 8.23877 282.013 9.37432C285.06 8.50502 288.253 8.06521 291.466 8.07235C304.995 8.07235 316 15.6672 316 24.9708C316 34.2745 305.007 41.8693 291.473 41.8693ZM270.331 10.8445C272.49 10.8445 274.368 11.4683 275.498 12.6184L275.818 12.9439L275.415 13.2043C270.637 16.2368 267.897 20.5279 267.897 24.9708C267.897 33.8405 278.475 41.0556 291.473 41.0556C304.471 41.0556 315.048 33.8405 315.048 24.9708C315.048 16.1012 304.484 8.88608 291.473 8.88608C288.288 8.87724 285.125 9.32474 282.115 10.2098L281.885 10.2749L281.687 10.1609C279.873 9.11935 277.216 8.69621 274.515 9.02713C272.645 9.21214 270.88 9.857 269.437 10.8824C269.736 10.8562 270.036 10.8435 270.337 10.8445H270.331Z" fill="#EBEBEB"/>
<path d="M164.366 0H207.224C208.137 0 209.013 0.308064 209.659 0.856422C210.304 1.40478 210.667 2.14851 210.667 2.92401V20.5711C210.66 21.3429 210.295 22.081 209.65 22.6247C209.005 23.1684 208.133 23.4735 207.224 23.4734H201.412V28.741C201.413 28.8781 201.365 29.0122 201.274 29.1255C201.183 29.2387 201.054 29.3257 200.903 29.3746C200.752 29.4236 200.587 29.4323 200.431 29.3995C200.274 29.3668 200.133 29.2941 200.026 29.1913L194.028 23.4734H164.366C163.453 23.4734 162.577 23.1654 161.931 22.617C161.286 22.0687 160.923 21.3249 160.923 20.5494V2.92401C160.923 2.14851 161.286 1.40478 161.931 0.856422C162.577 0.308064 163.453 0 164.366 0Z" fill="#146BB8"/>
<path d="M173.487 12.0811H135.802C134.889 12.0811 134.013 12.3892 133.367 12.9375C132.722 13.4859 132.359 14.2296 132.359 15.0051V32.6468C132.359 33.4223 132.722 34.166 133.367 34.7144C134.013 35.2628 134.889 35.5708 135.802 35.5708H141.608V40.833C141.606 40.97 141.654 41.1042 141.745 41.2174C141.836 41.3307 141.966 41.4176 142.117 41.4666C142.268 41.5156 142.432 41.5243 142.589 41.4915C142.746 41.4587 142.887 41.386 142.994 41.2832L149.036 35.5708H173.506C174.419 35.5708 175.295 35.2628 175.94 34.7144C176.586 34.166 176.949 33.4223 176.949 32.6468V14.9943C176.947 14.6098 176.856 14.2294 176.681 13.8749C176.506 13.5203 176.251 13.1985 175.929 12.9279C175.607 12.6573 175.226 12.4433 174.807 12.298C174.388 12.1526 173.939 12.079 173.487 12.0811Z" fill="#146BB8"/>
<g opacity="0.5">
<path d="M173.487 12.0811H135.802C134.889 12.0811 134.013 12.3892 133.367 12.9375C132.722 13.4859 132.359 14.2296 132.359 15.0051V32.6468C132.359 33.4223 132.722 34.166 133.367 34.7144C134.013 35.2628 134.889 35.5708 135.802 35.5708H141.608V40.833C141.606 40.97 141.654 41.1042 141.745 41.2174C141.836 41.3307 141.966 41.4176 142.117 41.4666C142.268 41.5156 142.432 41.5243 142.589 41.4915C142.746 41.4587 142.887 41.386 142.994 41.2832L149.036 35.5708H173.506C174.419 35.5708 175.295 35.2628 175.94 34.7144C176.586 34.166 176.949 33.4223 176.949 32.6468V14.9943C176.947 14.6098 176.856 14.2294 176.681 13.8749C176.506 13.5203 176.251 13.1985 175.929 12.9279C175.607 12.6573 175.226 12.4433 174.807 12.298C174.388 12.1526 173.939 12.079 173.487 12.0811Z" fill="white"/>
</g>
<path d="M210.667 96.9209C210.917 96.8696 211.179 96.8883 211.416 96.9744C211.652 97.0605 211.849 97.2092 211.977 97.3983C212.155 97.2844 212.258 97.0783 212.468 97.0186C212.679 96.9589 212.986 97.1379 213.152 97.317C213.794 98.0409 214.15 98.9191 214.168 99.8254C214.187 100.732 213.867 101.62 213.254 102.362C213.184 102.456 213.087 102.535 212.973 102.59C212.834 102.64 212.683 102.66 212.532 102.65C211.734 102.628 210.941 102.53 210.169 102.357C209.774 102.306 209.399 102.178 209.072 101.983C208.745 101.788 208.475 101.532 208.285 101.234C208.13 100.758 208.147 100.253 208.336 99.7853C208.462 99.1466 208.781 98.5467 209.262 98.0439C209.613 97.7021 210.163 97.0349 210.667 96.9209Z" fill="#AF6152"/>
<path d="M223.269 47.3916C218.415 48.4766 215.387 49.1167 211.229 55.1492C206.369 62.2015 199.841 70.5396 198.863 72.5088C197.075 76.1435 197.088 77.4726 203.245 83.6895C207.077 87.5628 211.255 92.2445 212.609 93.6333C213.248 94.2788 212.609 95.6134 212.277 96.4054C211.74 97.6423 212.411 98.9876 212.021 101.358C211.02 100.964 209.964 100.679 208.879 100.512C208.879 100.512 210.955 98.6187 210.054 97.3547C210.021 97.3062 209.976 97.2642 209.923 97.2314C209.869 97.1986 209.808 97.1758 209.744 97.1645C209.679 97.1532 209.613 97.1537 209.548 97.1659C209.484 97.1782 209.423 97.2018 209.371 97.2354C208.872 97.5609 208.093 98.3204 207.192 99.0527C205.596 100.366 206.017 100.648 206.784 102.888C207.09 103.783 207.914 104.038 211.102 104.564C214.289 105.091 215.24 104.733 219.137 101.928C223.033 99.1232 222.19 91.995 220.242 89.2879C218.294 86.5809 212.334 76.6371 212.334 76.6371L223.231 63.4004L223.269 47.3916Z" fill="#C8856A"/>
<path d="M223.646 46.833C218.434 47.8312 215.752 48.889 212.999 52.1819C210.246 55.4748 198.678 71.6247 198.5 73.0569C200.23 75.3028 208.24 77.3968 212.334 76.6481L212.507 76.9194L223.646 63.802V46.833Z" fill="#146BB8"/>
<path opacity="0.3" d="M223.646 46.833C218.434 47.8312 215.752 48.889 212.999 52.1819C210.246 55.4748 198.678 71.6247 198.5 73.0569C200.23 75.3028 208.24 77.3968 212.334 76.6481L212.507 76.9194L223.646 63.802V46.833Z" fill="black"/>
<path d="M213.401 75.7801L212.909 76.4202C212.909 76.4202 208.176 76.5721 204.306 75.1074C203.168 74.6613 202.179 73.9812 201.428 73.1287C200.677 72.2762 200.189 71.2782 200.007 70.225L200.454 69.4981C200.371 69.4697 200.285 69.4462 200.199 69.4276C199.99 69.3757 199.768 69.3757 199.56 69.4276C199.039 69.6377 198.629 70.0052 198.41 70.4583C198.211 70.8505 198.079 71.2654 198.02 71.6897C197.952 72.071 197.839 72.4454 197.682 72.8072C197.565 73.0101 197.435 73.2075 197.292 73.3986C196.933 73.9826 196.732 74.6277 196.705 75.2864C196.66 75.6711 196.712 76.0595 196.858 76.4256C197.005 76.7464 197.222 77.0408 197.497 77.2936C199.208 78.9211 201.904 79.5124 204.452 79.5449C207.225 79.5883 210.718 79.5449 213.024 78.2213C213.153 78.1672 213.267 78.091 213.359 77.9977C213.452 77.9043 213.52 77.7957 213.561 77.6788C213.593 77.4292 213.388 77.196 213.401 76.9519C213.44 76.781 213.504 76.6151 213.593 76.4582C213.636 76.2196 213.567 75.9761 213.401 75.7801Z" fill="#146BB8"/>
<path opacity="0.6" d="M213.401 75.7801L212.909 76.4202C212.909 76.4202 208.176 76.5721 204.306 75.1074C203.168 74.6613 202.179 73.9812 201.428 73.1287C200.677 72.2762 200.189 71.2782 200.007 70.225L200.454 69.4981C200.371 69.4697 200.285 69.4462 200.199 69.4276C199.99 69.3757 199.768 69.3757 199.56 69.4276C199.039 69.6377 198.629 70.0052 198.41 70.4583C198.211 70.8505 198.079 71.2654 198.02 71.6897C197.952 72.071 197.839 72.4454 197.682 72.8072C197.565 73.0101 197.435 73.2075 197.292 73.3986C196.933 73.9826 196.732 74.6277 196.705 75.2864C196.66 75.6711 196.712 76.0595 196.858 76.4256C197.005 76.7464 197.222 77.0408 197.497 77.2936C199.208 78.9211 201.904 79.5124 204.452 79.5449C207.225 79.5883 210.718 79.5449 213.024 78.2213C213.153 78.1672 213.267 78.091 213.359 77.9977C213.452 77.9043 213.52 77.7957 213.561 77.6788C213.593 77.4292 213.388 77.196 213.401 76.9519C213.44 76.781 213.504 76.6151 213.593 76.4582C213.636 76.2196 213.567 75.9761 213.401 75.7801Z" fill="black"/>
<path d="M254.74 205.321C254.989 208.299 255.563 210.263 256.822 211.994C258.08 213.724 260.386 214.136 262.762 213.708C264.222 213.454 265.583 212.894 266.723 212.079C267.863 211.264 268.745 210.22 269.29 209.042C270.126 207.073 269.756 204.703 269.175 201.958L254.74 205.321Z" fill="#263238"/>
<path d="M264.308 183.508C265.279 183.562 265.63 187.555 266.224 191.547C266.895 195.833 268.466 198.209 269.009 201.095C269.769 205.099 269.475 206.905 267.872 209.357C266.269 211.809 259.939 214.402 257.013 210.958C254.631 208.148 254.458 204.99 254.631 200.987C254.778 196.837 254.925 193.934 254.676 190.772C254.439 187.766 254.145 184.853 254.982 184.511C255.059 184.951 255.129 185.51 255.206 185.944C255.263 186.274 255.385 187.902 255.928 187.913C255.969 187.536 255.969 187.156 255.928 186.779C255.861 186.438 255.95 186.089 256.177 185.803C256.469 185.564 256.847 185.415 257.25 185.379C258.198 185.197 259.158 185.058 260.124 184.962C260.608 184.917 261.094 184.893 261.58 184.891C262.175 184.834 262.774 184.834 263.369 184.891C263.485 184.923 263.593 184.975 263.684 185.044C263.776 185.113 263.849 185.198 263.899 185.293C263.95 185.44 263.97 185.595 263.956 185.748C263.962 186.027 264.007 186.304 264.091 186.573C264.129 186.692 264.225 186.833 264.365 186.806C264.506 186.779 264.518 186.66 264.518 186.562C264.518 186.074 264.435 185.721 264.403 185.162C264.403 184.902 264.327 184.544 264.32 184.284C264.314 184.023 264.333 183.768 264.308 183.508Z" fill="#37474F"/>
<path opacity="0.15" d="M265.502 202.137C265.511 202.214 265.485 202.29 265.429 202.351C265.373 202.412 265.292 202.451 265.202 202.462C265.115 202.465 265.031 202.439 264.965 202.391C264.899 202.343 264.857 202.275 264.848 202.202C264.838 202.129 264.861 202.055 264.913 201.996C264.964 201.936 265.04 201.896 265.125 201.882C265.215 201.874 265.304 201.897 265.375 201.944C265.445 201.992 265.491 202.061 265.502 202.137Z" fill="black"/>
<path opacity="0.15" d="M265.132 199.37C265.141 199.446 265.114 199.522 265.058 199.582C265.002 199.642 264.921 199.68 264.831 199.69C264.787 199.694 264.742 199.691 264.699 199.681C264.656 199.671 264.615 199.653 264.58 199.629C264.545 199.606 264.516 199.576 264.495 199.543C264.473 199.509 264.459 199.473 264.455 199.435C264.446 199.359 264.472 199.283 264.528 199.223C264.584 199.163 264.666 199.124 264.755 199.115C264.799 199.11 264.844 199.113 264.888 199.124C264.931 199.134 264.971 199.152 265.006 199.175C265.041 199.199 265.07 199.229 265.092 199.262C265.113 199.295 265.127 199.332 265.132 199.37Z" fill="black"/>
<path opacity="0.15" d="M264.78 196.755C264.791 196.832 264.766 196.909 264.71 196.97C264.653 197.031 264.571 197.071 264.48 197.08C264.393 197.083 264.309 197.058 264.243 197.009C264.177 196.961 264.136 196.894 264.126 196.82C264.116 196.747 264.139 196.673 264.191 196.614C264.242 196.555 264.318 196.514 264.404 196.5C264.493 196.492 264.583 196.515 264.653 196.562C264.724 196.61 264.769 196.679 264.78 196.755Z" fill="black"/>
<path opacity="0.15" d="M264.436 194.178C264.446 194.255 264.421 194.333 264.365 194.394C264.308 194.455 264.226 194.494 264.135 194.504C264.049 194.506 263.964 194.481 263.898 194.433C263.832 194.384 263.791 194.317 263.781 194.244C263.771 194.17 263.794 194.097 263.846 194.037C263.897 193.978 263.973 193.937 264.059 193.923C264.148 193.916 264.238 193.938 264.308 193.986C264.379 194.033 264.424 194.102 264.436 194.178Z" fill="black"/>
<path opacity="0.15" d="M257.525 194.748C257.532 194.805 257.519 194.861 257.488 194.912C257.457 194.962 257.409 195.003 257.351 195.031C257.292 195.058 257.226 195.07 257.159 195.065C257.093 195.06 257.029 195.039 256.977 195.004C256.925 194.968 256.886 194.921 256.866 194.867C256.845 194.813 256.844 194.755 256.862 194.7C256.88 194.646 256.917 194.597 256.968 194.56C257.019 194.523 257.081 194.5 257.148 194.493C257.237 194.487 257.326 194.51 257.396 194.557C257.466 194.605 257.512 194.673 257.525 194.748Z" fill="black"/>
<path opacity="0.15" d="M257.869 197.347C257.876 197.403 257.864 197.46 257.833 197.51C257.802 197.56 257.754 197.602 257.696 197.629C257.637 197.656 257.57 197.668 257.504 197.664C257.437 197.659 257.374 197.637 257.322 197.602C257.269 197.567 257.231 197.519 257.21 197.465C257.19 197.411 257.189 197.353 257.207 197.298C257.225 197.244 257.262 197.195 257.313 197.158C257.364 197.122 257.426 197.098 257.492 197.092C257.537 197.086 257.582 197.089 257.626 197.099C257.669 197.109 257.71 197.126 257.745 197.15C257.781 197.174 257.81 197.204 257.831 197.238C257.852 197.271 257.865 197.308 257.869 197.347Z" fill="black"/>
<path opacity="0.15" d="M258.221 199.962C258.23 200.038 258.203 200.114 258.147 200.173C258.091 200.233 258.01 200.272 257.92 200.282C257.834 200.284 257.749 200.259 257.683 200.21C257.618 200.162 257.576 200.095 257.566 200.021C257.556 199.948 257.58 199.874 257.631 199.815C257.683 199.756 257.759 199.715 257.844 199.701C257.934 199.694 258.025 199.717 258.095 199.765C258.166 199.814 258.211 199.885 258.221 199.962Z" fill="black"/>
<path opacity="0.15" d="M258.591 202.728C258.602 202.805 258.576 202.883 258.52 202.944C258.464 203.005 258.381 203.044 258.291 203.054C258.204 203.056 258.119 203.031 258.054 202.982C257.988 202.934 257.946 202.867 257.936 202.793C257.927 202.72 257.95 202.647 258.001 202.587C258.053 202.528 258.129 202.487 258.214 202.473C258.304 202.465 258.393 202.488 258.464 202.536C258.534 202.583 258.58 202.652 258.591 202.728Z" fill="black"/>
<path opacity="0.15" d="M261.465 204.003L258.54 184.685L259.792 184.647L261.465 204.003Z" fill="black"/>
<path d="M265.183 202.321H265.132C262.883 201.925 259.818 202.234 258.329 202.863C258.289 202.88 258.242 202.883 258.199 202.871C258.156 202.859 258.12 202.833 258.099 202.798C258.089 202.781 258.082 202.763 258.08 202.743C258.078 202.724 258.081 202.705 258.088 202.687C258.095 202.668 258.107 202.651 258.122 202.637C258.137 202.623 258.155 202.611 258.176 202.603C259.754 201.914 262.845 201.599 265.202 202.017C265.224 202.021 265.245 202.029 265.264 202.039C265.283 202.05 265.299 202.064 265.312 202.08C265.324 202.096 265.333 202.114 265.337 202.133C265.341 202.152 265.341 202.172 265.336 202.191C265.329 202.223 265.311 202.253 265.283 202.276C265.256 202.299 265.221 202.315 265.183 202.321Z" fill="#263238"/>
<path d="M264.812 199.549C264.783 199.557 264.752 199.557 264.723 199.549C262.998 198.876 259.658 199.381 257.959 200.119C257.938 200.127 257.916 200.132 257.893 200.134C257.87 200.135 257.847 200.132 257.826 200.126C257.804 200.12 257.784 200.11 257.767 200.097C257.75 200.084 257.736 200.068 257.726 200.051C257.715 200.033 257.71 200.015 257.708 199.995C257.707 199.976 257.71 199.956 257.717 199.938C257.725 199.92 257.736 199.903 257.751 199.888C257.766 199.873 257.785 199.861 257.805 199.853C259.575 199.083 263.049 198.567 264.831 199.278C264.868 199.29 264.898 199.313 264.917 199.341C264.937 199.37 264.944 199.403 264.938 199.436C264.932 199.469 264.913 199.499 264.885 199.521C264.856 199.544 264.819 199.558 264.78 199.56L264.812 199.549Z" fill="#263238"/>
<path d="M264.461 196.934C264.432 196.942 264.401 196.942 264.372 196.934C262.653 196.261 259.306 196.766 257.607 197.477C257.567 197.494 257.52 197.496 257.477 197.484C257.434 197.472 257.398 197.446 257.378 197.411C257.357 197.376 257.354 197.335 257.368 197.298C257.382 197.261 257.413 197.229 257.454 197.211C259.223 196.44 262.698 195.93 264.512 196.641C264.533 196.649 264.552 196.66 264.568 196.674C264.584 196.688 264.597 196.705 264.605 196.723C264.614 196.741 264.618 196.76 264.617 196.78C264.616 196.799 264.611 196.819 264.602 196.836C264.593 196.863 264.574 196.886 264.549 196.904C264.524 196.921 264.493 196.932 264.461 196.934Z" fill="#263238"/>
<path d="M264.116 194.357C264.087 194.365 264.056 194.365 264.027 194.357C262.302 193.684 258.962 194.189 257.263 194.9C257.222 194.917 257.175 194.919 257.132 194.907C257.089 194.895 257.053 194.869 257.033 194.835C257.022 194.817 257.015 194.798 257.013 194.778C257.011 194.759 257.013 194.739 257.021 194.72C257.028 194.702 257.039 194.684 257.055 194.669C257.07 194.655 257.088 194.642 257.109 194.634C258.878 193.869 262.353 193.354 264.167 194.064C264.188 194.072 264.207 194.083 264.223 194.097C264.239 194.111 264.252 194.128 264.26 194.146C264.269 194.164 264.273 194.184 264.272 194.203C264.271 194.223 264.266 194.242 264.257 194.26C264.248 194.286 264.229 194.31 264.204 194.327C264.179 194.344 264.148 194.355 264.116 194.357Z" fill="#263238"/>
<path d="M233.297 193.413L229.165 192.209L230.417 189.8L233.004 191.742L233.297 193.413Z" fill="black"/>
<path d="M237.296 186.985C237.296 186.985 237.539 189.263 237.603 189.979C237.666 190.695 234.173 193.023 233.298 193.419L233.004 191.742C232.263 192.421 231.835 193.267 231.088 194.515C230.449 195.556 229.631 197.52 227.785 198.887C225.052 200.921 220.715 202.033 216.256 202.288C211.798 202.543 209.23 201.675 207.908 200.878C206.586 200.081 206.177 199.126 206.458 198.166C206.739 197.205 237.296 186.985 237.296 186.985Z" fill="#263238"/>
<path d="M225.083 179.52L224.981 178.202C224.157 178.202 224.125 180.123 222.988 181.831C221.338 184.391 219.31 186.761 216.952 188.884C212.558 192.535 208.598 194.851 206.637 196.479C204.012 198.697 208.879 201.952 216.147 201.41C219.756 201.139 226.124 199.413 227.862 197.536C229.599 195.659 230.608 192.773 232.001 191.406C233.393 190.039 236.472 188.612 237.296 186.974C237.762 186.074 237.424 184.012 237.066 182.26C236.734 180.632 236.593 178.18 235.539 178.408L235.488 179.244C235.079 179.96 234.121 181.153 231.221 181.652C229.772 181.907 225.435 182.135 225.083 179.52Z" fill="#37474F"/>
<path opacity="0.15" d="M228.877 181.788C227.479 181.723 225.971 181.365 225.345 180.307V180.274C225.443 180.729 225.417 181.196 225.27 181.641C225.122 182.085 224.858 182.496 224.496 182.84C223.218 184.18 215.349 193.609 215.349 193.609C215.349 193.609 222.733 185.808 224.144 184.338C226.246 182.168 226.923 181.902 228.909 181.793L228.877 181.788Z" fill="black"/>
<path opacity="0.15" d="M227.153 184.278C227.161 184.327 227.18 184.375 227.21 184.418C227.239 184.461 227.279 184.499 227.325 184.53C227.372 184.56 227.426 184.582 227.483 184.595C227.54 184.607 227.599 184.61 227.657 184.603C227.768 184.581 227.864 184.525 227.928 184.445C227.991 184.366 228.018 184.269 228.002 184.174C227.986 184.079 227.929 183.992 227.841 183.931C227.754 183.87 227.643 183.839 227.53 183.844C227.471 183.851 227.415 183.868 227.364 183.894C227.314 183.92 227.27 183.954 227.235 183.994C227.2 184.034 227.174 184.08 227.16 184.129C227.146 184.178 227.144 184.228 227.153 184.278Z" fill="black"/>
<path opacity="0.15" d="M225.077 186.372C225.093 186.471 225.154 186.561 225.247 186.621C225.341 186.682 225.458 186.71 225.575 186.697C225.694 186.683 225.8 186.629 225.872 186.547C225.944 186.466 225.975 186.364 225.958 186.263C225.955 186.211 225.939 186.159 225.911 186.112C225.883 186.065 225.843 186.024 225.795 185.99C225.747 185.957 225.692 185.932 225.632 185.918C225.572 185.904 225.509 185.901 225.448 185.908C225.386 185.916 225.328 185.934 225.275 185.962C225.222 185.99 225.177 186.027 225.142 186.071C225.107 186.114 225.084 186.164 225.072 186.215C225.061 186.267 225.063 186.321 225.077 186.372Z" fill="black"/>
<path opacity="0.15" d="M223.001 188.466C223.008 188.515 223.027 188.563 223.056 188.606C223.085 188.649 223.124 188.686 223.17 188.716C223.217 188.746 223.27 188.767 223.326 188.78C223.383 188.792 223.442 188.794 223.499 188.786C223.587 188.777 223.67 188.745 223.737 188.696C223.804 188.646 223.852 188.58 223.875 188.507C223.898 188.435 223.895 188.357 223.866 188.286C223.837 188.215 223.784 188.152 223.713 188.107C223.642 188.061 223.557 188.035 223.468 188.03C223.379 188.026 223.291 188.045 223.215 188.083C223.138 188.122 223.077 188.179 223.039 188.247C223.001 188.315 222.988 188.392 223.001 188.466Z" fill="black"/>
<path opacity="0.15" d="M220.925 190.56C220.931 190.61 220.949 190.658 220.978 190.701C221.007 190.745 221.046 190.783 221.092 190.813C221.139 190.844 221.192 190.866 221.249 190.878C221.306 190.891 221.365 190.893 221.423 190.885C221.482 190.879 221.538 190.862 221.589 190.837C221.639 190.812 221.684 190.778 221.72 190.739C221.755 190.699 221.781 190.653 221.796 190.605C221.811 190.557 221.815 190.506 221.807 190.457C221.799 190.407 221.779 190.36 221.75 190.317C221.72 190.273 221.681 190.236 221.634 190.205C221.587 190.175 221.533 190.153 221.477 190.14C221.42 190.128 221.36 190.125 221.302 190.131C221.244 190.138 221.188 190.154 221.137 190.18C221.087 190.205 221.043 190.239 221.008 190.278C220.972 190.318 220.947 190.364 220.933 190.412C220.919 190.461 220.916 190.511 220.925 190.56Z" fill="black"/>
<path opacity="0.15" d="M218.849 192.648C218.856 192.698 218.875 192.745 218.904 192.789C218.933 192.832 218.972 192.87 219.018 192.9C219.064 192.93 219.117 192.952 219.174 192.965C219.231 192.978 219.289 192.981 219.347 192.974C219.465 192.96 219.572 192.907 219.644 192.827C219.715 192.747 219.747 192.645 219.731 192.545C219.715 192.445 219.652 192.355 219.558 192.294C219.463 192.233 219.344 192.206 219.226 192.22C219.168 192.226 219.112 192.243 219.061 192.268C219.011 192.293 218.967 192.327 218.932 192.367C218.897 192.407 218.871 192.452 218.857 192.501C218.843 192.549 218.84 192.599 218.849 192.648Z" fill="black"/>
<path d="M227.6 184.376C227.634 184.371 227.665 184.359 227.691 184.34C227.717 184.321 227.736 184.297 227.746 184.269C227.757 184.242 227.758 184.212 227.751 184.184C227.743 184.156 227.726 184.13 227.702 184.11C227.606 184.039 225.403 182.325 222.592 182.537C222.546 182.542 222.503 182.562 222.473 182.594C222.443 182.625 222.429 182.665 222.433 182.705C222.435 182.725 222.442 182.744 222.453 182.762C222.465 182.78 222.48 182.795 222.498 182.808C222.517 182.82 222.538 182.83 222.561 182.835C222.583 182.841 222.607 182.843 222.631 182.84C225.269 182.64 227.428 184.321 227.453 184.338C227.472 184.354 227.496 184.365 227.521 184.372C227.547 184.379 227.574 184.38 227.6 184.376Z" fill="#263238"/>
<path d="M225.537 186.464C225.578 186.458 225.616 186.441 225.646 186.415C225.663 186.401 225.676 186.384 225.685 186.366C225.694 186.347 225.699 186.327 225.699 186.307C225.699 186.287 225.694 186.267 225.685 186.248C225.676 186.229 225.663 186.212 225.646 186.198C225.55 186.122 223.346 184.408 220.536 184.62C220.489 184.624 220.447 184.643 220.417 184.673C220.387 184.704 220.372 184.743 220.376 184.782C220.381 184.823 220.404 184.861 220.441 184.887C220.478 184.913 220.526 184.926 220.574 184.923C223.206 184.723 225.371 186.399 225.39 186.415C225.409 186.432 225.432 186.445 225.457 186.453C225.483 186.462 225.51 186.465 225.537 186.464Z" fill="#263238"/>
<path d="M223.461 188.564C223.495 188.559 223.526 188.547 223.552 188.528C223.578 188.509 223.597 188.485 223.608 188.457C223.618 188.43 223.62 188.4 223.612 188.372C223.604 188.344 223.587 188.318 223.563 188.298C223.467 188.222 221.264 186.508 218.453 186.725C218.407 186.729 218.364 186.748 218.335 186.778C218.305 186.809 218.29 186.848 218.294 186.887C218.299 186.928 218.322 186.966 218.359 186.992C218.396 187.018 218.444 187.031 218.492 187.028C221.13 186.828 223.289 188.504 223.314 188.52C223.333 188.537 223.356 188.549 223.382 188.557C223.407 188.564 223.434 188.567 223.461 188.564Z" fill="#263238"/>
<path d="M221.385 190.657C221.419 190.653 221.45 190.64 221.476 190.622C221.502 190.603 221.521 190.578 221.532 190.551C221.542 190.524 221.544 190.494 221.536 190.466C221.528 190.438 221.511 190.412 221.487 190.392C221.391 190.316 219.188 188.601 216.377 188.813C216.331 188.82 216.289 188.84 216.26 188.871C216.231 188.902 216.216 188.941 216.218 188.981C216.223 189.022 216.246 189.06 216.283 189.086C216.32 189.112 216.368 189.125 216.416 189.122C219.054 188.921 221.213 190.598 221.238 190.614C221.257 190.631 221.28 190.643 221.306 190.651C221.331 190.658 221.358 190.66 221.385 190.657Z" fill="#263238"/>
<path d="M219.297 192.73C219.318 192.73 219.339 192.725 219.357 192.716C219.376 192.708 219.393 192.696 219.405 192.681C219.422 192.667 219.436 192.65 219.445 192.632C219.454 192.613 219.459 192.593 219.459 192.573C219.459 192.553 219.454 192.533 219.445 192.514C219.436 192.495 219.422 192.478 219.405 192.464C219.309 192.394 217.106 190.68 214.295 190.891C214.253 190.901 214.215 190.923 214.19 190.954C214.165 190.985 214.154 191.022 214.158 191.06C214.163 191.097 214.183 191.132 214.215 191.158C214.248 191.183 214.289 191.199 214.334 191.2C216.965 191 219.13 192.676 219.156 192.692C219.174 192.707 219.197 192.719 219.221 192.725C219.245 192.732 219.271 192.733 219.297 192.73Z" fill="#263238"/>
<path d="M264.263 94.2847C266.23 118.295 266.339 144.286 266.339 144.286C267.229 150.012 267.73 155.778 267.84 161.553C267.936 170.287 266.709 188.965 266.709 188.965C266.709 188.965 260.233 192.904 253.245 189.936C253.245 189.936 248.058 166.295 245.727 153.622C243.862 143.488 241.824 132.921 241.824 132.921L240.272 143.689C241.028 148.179 241.278 152.721 241.02 157.251C240.624 162.351 237.883 183.291 237.883 183.291C237.883 183.291 227.945 187.631 221.372 181.978C221.372 181.978 219.309 149.033 218.888 142.919C218.057 130.892 217.872 109.773 218.211 94.5071L264.263 94.2847Z" fill="#455A64"/>
<path d="M241.818 132.92L237.698 109.659C237.698 109.659 230.877 109.008 227.281 106.366C227.281 106.366 229.676 109.93 236.14 111.15L239.551 130.024L240.266 143.689L241.818 132.92Z" fill="#263238"/>
<path d="M248.16 44.4842C250.888 44.9236 254.184 45.4878 254.184 45.4878C254.184 45.4878 258.853 46.8766 260.309 47.3919C260.309 47.3919 268.108 56.3267 266.09 67.6918C265.668 70.0625 264.563 78.2378 264.601 83.1961C264.646 89.8904 264.844 97.1435 264.844 97.1435C264.844 97.1435 255.902 101.836 236.708 100.87C221.615 100.111 217.974 96.6878 217.974 96.6878C217.974 96.6878 218.147 79.4041 218.364 69.9594C218.645 57.5527 220.433 49.0411 223.646 46.8332L234.313 43.8604L248.16 44.4842Z" fill="#146BB8"/>
<path opacity="0.6" d="M248.16 44.4842C250.888 44.9236 254.184 45.4878 254.184 45.4878C254.184 45.4878 258.853 46.8766 260.309 47.3919C260.309 47.3919 268.108 56.3267 266.09 67.6918C265.668 70.0625 264.563 78.2378 264.601 83.1961C264.646 89.8904 264.844 97.1435 264.844 97.1435C264.844 97.1435 255.902 101.836 236.708 100.87C221.615 100.111 217.974 96.6878 217.974 96.6878C217.974 96.6878 218.147 79.4041 218.364 69.9594C218.645 57.5527 220.433 49.0411 223.646 46.8332L234.313 43.8604L248.16 44.4842Z" fill="black"/>
<path d="M254.72 20.5062C254.079 19.4116 252.975 18.5629 251.629 18.1301C250.894 15.0325 246.104 12.8463 243.146 12.038C239.122 10.953 235.003 11.7396 231.209 13.0633C229.887 13.6058 228.427 13.8577 226.961 13.7957C226.322 13.7306 225.607 13.4702 225.498 12.9385C225.264 13.0693 225.065 13.2392 224.911 13.4379C224.757 13.6366 224.653 13.8599 224.604 14.094C224.264 15.1831 224.402 16.3403 224.994 17.349C224.716 17.4068 224.457 17.5135 224.231 17.6621C224.006 17.8107 223.819 17.9979 223.684 18.2115C223.217 18.8574 222.943 19.5906 222.886 20.3471C222.83 21.1036 222.992 21.8604 223.359 22.5514C224.898 25.4537 228.609 25.47 231.726 26.3L241.013 28.7303L248.799 30.7918L248.678 34.2583V39.2058C249.594 38.9471 250.357 38.3994 250.811 37.676C252.184 35.4724 253.197 33.1197 253.82 30.6833C255.704 24.2006 255.519 21.7268 254.72 20.5062Z" fill="#263238"/>
<path d="M254.081 35.0664C251.086 36.3901 249.642 34.3829 249.642 34.3829L249.515 44.6359C246.321 48.1946 239.902 48.0699 235.546 51.9704C233.84 49.5888 233.508 46.2363 234.517 44.2508L234.453 41.9126C233.573 41.9158 232.693 41.8633 231.822 41.7553C229.133 41.4569 226.827 39.9271 225.952 36.8729C224.892 33.1949 225.026 26.1154 226.112 21.2438C226.527 19.3668 227.223 18.8352 228.5 18.2656C231.694 16.8388 241.109 16.3777 243.74 19.6544C243.434 21.6724 244.188 23.8858 246.385 24.5042C246.557 27.694 247.139 29.2238 248.627 29.7175C249.84 30.119 250.377 28.5295 251.182 27.7754C251.573 27.4808 252.04 27.2675 252.546 27.1523C253.051 27.0371 253.581 27.0232 254.093 27.1115C254.606 27.1999 255.088 27.3881 255.5 27.6615C255.913 27.9349 256.245 28.2858 256.47 28.6868C256.817 29.2371 257.03 29.8408 257.097 30.4622C257.164 31.0836 257.084 31.7102 256.862 32.3049C256.639 32.8996 256.278 33.4504 255.801 33.9247C255.323 34.399 254.739 34.7872 254.081 35.0664Z" fill="#C8856A"/>
<path d="M234.453 41.9183C237.973 41.8206 241.083 41.3758 243.14 40.5892C245.197 39.8026 246.972 37.3668 247.49 34.9907C247.547 36.8949 246.672 40.2963 243.568 41.7664C240.464 43.2365 236.797 43.3939 234.498 43.4969L234.453 41.9183Z" fill="#AF6152"/>
<path d="M237.819 23.6203L240.54 25.1013C240.768 24.7845 240.842 24.4049 240.747 24.0425C240.652 23.6802 240.394 23.3635 240.029 23.1592C239.85 23.0626 239.649 22.9978 239.439 22.9687C239.23 22.9396 239.015 22.9468 238.809 22.9899C238.602 23.0329 238.408 23.111 238.238 23.2193C238.068 23.3276 237.926 23.464 237.819 23.6203Z" fill="#263238"/>
<path d="M226.84 24.2655L229.829 23.1805C229.755 23.0118 229.642 22.8576 229.496 22.7274C229.35 22.5971 229.174 22.4935 228.979 22.423C228.784 22.3524 228.574 22.3163 228.362 22.3169C228.151 22.3175 227.941 22.3548 227.747 22.4265C227.347 22.5761 227.03 22.8502 226.861 23.1924C226.693 23.5345 226.685 23.9186 226.84 24.2655Z" fill="#263238"/>
<path d="M239.544 27.1411C239.541 27.363 239.461 27.5792 239.313 27.7622C239.165 27.9451 238.957 28.0866 238.714 28.1684C238.471 28.2503 238.205 28.2689 237.949 28.2219C237.694 28.1748 237.461 28.0643 237.28 27.9043C237.099 27.7443 236.978 27.5422 236.933 27.3236C236.887 27.1051 236.92 26.88 237.025 26.6771C237.131 26.4742 237.306 26.3026 237.527 26.1843C237.748 26.066 238.005 26.0062 238.267 26.0127C238.611 26.0212 238.938 26.1442 239.177 26.3552C239.416 26.5662 239.548 26.8484 239.544 27.1411Z" fill="#263238"/>
<path d="M230.353 26.7938C230.351 27.016 230.272 27.2328 230.125 27.4164C229.978 27.6001 229.77 27.7424 229.527 27.8251C229.284 27.9078 229.018 27.9272 228.762 27.8808C228.506 27.8343 228.272 27.7242 228.091 27.5644C227.909 27.4047 227.787 27.2025 227.742 26.9838C227.696 26.7651 227.728 26.5397 227.833 26.3365C227.939 26.1333 228.114 25.9614 228.335 25.8428C228.556 25.7243 228.814 25.6644 229.075 25.6709C229.418 25.6807 229.743 25.8034 229.981 26.0129C230.22 26.2225 230.353 26.5025 230.353 26.7938Z" fill="#263238"/>
<path d="M234.109 25.2476L233.246 32.3813L228.775 31.0956C230.014 28.831 231.837 26.8323 234.109 25.2476Z" fill="#AF6152"/>
<path d="M237.698 33.3579L233.265 34.7141C233.358 34.967 233.509 35.2015 233.711 35.4035C233.912 35.6056 234.159 35.7711 234.438 35.8901C234.716 36.0091 235.02 36.0792 235.331 36.0962C235.642 36.1132 235.954 36.0767 236.248 35.989C236.844 35.7949 237.327 35.4123 237.598 34.9217C237.868 34.4311 237.904 33.8706 237.698 33.3579Z" fill="#AF6152"/>
<path d="M237.251 34.0523C237.437 34.0138 237.628 33.9938 237.82 33.9927C237.833 34.4226 237.689 34.8456 237.408 35.2032C237.126 35.5608 236.721 35.8353 236.248 35.989C236.008 36.0602 235.755 36.0951 235.501 36.0921C235.428 35.6262 235.569 35.1544 235.895 34.7746C236.221 34.3948 236.707 34.1361 237.251 34.0523Z" fill="#F28F8F"/>
<path d="M235.546 51.9706C235.546 51.9706 237.781 50.2184 239.218 50.2184C240.879 50.2184 242.412 52.8061 242.865 53.712C243.319 54.618 243.223 54.6071 244.686 53.8205C247.258 52.4597 249.693 50.921 251.967 49.2202C254.81 46.9743 255.001 45.4879 255.001 45.4879C255.001 45.4879 250.53 41.6905 249.553 41.7936V43.1281C249.355 44.3704 240.362 47.2184 239.57 47.8423C238.095 49.1208 236.749 50.5017 235.546 51.9706Z" fill="#146BB8"/>
<path d="M230.238 52.627C230.455 53.1369 231.975 48.7808 232.901 48.8784C233.348 48.9164 234.332 50.4082 235.546 51.9706C235.188 50.75 234.326 49.3178 234.268 47.7175C234.257 46.5586 234.338 45.4005 234.511 44.251L234.473 43.0195C234.166 43.0195 233.195 43.4969 232.173 44.4843C231.244 45.3558 230.614 46.4273 230.353 47.5819C229.993 49.2472 229.954 50.9511 230.238 52.627Z" fill="#146BB8"/>
<g opacity="0.3">
<path d="M235.546 51.9706C235.546 51.9706 237.781 50.2184 239.218 50.2184C240.879 50.2184 242.412 52.8061 242.865 53.712C243.319 54.618 243.223 54.6071 244.686 53.8205C247.258 52.4597 249.693 50.921 251.967 49.2202C254.81 46.9743 255.001 45.4879 255.001 45.4879C255.001 45.4879 250.53 41.6905 249.553 41.7936V43.1281C249.355 44.3704 240.362 47.2184 239.57 47.8423C238.095 49.1208 236.749 50.5017 235.546 51.9706Z" fill="black"/>
<path d="M230.238 52.627C230.455 53.1369 231.975 48.7808 232.901 48.8784C233.348 48.9164 234.332 50.4082 235.546 51.9706C235.188 50.75 234.326 49.3178 234.268 47.7175C234.257 46.5586 234.338 45.4005 234.511 44.251L234.473 43.0195C234.166 43.0195 233.195 43.4969 232.173 44.4843C231.244 45.3558 230.614 46.4273 230.353 47.5819C229.993 49.2472 229.954 50.9511 230.238 52.627Z" fill="black"/>
</g>
<path d="M260.309 47.3921C269.175 49.3559 270.388 51.26 274.055 57.7319C275.939 61.0574 280.64 68.8312 282.026 71.4514C286.312 79.5887 286.593 84.1294 283.763 86.0281C280.525 88.198 262.34 68.9343 262.34 68.9343C262.34 68.9343 253.251 53.0557 260.309 47.3921Z" fill="#146BB8"/>
<path opacity="0.3" d="M260.309 47.3921C269.175 49.3559 270.388 51.26 274.055 57.7319C275.939 61.0574 280.64 68.8312 282.026 71.4514C286.312 79.5887 286.593 84.1294 283.763 86.0281C280.525 88.198 262.34 68.9343 262.34 68.9343C262.34 68.9343 253.251 53.0557 260.309 47.3921Z" fill="black"/>
<path opacity="0.3" d="M277.523 82.5289C276.757 81.8616 275.888 81.0696 274.968 80.2124C270.497 75.6393 262.34 68.9341 262.34 68.9341C261.509 67.4561 260.77 65.9423 260.124 64.3989C263.107 65.7551 274.994 70.7515 278.456 73.0787C282.211 75.5959 282.626 77.8689 283.642 80.4783L277.523 82.5289Z" fill="black"/>
<path d="M271.238 70.426C275.249 70.0083 283.406 73.2849 285.156 75.5199C286.906 77.755 286.037 79.6157 286.561 81.0316C287.085 82.4475 287.308 85.0515 285.622 86.4565C283.936 87.8615 278.915 89.4022 274.125 86.1039L271.238 70.426Z" fill="#146BB8"/>
<path opacity="0.6" d="M271.238 70.426C275.249 70.0083 283.406 73.2849 285.156 75.5199C286.906 77.755 286.037 79.6157 286.561 81.0316C287.085 82.4475 287.308 85.0515 285.622 86.4565C283.936 87.8615 278.915 89.4022 274.125 86.1039L271.238 70.426Z" fill="black"/>
<path d="M262.871 67.0301C259.262 65.4731 258.004 65.0337 255.385 62.8149C252.766 60.5962 250.454 59.4624 248.595 58.3774C246.736 57.2924 245.536 55.4371 244.526 54.6559C243.824 54.1134 242.936 55.0953 243.191 56.5221C243.37 57.5094 244.258 58.6486 245.484 59.777C246.711 60.9054 246.066 60.7752 244.545 60.5962C241.767 60.4117 238.976 60.4117 236.197 60.5962C234.671 60.786 233.189 61.258 233.432 62.0826C233.432 62.0826 230.979 61.8873 230.877 62.9885C230.774 64.0898 232.608 64.8764 232.608 64.8764C232.608 64.8764 232.518 65.7878 234.415 66.3357C235.482 66.6449 238.72 67.0463 239.876 67.3013C241.192 67.5888 242.604 68.0228 242.604 68.0228C240.721 67.9415 238.834 67.9415 236.951 68.0228C235.399 68.1964 235.61 69.1078 237.404 69.7371C239.199 70.3664 244.386 70.3447 245.925 70.8763C247.464 71.408 248.825 71.6412 251.814 71.9233C253.418 72.0428 254.904 72.6866 255.96 73.7189C257.774 75.3464 265.854 80.972 267.923 82.8165C270.077 84.6744 272.808 85.9744 275.799 86.5651C279.791 87.4819 283.157 86.5922 283.898 85.9629C284.639 85.3336 285.041 83.2071 283.374 79.9359C281.177 75.6231 280.078 74.8039 276.463 72.8564C272.439 70.6973 264.806 67.8601 262.871 67.0301Z" fill="#C8856A"/>
<path d="M245.484 59.7658C246.232 60.4494 246.283 60.6718 245.874 60.6989C246.462 60.6989 247.643 60.9105 247.79 60.509C247.937 60.1076 246.762 59.5434 245.606 58.8816C244.603 58.2708 243.781 57.4703 243.204 56.5435C243.37 57.5091 244.258 58.6483 245.484 59.7658Z" fill="#AF6152"/>
<path d="M233.431 62.0717C235.807 61.9063 238.194 61.89 240.572 62.0229C241.556 62.0786 242.533 62.1928 243.498 62.3647C244.465 62.5194 245.422 62.7168 246.366 62.956C245.388 62.956 244.418 62.8855 243.453 62.8041C242.489 62.7227 241.537 62.6251 240.585 62.5979C239.633 62.5708 237.302 62.4406 236.331 62.3538C235.36 62.267 234.402 62.1694 233.431 62.0717Z" fill="#AF6152"/>
<path d="M232.582 64.8656C232.57 64.7519 232.594 64.6376 232.652 64.5347C232.728 64.4338 232.834 64.3516 232.959 64.296C233.209 64.1958 233.476 64.1317 233.751 64.1061C234.287 64.0564 234.828 64.0474 235.367 64.079C236.427 64.117 238.829 64.2363 239.889 64.334C240.419 64.3936 240.956 64.4479 241.492 64.5347C242.029 64.6215 242.552 64.7571 243.063 64.871C244.092 65.1043 245.127 65.3538 246.155 65.6414C245.088 65.5708 244.028 65.4623 242.961 65.3104C242.425 65.2399 241.907 65.1206 241.403 65.0717C240.898 65.0229 240.362 64.9524 239.838 64.909C238.784 64.8005 236.389 64.654 235.335 64.5293C234.819 64.4578 234.299 64.4125 233.776 64.3936C233.304 64.3719 232.71 64.3828 232.582 64.8656Z" fill="#AF6152"/>
<path d="M245.701 68.1529C245.701 68.1529 243.964 67.8382 242.974 67.6104C241.984 67.3825 238.733 67.1167 238.733 67.1167C239.001 67.1547 239.627 67.2306 239.851 67.2794C241.166 67.567 242.578 68.001 242.578 68.001C243.622 68.006 244.664 68.0567 245.701 68.1529Z" fill="#AF6152"/>
<path d="M102.594 179.71L101.451 170L115.662 168.86C115.662 168.86 115.024 176.537 115.056 180.057C115.056 181.717 116.423 184.853 116.423 184.853C116.423 184.853 110.802 187.272 107.915 186.242C105.028 185.211 103.143 181.31 103.22 180.6L102.594 179.71Z" fill="#FFBDA7"/>
<path d="M132.55 196.744C132.748 196.744 132.819 198.307 131.695 199.028C130.417 199.864 126.316 201.404 121.551 200.656C116.787 199.907 114.27 198.545 112.437 197.108C110.604 195.67 108.049 193.647 105.903 193.148C103.979 192.605 102.198 191.751 100.659 190.631C100.02 190.088 100.295 187.761 100.295 187.761L132.55 196.744Z" fill="#263238"/>
<path d="M102.492 178.804C102.492 178.804 102.224 178.902 102.064 179.433C101.872 180.068 101.585 181.918 101.195 182.954C100.652 184.392 100.148 187.365 100.333 188.564C100.518 189.762 104.248 191.374 106.305 192.144C108.715 193.162 110.928 194.485 112.871 196.066C115.017 197.726 119.655 199.571 122.791 199.701C126.495 199.853 130.737 199.044 131.79 197.656C133.068 195.936 134.096 193.912 128.756 191.526C127.741 191.07 124.215 189.09 123.008 188.379C119.763 186.448 117.508 184.706 116.173 181.495C116.074 181.103 115.82 180.753 115.452 180.502C115.123 180.367 114.752 180.321 114.391 180.372C113.465 180.432 109.786 180.681 108.93 180.974C108.17 181.235 107.104 181.517 107.065 182.314C107.065 182.591 107.117 182.865 107.218 183.128C107.27 183.291 107.308 183.508 107.135 183.594C106.963 183.681 106.765 183.567 106.624 183.453C106.118 182.966 105.659 182.446 105.251 181.896C104.848 181.402 104.406 180.93 103.929 180.486C103.614 180.321 103.311 180.139 103.022 179.943C102.693 179.629 102.505 179.225 102.492 178.804Z" fill="#455A64"/>
<path d="M112.871 196.066C111.957 195.354 111 194.682 110.003 194.054C110.003 194.054 116.237 197.64 118.946 196.278C120.689 195.394 119.974 194.189 119.955 193.815C119.936 193.441 126.061 191.103 127.703 191.005C128.143 191.238 128.507 191.433 128.75 191.547C132.94 193.175 133.381 195.057 132.506 197.347C131.452 198.741 127.632 200.059 122.842 199.82C119.718 199.647 115.017 197.726 112.871 196.066Z" fill="#37474F"/>
<path d="M119.584 192.73C122.925 194.032 121.43 194.498 120.466 194.563C119.501 194.628 113.944 191.558 110.598 189.073C107.11 186.48 104.485 183.106 103.188 182.146C102.703 181.788 102.185 181.354 101.732 180.952C101.86 180.328 101.975 179.759 102.064 179.46C102.224 178.918 102.492 178.831 102.492 178.831C102.591 179.231 102.772 179.613 103.029 179.959C103.318 180.155 103.621 180.337 103.936 180.502C104.413 180.946 104.855 181.418 105.258 181.912C105.666 182.462 106.125 182.982 106.631 183.469C109.397 186.762 116.25 191.4 119.584 192.73Z" fill="#37474F"/>
<path d="M120.249 194.108C120.187 194.103 120.128 194.085 120.078 194.053C120.027 194.022 119.988 193.98 119.965 193.931C119.941 193.883 119.933 193.829 119.943 193.777C119.953 193.725 119.979 193.676 120.019 193.636C121.054 192.692 125.767 190.565 128.284 190.923C128.327 190.929 128.369 190.943 128.406 190.962C128.443 190.982 128.476 191.007 128.501 191.038C128.527 191.068 128.545 191.102 128.555 191.138C128.565 191.175 128.566 191.212 128.559 191.249C128.552 191.286 128.536 191.322 128.513 191.354C128.489 191.386 128.458 191.414 128.422 191.436C128.386 191.457 128.344 191.473 128.301 191.481C128.258 191.489 128.213 191.489 128.169 191.482C125.838 191.157 121.341 193.278 120.504 194.021C120.471 194.05 120.432 194.073 120.388 194.088C120.344 194.103 120.296 194.11 120.249 194.108Z" fill="#263238"/>
<path d="M117.381 192.431C117.303 192.43 117.228 192.405 117.17 192.361C117.138 192.335 117.112 192.304 117.095 192.269C117.077 192.235 117.068 192.198 117.068 192.16C117.068 192.123 117.077 192.085 117.095 192.051C117.112 192.016 117.138 191.985 117.17 191.959C118.198 191.021 122.918 188.894 125.429 189.247C125.472 189.253 125.513 189.266 125.551 189.286C125.588 189.305 125.62 189.331 125.646 189.361C125.671 189.391 125.69 189.426 125.699 189.462C125.709 189.498 125.711 189.536 125.703 189.573C125.697 189.61 125.682 189.646 125.659 189.679C125.636 189.711 125.605 189.739 125.568 189.761C125.532 189.783 125.49 189.798 125.446 189.806C125.403 189.814 125.357 189.814 125.314 189.806C122.982 189.486 118.486 191.601 117.649 192.35C117.614 192.38 117.572 192.402 117.526 192.416C117.479 192.431 117.43 192.436 117.381 192.431Z" fill="#263238"/>
<path d="M114.5 190.842C114.437 190.838 114.376 190.82 114.325 190.788C114.274 190.757 114.234 190.714 114.21 190.664C114.186 190.615 114.179 190.56 114.19 190.507C114.2 190.454 114.228 190.405 114.27 190.365C115.298 189.426 120.019 187.3 122.529 187.652C122.573 187.658 122.614 187.67 122.652 187.69C122.69 187.709 122.723 187.735 122.748 187.765C122.774 187.796 122.792 187.83 122.802 187.867C122.811 187.903 122.812 187.941 122.804 187.978C122.797 188.015 122.781 188.051 122.757 188.083C122.734 188.115 122.703 188.143 122.667 188.164C122.63 188.186 122.589 188.202 122.546 188.21C122.502 188.218 122.458 188.218 122.414 188.211C120.083 187.886 115.586 190.001 114.749 190.75C114.717 190.779 114.679 190.802 114.636 190.818C114.593 190.834 114.547 190.842 114.5 190.842Z" fill="#263238"/>
<path d="M111.849 189.052C111.787 189.047 111.728 189.028 111.678 188.997C111.628 188.966 111.589 188.924 111.565 188.875C111.542 188.826 111.534 188.773 111.544 188.721C111.553 188.669 111.579 188.62 111.619 188.58C112.654 187.636 117.368 185.515 119.878 185.867C119.966 185.879 120.045 185.92 120.097 185.981C120.15 186.042 120.172 186.118 120.159 186.193C120.144 186.267 120.094 186.334 120.021 186.377C119.948 186.421 119.858 186.439 119.77 186.426C117.438 186.106 112.942 188.222 112.105 188.965C112.072 188.994 112.032 189.017 111.988 189.032C111.944 189.047 111.897 189.054 111.849 189.052Z" fill="#263238"/>
<path d="M109.263 187.267C109.187 187.263 109.115 187.238 109.058 187.196C109.027 187.17 109.002 187.139 108.985 187.104C108.968 187.07 108.959 187.033 108.959 186.996C108.959 186.958 108.968 186.921 108.985 186.887C109.002 186.852 109.027 186.821 109.058 186.795C110.483 185.46 115.401 183.73 117.898 184.083C117.942 184.088 117.983 184.102 118.02 184.121C118.058 184.141 118.09 184.166 118.115 184.197C118.141 184.227 118.159 184.261 118.169 184.297C118.179 184.334 118.18 184.371 118.173 184.408C118.157 184.483 118.108 184.549 118.035 184.593C117.962 184.636 117.871 184.654 117.783 184.641C115.541 184.327 110.828 185.992 109.563 187.175C109.526 187.211 109.48 187.238 109.427 187.254C109.374 187.27 109.318 187.275 109.263 187.267Z" fill="#263238"/>
<path d="M76.4826 184.913L80.5449 173.135L66.8123 170.585L65.7073 182.363C65.7073 182.363 64.4298 185.477 65.1132 186.605C65.7967 187.733 74.0555 189.318 74.8794 188.629C75.7034 187.94 76.4826 184.913 76.4826 184.913Z" fill="#FFBDA7"/>
<path d="M73.6663 203.661C73.1042 206.319 72.3121 208.001 70.8367 209.4C69.3612 210.8 66.9149 210.903 64.558 210.062C62.2011 209.221 59.2757 207.502 58.8924 205.071C58.5092 202.641 58.8924 201.073 59.7419 198.659L73.6663 203.661Z" fill="#263238"/>
<path d="M65.7077 182.363C64.7049 182.265 64.8198 184.387 64.0789 187.972C63.2741 191.857 60.9683 194.813 59.9974 197.905C58.886 201.442 58.9244 203.102 60.3168 205.565C61.7092 208.028 67.3875 211.115 70.7409 208.43C73.481 206.26 73.9345 203.412 74.2219 199.75C74.3475 196.646 74.6823 193.55 75.2247 190.479C75.7804 187.766 77.307 185.352 76.5022 184.913C76.3808 185.303 75.3205 188.005 74.7649 187.929C74.7638 187.585 74.8044 187.241 74.8862 186.904C74.9374 186.749 74.9502 186.588 74.9238 186.429C74.8974 186.27 74.8324 186.118 74.7329 185.981C74.2758 185.637 73.7443 185.372 73.168 185.2C72.2099 184.902 70.4854 184.5 69.4953 184.278C69.0035 184.164 68.5117 184.072 68.0135 183.996C67.5935 183.922 67.163 183.902 66.736 183.936C66.6194 183.943 66.5061 183.972 66.4044 184.021C66.3027 184.069 66.2152 184.137 66.1484 184.218C66.0801 184.346 66.0431 184.485 66.0398 184.625C66.0085 184.876 65.9332 185.121 65.8163 185.352C65.7652 185.455 65.6502 185.569 65.5097 185.52C65.461 185.496 65.4221 185.459 65.3982 185.416C65.3742 185.372 65.3663 185.324 65.3755 185.276C65.4139 184.837 65.6566 182.591 65.7077 182.363Z" fill="#455A64"/>
<path d="M60.3612 196.907C60.1887 197.417 59.1412 200.797 60.3101 201.616C61.479 202.435 62.6798 199.896 62.6798 199.896C62.6798 199.896 65.9501 199.658 70.3445 201.909C70.0315 202.451 70.4978 204.404 71.82 204.209C73.1422 204.014 74.1577 200.113 74.1705 200.064C73.9022 203.574 73.3721 206.303 70.715 208.43C67.3616 211.115 61.6833 208.028 60.2909 205.565C58.8985 203.102 58.8602 201.442 59.9715 197.905C60.1057 197.553 60.2526 197.222 60.3612 196.907Z" fill="#37474F"/>
<path d="M63.0123 200.183C62.8143 201.496 61.1599 200.78 61.3324 198.914C61.5049 197.048 62.9995 192.572 63.6638 189.54C64.3025 185.157 64.7049 182.265 65.7077 182.363C65.7077 182.406 65.7077 182.45 65.7077 182.493C65.7077 182.536 65.4203 184.994 65.3819 185.276C65.0051 187.95 64.5708 193.169 63.9448 195.583C63.521 197.099 63.2095 198.635 63.0123 200.183Z" fill="#37474F"/>
<path d="M69.8337 201.789C70.4626 200.33 70.9831 198.839 71.3922 197.325C72.031 194.954 74.1132 190.234 75.1416 187.696C75.4418 187.283 76.4765 184.913 76.4765 184.913C77.16 185.119 76.2913 187.381 75.8889 188.444C75.4865 189.507 74.9947 190.614 74.4709 192.166C73.1935 195.155 72.7655 199.723 71.9607 201.442C71.1559 203.162 69.3419 203.037 69.8337 201.789Z" fill="#37474F"/>
<path d="M70.4724 202.028C70.4271 202.017 70.384 202.001 70.3446 201.979C68.0759 200.764 65.4385 200.138 62.7565 200.178C62.6601 200.182 62.5653 200.156 62.4883 200.107C62.4114 200.057 62.3572 199.987 62.335 199.907C62.3273 199.87 62.3296 199.831 62.3417 199.795C62.3537 199.758 62.3752 199.724 62.4046 199.696C62.434 199.667 62.4705 199.644 62.5115 199.629C62.5525 199.614 62.5969 199.607 62.6416 199.609C65.5113 199.554 68.3352 200.226 70.7534 201.54C70.7922 201.56 70.8258 201.586 70.8522 201.617C70.8785 201.649 70.897 201.684 70.9066 201.722C70.9162 201.759 70.9166 201.798 70.9078 201.836C70.8991 201.874 70.8813 201.91 70.8556 201.941C70.8095 201.987 70.7482 202.019 70.6798 202.035C70.6114 202.05 70.5391 202.048 70.4724 202.028Z" fill="#263238"/>
<path d="M71.6666 199.31C71.6233 199.299 71.5824 199.283 71.5452 199.261C68.9691 197.972 66.0402 197.278 63.0501 197.249C62.9539 197.251 62.8599 197.224 62.7841 197.174C62.7084 197.123 62.6557 197.052 62.635 196.972C62.6303 196.934 62.6354 196.895 62.6499 196.859C62.6643 196.823 62.6878 196.79 62.7187 196.762C62.7497 196.734 62.7873 196.712 62.8291 196.698C62.8708 196.684 62.9157 196.677 62.9607 196.679C66.1123 196.697 69.2004 197.434 71.9029 198.811C71.9429 198.829 71.9781 198.854 72.0064 198.884C72.0347 198.914 72.0555 198.948 72.0675 198.986C72.0794 199.023 72.0823 199.061 72.076 199.099C72.0697 199.138 72.0543 199.174 72.0307 199.207C71.9878 199.252 71.9308 199.285 71.8663 199.304C71.8018 199.322 71.7325 199.324 71.6666 199.31Z" fill="#263238"/>
<path d="M63.6508 194.58C63.5833 194.564 63.5216 194.533 63.4714 194.492C63.4212 194.45 63.3841 194.398 63.3634 194.341C63.3529 194.304 63.3522 194.266 63.3613 194.229C63.3704 194.192 63.3891 194.157 63.416 194.127C63.4429 194.097 63.4774 194.072 63.5169 194.055C63.5564 194.038 63.5999 194.028 63.6444 194.027C68.256 193.582 72.4333 195.985 72.5866 196.088C72.6261 196.107 72.6605 196.133 72.6873 196.165C72.7142 196.196 72.7331 196.232 72.7428 196.269C72.7524 196.307 72.7526 196.346 72.7433 196.384C72.734 196.422 72.7154 196.458 72.6888 196.489C72.6242 196.548 72.5363 196.585 72.4419 196.592C72.3475 196.599 72.2535 196.576 72.1778 196.527C72.1395 196.527 68.0772 194.173 63.7849 194.591C63.7398 194.593 63.6946 194.589 63.6508 194.58Z" fill="#263238"/>
<path d="M64.2512 192.068C64.183 192.055 64.1204 192.026 64.0698 191.985C64.0192 191.944 63.9826 191.892 63.9637 191.835C63.9511 191.799 63.9483 191.76 63.9557 191.723C63.963 191.686 63.9803 191.65 64.0061 191.619C64.032 191.589 64.0657 191.563 64.1049 191.545C64.144 191.527 64.1875 191.517 64.232 191.515C67.478 191.229 70.7345 191.965 73.385 193.582C73.4235 193.603 73.4563 193.63 73.4813 193.663C73.5064 193.696 73.523 193.732 73.5303 193.771C73.5375 193.809 73.5351 193.848 73.5233 193.886C73.5115 193.923 73.4905 193.958 73.4616 193.989C73.3893 194.043 73.2962 194.073 73.1998 194.073C73.1033 194.073 73.0102 194.043 72.9379 193.989C72.9379 193.989 69.1438 191.547 64.4108 192.068C64.3581 192.076 64.3039 192.076 64.2512 192.068Z" fill="#263238"/>
<path d="M64.9344 189.242C64.8672 189.228 64.8054 189.2 64.755 189.16C64.7046 189.12 64.6673 189.07 64.6469 189.014C64.6344 188.978 64.6315 188.94 64.6385 188.903C64.6455 188.866 64.6622 188.831 64.6873 188.8C64.7125 188.77 64.7454 188.744 64.7838 188.726C64.8221 188.707 64.8648 188.696 64.9088 188.694C69.6801 188.108 73.9405 190.739 74.1193 190.864C74.1581 190.884 74.1914 190.911 74.217 190.943C74.2426 190.974 74.2599 191.011 74.2678 191.049C74.2756 191.087 74.2739 191.126 74.2626 191.163C74.2513 191.2 74.2308 191.235 74.2023 191.265C74.131 191.319 74.039 191.349 73.9436 191.349C73.8483 191.349 73.7563 191.319 73.685 191.265C73.6466 191.238 69.5332 188.705 65.1004 189.242C65.0458 189.253 64.989 189.253 64.9344 189.242Z" fill="#263238"/>
<path d="M73.9534 91.1436C73.6532 91.1436 72.5482 102.351 72.446 103.458C71.9478 108.693 71.2579 113.858 71.1685 119.103C71.1174 121.816 70.5298 126.812 70.3956 129.546C70.1136 136.305 69.3242 143.042 68.0323 149.716C67.4702 152.279 67.0863 154.867 66.8826 157.468C66.7102 160.153 66.8826 162.893 66.0906 165.502C65.6663 166.653 65.3103 167.821 65.0239 169.001C64.7621 170.52 65.1581 171.361 66.2184 172.56C66.3269 174.247 66.0651 174.79 66.6144 175.197C69.3673 177.231 74.8731 177.589 78.5714 177.584C79.1526 177.584 79.6955 176.461 79.983 176.021C80.2704 175.582 80.149 175.349 80.6728 175.066C81.1966 174.784 82.161 174.524 82.6784 174.204C83.7014 173.551 84.4224 172.614 84.716 171.557C85.0673 170.531 85.1822 169.463 85.4633 168.421C85.9443 166.961 86.5309 165.528 87.2198 164.13C88.4232 161.091 89.352 157.979 89.9983 154.821C90.5476 152.493 91.0777 150.161 91.6526 147.839C93.4474 140.64 94.3097 136.089 95.3253 130.957C96.3408 125.825 98.8319 141.193 98.8319 141.193C98.8667 142.127 98.809 143.062 98.6594 143.987C98.57 145.81 98.6147 147.6 98.3273 149.412C97.6868 153.41 97.8054 157.468 98.6786 161.434C99.1321 163.517 99.5345 164.954 99.394 167.076C99.3109 168.318 99.0491 169.419 99.6239 170.569C100.033 171.399 100.639 171.605 101.157 172.37C101.374 172.69 101.374 175.186 101.604 175.305C101.604 175.305 110.157 179.07 115.599 175.349C115.675 174.627 115.599 173.179 115.963 172.544C116.428 172.204 116.81 171.79 117.087 171.324C117.363 170.859 117.528 170.351 117.572 169.831C117.674 168.66 117.253 167.803 117.246 166.631C117.312 165.188 117.476 163.75 117.738 162.323C117.995 160.279 118.095 158.222 118.038 156.166C118.038 154.381 117.662 152.483 118 150.741C118.474 147.756 118.727 144.748 118.76 141.736C119.227 130.116 119.463 106.474 118.007 91.4582L73.9534 91.1436Z" fill="#146BB8"/>
<path opacity="0.3" d="M73.9534 91.1436C73.6532 91.1436 72.5482 102.351 72.446 103.458C71.9478 108.693 71.2579 113.858 71.1685 119.103C71.1174 121.816 70.5298 126.812 70.3956 129.546C70.1136 136.305 69.3242 143.042 68.0323 149.716C67.4702 152.279 67.0863 154.867 66.8826 157.468C66.7102 160.153 66.8826 162.893 66.0906 165.502C65.6663 166.653 65.3103 167.821 65.0239 169.001C64.7621 170.52 65.1581 171.361 66.2184 172.56C66.3269 174.247 66.0651 174.79 66.6144 175.197C69.3673 177.231 74.8731 177.589 78.5714 177.584C79.1526 177.584 79.6955 176.461 79.983 176.021C80.2704 175.582 80.149 175.349 80.6728 175.066C81.1966 174.784 82.161 174.524 82.6784 174.204C83.7014 173.551 84.4224 172.614 84.716 171.557C85.0673 170.531 85.1822 169.463 85.4633 168.421C85.9443 166.961 86.5309 165.528 87.2198 164.13C88.4232 161.091 89.352 157.979 89.9983 154.821C90.5476 152.493 91.0777 150.161 91.6526 147.839C93.4474 140.64 94.3097 136.089 95.3253 130.957C96.3408 125.825 98.8319 141.193 98.8319 141.193C98.8667 142.127 98.809 143.062 98.6594 143.987C98.57 145.81 98.6147 147.6 98.3273 149.412C97.6868 153.41 97.8054 157.468 98.6786 161.434C99.1321 163.517 99.5345 164.954 99.394 167.076C99.3109 168.318 99.0491 169.419 99.6239 170.569C100.033 171.399 100.639 171.605 101.157 172.37C101.374 172.69 101.374 175.186 101.604 175.305C101.604 175.305 110.157 179.07 115.599 175.349C115.675 174.627 115.599 173.179 115.963 172.544C116.428 172.204 116.81 171.79 117.087 171.324C117.363 170.859 117.528 170.351 117.572 169.831C117.674 168.66 117.253 167.803 117.246 166.631C117.312 165.188 117.476 163.75 117.738 162.323C117.995 160.279 118.095 158.222 118.038 156.166C118.038 154.381 117.662 152.483 118 150.741C118.474 147.756 118.727 144.748 118.76 141.736C119.227 130.116 119.463 106.474 118.007 91.4582L73.9534 91.1436Z" fill="black"/>
<path opacity="0.3" d="M81.3818 104.787C82.3463 114.009 76.3614 117.427 72.5801 117.427C72.5801 117.427 80.2384 114.134 81.3818 104.787Z" fill="black"/>
<path opacity="0.3" d="M99.1769 110.212L94.9038 133.056C95.0443 132.351 95.1849 131.645 95.3254 130.924C96.3473 125.797 98.832 141.166 98.832 141.166L98.1933 131.13C98.0392 127.993 98.3092 124.851 98.9981 121.767L101.496 111.948C103.243 111.566 104.885 110.896 106.327 109.975C107.769 109.055 108.984 107.902 109.901 106.583C106.663 109.214 99.1769 110.212 99.1769 110.212Z" fill="black"/>
<path d="M65.8418 176.086C68.039 177.768 74.7074 179.477 79.4595 178.321L80.6731 175.066C77.0898 175.869 69.9297 174.817 66.2186 172.56L65.8418 176.086Z" fill="#146BB8"/>
<path opacity="0.6" d="M65.8418 176.086C68.039 177.768 74.7074 179.477 79.4595 178.321L80.6731 175.066C77.0898 175.869 69.9297 174.817 66.2186 172.56L65.8418 176.086Z" fill="black"/>
<path d="M101.597 175.669C103.162 177.036 111.281 177.974 115.611 175.864L115.962 172.522C112.679 174.041 104.344 173.96 101.157 172.349L101.597 175.669Z" fill="#146BB8"/>
<path opacity="0.6" d="M101.597 175.669C103.162 177.036 111.281 177.974 115.611 175.864L115.962 172.522C112.679 174.041 104.344 173.96 101.157 172.349L101.597 175.669Z" fill="black"/>
<path opacity="0.3" d="M70.6063 125.966C70.6063 125.966 69.3288 141.155 69.2394 142.24C69.15 143.325 78.4435 146.217 78.7693 145.544C79.3122 144.432 79.4974 141.866 81.7202 129.606C73.9213 128.174 70.6063 125.966 70.6063 125.966Z" fill="black"/>
<path opacity="0.3" d="M79.7531 133.756C79.4678 133.67 79.1679 133.624 78.8653 133.62C78.514 133.588 78.1691 133.544 77.8242 133.495C77.0912 133.383 76.3678 133.229 75.6589 133.034C74.8596 132.816 74.0804 132.547 73.3275 132.231C72.6888 131.971 72.1395 131.646 71.5263 131.391C71.4688 131.391 71.4433 131.467 71.4816 131.494C72.0696 131.899 72.713 132.244 73.3978 132.519C74.6872 133.076 76.0605 133.479 77.4793 133.718C77.8433 133.778 78.2074 133.832 78.5779 133.87C78.9616 133.951 79.363 133.951 79.7468 133.87C79.7915 133.875 79.8106 133.778 79.7531 133.756Z" fill="black"/>
<path opacity="0.3" d="M75.8442 131.353C75.7739 131.195 75.7164 131.092 75.512 131.06C75.4291 131.042 75.3428 131.039 75.2583 131.05C75.1739 131.061 75.0929 131.087 75.0202 131.125C74.9513 131.158 74.8914 131.204 74.8441 131.258C74.7968 131.312 74.7633 131.374 74.7456 131.439C74.7137 131.549 74.7231 131.665 74.7724 131.77C74.8216 131.875 74.9083 131.964 75.0202 132.025C75.1175 132.087 75.2335 132.124 75.3545 132.132C75.4755 132.139 75.5967 132.117 75.7037 132.069C75.7671 132.033 75.819 131.985 75.8547 131.928C75.8904 131.871 75.9088 131.808 75.908 131.743C75.925 131.611 75.9031 131.476 75.8442 131.353ZM75.6142 131.792C75.5512 131.845 75.4688 131.878 75.3805 131.886C75.2922 131.894 75.2034 131.876 75.1288 131.835C74.8989 131.694 74.9947 131.293 75.2949 131.293C75.3892 131.291 75.4808 131.32 75.5504 131.374C75.6176 131.426 75.6609 131.497 75.6726 131.573C75.6843 131.65 75.6636 131.727 75.6142 131.792Z" fill="black"/>
<path d="M110.112 47.9502C115.529 49.2522 117.33 50.3263 121.341 55.2684C124.35 58.979 132.002 69.6877 132.002 69.6877C132.002 69.6877 133.337 82.9461 129.97 82.8593C128.046 82.8207 126.214 82.1498 124.861 80.9877C120.211 76.8322 112.425 67.4255 112.425 67.4255L110.112 47.9502Z" fill="#FFBDA7"/>
<path d="M109.927 47.5381C113.018 47.8744 116.87 49.0842 119.304 51.8129C121.737 54.5416 128.495 64.0351 128.495 64.0351C128.495 64.0351 128.31 66.8832 124.311 70.2846C120.313 73.686 116.729 73.686 116.729 73.686L106.823 61.0569L109.927 47.5381Z" fill="#455A64"/>
<path d="M131.535 69.0423C129.427 70.5341 126.087 77.9987 126.087 77.9987C126.087 77.9987 125.033 74.8089 126.451 71.912C127.333 70.1412 128.593 68.5245 130.168 67.1436L131.535 69.0423Z" fill="#F0997A"/>
<path d="M162.673 60.8344C163.388 59.8091 165.228 60.3353 166.212 59.6735C166.354 59.5847 166.466 59.465 166.535 59.3269C166.604 59.1887 166.628 59.0373 166.605 58.8886C166.581 58.7398 166.511 58.5992 166.401 58.4815C166.292 58.3638 166.147 58.2733 165.982 58.2196C165.234 57.8887 164.346 58.046 163.542 57.9918C162.601 57.9079 161.692 57.6585 160.872 57.2594C159.128 56.462 156.905 55.8218 155.053 56.7929C155.473 56.9681 155.871 57.179 156.241 57.4222C158.387 58.5614 160.533 59.6843 162.673 60.8344Z" fill="#F0997A"/>
<path d="M170.006 60.8074L169.284 61.0244C168.977 61.1221 168.645 61.2089 168.364 61.3119C168.217 61.3608 168.077 61.415 167.93 61.4747C167.783 61.5344 167.572 61.6808 167.515 61.67C166.812 61.5018 165.956 61.0515 164.762 61.1275C163.567 61.2034 163.286 61.3716 161.779 60.2378C160.757 59.4783 159.563 58.1547 158.183 57.4549C156.803 56.755 155.36 56.3102 153.712 57.3735C152.064 58.4368 151.157 59.1908 149.407 60.1998C148.078 60.9647 147.126 61.5398 140.311 64.7784C135.304 67.1545 131.184 68.5216 127.824 72.3733C126.47 73.9302 123.57 79.7837 124.899 81.0042C126.815 82.7348 131.522 84.2592 136.875 80.8795C139.326 79.3397 141.656 77.6653 143.85 75.8669C146.06 74.093 147.043 73.1545 150.18 70.6048C153.316 68.0551 155.143 66.7314 156.912 66.0479C158.426 65.462 160.316 65.7495 161.594 65.9068C163.26 66.1671 164.971 66.1431 166.627 65.8363C168.313 65.6139 169.418 65.2938 170.581 65.1094C171.743 64.9249 172.759 64.3119 173.896 63.8399L175.863 63.0479C176.086 62.9793 176.287 62.8679 176.451 62.7224C176.527 62.6248 176.419 62.3806 176.38 62.2667C176.336 62.1512 176.262 62.0455 176.163 61.9575C176.405 61.953 176.645 61.9239 176.878 61.8707C177.096 61.8327 177.275 61.7893 177.517 61.7676C177.76 61.7459 177.849 61.6863 177.869 61.5506C177.871 61.4698 177.839 61.3908 177.779 61.3282C177.551 61.0526 177.227 60.8441 176.853 60.7315C176.34 60.618 175.811 60.5668 175.282 60.5796C175.205 60.5784 175.129 60.5656 175.058 60.5416C174.97 60.4952 174.889 60.4406 174.815 60.3789C174.689 60.2938 174.543 60.2313 174.387 60.195C174.231 60.1586 174.069 60.1492 173.908 60.1673C173.334 60.2409 172.764 60.3423 172.203 60.4711C171.858 60.5308 171.5 60.5416 171.155 60.5904C170.766 60.6376 170.382 60.7102 170.006 60.8074Z" fill="#FFBDA7"/>
<path d="M164.455 61.5776C164.219 61.4908 163.989 61.3877 163.746 61.2955L163.554 61.2141C164.05 61.2445 164.547 61.2445 165.043 61.2141C165.911 61.1816 166.595 61.5342 167.412 61.7566C167.518 61.7665 167.625 61.7495 167.719 61.7078C169.034 61.0925 170.476 60.6966 171.967 60.5414C172.899 60.4438 173.883 59.9013 174.777 60.3841C173.959 59.8416 172.861 60.3841 171.928 60.4167C170.437 60.5282 168.985 60.8799 167.649 61.4528L167.521 61.5179C166.716 61.2059 165.85 61.022 164.966 60.9754C164.494 61.01 164.02 61.01 163.548 60.9754C161.734 60.4329 160.687 58.8055 159.16 57.8615C157.627 56.8091 155.328 56.1039 153.712 57.3841C155.877 56.1527 157.742 57.1238 159.403 58.4149C158.835 58.0225 158.131 57.7993 157.4 57.7797C156.668 57.7601 155.949 57.9451 155.353 58.3064C154.923 58.5453 154.554 58.8552 154.267 59.2178C154.674 58.942 155.101 58.6883 155.545 58.4583C155.964 58.2905 156.409 58.1737 156.867 58.1111C157.783 58.0234 158.71 58.1668 159.53 58.5234C160.418 59.2286 161.249 60.0152 162.034 60.5848C162.39 60.8313 162.791 61.0256 163.222 61.1599C163.57 61.4136 163.957 61.6253 164.372 61.7892C164.861 61.9853 165.397 62.0802 165.937 62.0658C165.429 61.9355 164.934 61.7723 164.455 61.5776ZM167.847 62.8253C168.03 62.8173 168.213 62.8173 168.396 62.8253C168.573 62.8296 168.75 62.8423 168.926 62.8633C169.105 62.8633 169.277 62.9175 169.444 62.9501C169.608 62.9871 169.77 63.0324 169.929 63.0857L170.018 63.1182L170.133 63.064C170.517 62.8735 170.936 62.7396 171.373 62.668C171.806 62.5959 172.248 62.574 172.688 62.6029H172.771L172.822 62.5758C173.187 62.3795 173.572 62.2124 173.972 62.0767C174.411 61.9535 174.87 61.8912 175.333 61.8922C175.259 61.8692 175.181 61.8564 175.103 61.8542C174.969 61.8434 174.834 61.8434 174.7 61.8542C174.162 61.8883 173.634 62.0021 173.142 62.1906C173.016 62.2566 172.881 62.3077 172.739 62.3425C172.595 62.3588 172.449 62.3588 172.305 62.3425C171.684 62.2963 171.059 62.3997 170.504 62.6409C170.381 62.7068 170.248 62.7579 170.108 62.7927C169.918 62.8144 169.724 62.8033 169.539 62.7602C168.982 62.6264 168.388 62.6492 167.847 62.8253ZM174.285 60.6933C174.081 60.7476 173.889 60.8289 173.685 60.8778C173.27 60.9754 172.829 60.9429 172.407 61.0134C171.96 61.0897 171.551 61.2788 171.232 61.5559C171.214 61.5732 171.192 61.5879 171.168 61.5993C171.034 61.6644 170.791 61.5993 170.657 61.5559C170.523 61.5125 170.248 61.4854 170.018 61.4582C169.372 61.4006 168.718 61.4635 168.102 61.6427C168.358 61.6427 168.613 61.5884 168.862 61.583C169.111 61.5694 169.361 61.5694 169.61 61.583C169.856 61.5946 170.102 61.62 170.344 61.659C170.577 61.698 170.806 61.7543 171.028 61.8271L171.149 61.8705L171.251 61.7946C171.569 61.557 171.938 61.3729 172.337 61.2521C172.718 61.1465 173.113 61.0809 173.512 61.0568L173.742 61.0188C173.815 61.001 173.886 60.9774 173.953 60.9483C174.268 60.8088 174.6 60.6979 174.943 60.6174C174.841 60.6174 174.719 60.6174 174.617 60.6174C174.505 60.6369 174.394 60.6623 174.285 60.6933Z" fill="#F0997A"/>
<path d="M88.7018 47.8852C83.2981 48.6176 79.5488 49.3391 76.9428 49.8328C76.9428 49.8328 70.4341 53.7821 72.2928 70.3117C72.5547 72.6498 73.1871 79.3333 73.1296 84.9589C73.0912 88.957 73.1998 94.3602 72.9827 97.1486C72.9827 97.1486 83.8794 102.525 102.07 100.859C116.359 99.5518 118.524 95.1305 118.524 95.1305C118.524 95.1305 118.805 75.4382 118.128 66.1942C117.24 54.0479 113.925 51.3626 109.927 47.5652C107.017 47.2953 104.09 47.1829 101.163 47.2288C96.1877 47.2071 94.1054 47.1258 88.7018 47.8852Z" fill="#F0F0F0"/>
<path d="M113.012 59.3154C113.616 61.9396 113.934 64.6054 113.964 67.2791C106.893 69.4165 98.2573 71.0386 89.9283 70.7511C89.8772 67.762 89.6153 65.2774 89.2896 62.451C95.1339 62.6192 105.718 61.5179 113.012 59.3154Z" fill="#E0E0E0"/>
<path d="M84.7546 22.8711C84.7546 22.8711 82.4296 23.1803 81.101 25.6649C80.4623 26.9181 80.0599 29.9451 82.6978 36.0318C83.7169 38.416 85.1672 40.6508 86.9965 42.6556C87.5575 43.3167 88.393 43.7723 89.3342 43.9305L88.7658 39.1457L88.274 35.012C88.274 35.012 91.5506 34.0355 92.1063 30.1893C92.5343 27.0916 90.963 25.9362 90.963 25.9362L84.7546 22.8711Z" fill="#263238"/>
<path d="M81.2477 25.2529C80.1811 20.5279 90.8287 13.6111 97.5098 16.9149C99.6942 14.2513 105.123 15.2874 105.717 17.9999C107.634 17.1807 111.428 20.9076 110.591 22.9365C112.507 27.3524 109.914 29.1805 107.34 29.1805C101.029 29.1805 94.2714 28.9798 87.9161 29.3487L81.2477 25.2529Z" fill="#263238"/>
<path d="M107.57 22.6706C108.911 23.6634 110.853 25.9256 111.46 34.4426C111.875 40.231 110.233 42.8186 107.768 43.8765C105.704 44.7389 103.432 45.1827 101.132 45.173L101.227 48.6395C107.276 53.3104 91.0077 54.7208 86.9071 48.5636L86.824 39.0646C86.4025 39.7753 84.218 40.2744 82.5637 38.9399C79.9449 36.835 80.3665 33.7211 82.238 32.5222C84.1094 31.3233 86.939 31.524 88.0249 33.8079C90.2285 34.4101 91.7678 31.8387 90.9375 24.8677C99.7966 26.582 101.911 20.6038 107.57 22.6706Z" fill="#FFBDA7"/>
<path d="M101.131 45.1727C93.984 44.9829 90.6051 42.1782 89.7045 39.9648C89.7045 39.9648 89.4873 43.7623 94.495 45.6013C96.5694 46.3967 98.8402 46.7523 101.112 46.6374L101.131 45.1727Z" fill="#F0997A"/>
<path d="M103.967 37.9414L99.2408 36.8564C99.1402 37.113 99.1024 37.3844 99.1297 37.6538C99.157 37.9233 99.2488 38.1852 99.3995 38.4234C99.5503 38.6616 99.7567 38.8712 100.006 39.0393C100.256 39.2073 100.543 39.3303 100.85 39.4007C101.491 39.5425 102.171 39.4702 102.751 39.1987C103.331 38.9272 103.766 38.4773 103.967 37.9414Z" fill="#B16668"/>
<path d="M101.911 39.4171C101.558 39.4676 101.196 39.4528 100.85 39.3737C100.425 39.2754 100.041 39.0763 99.7432 38.7997C99.4457 38.523 99.2471 38.1802 99.1704 37.8113C99.7684 37.7986 100.356 37.9472 100.848 38.2357C101.34 38.5242 101.712 38.9378 101.911 39.4171Z" fill="#F28F8F"/>
<path d="M96.9287 31.1062C96.957 31.3295 97.0628 31.5406 97.2325 31.7128C97.4023 31.885 97.6284 32.0105 97.8823 32.0733C98.1361 32.1362 98.4062 32.1336 98.6583 32.066C98.9105 31.9983 99.1332 31.8685 99.2984 31.6932C99.4636 31.5178 99.5638 31.3047 99.5862 31.0809C99.6086 30.8572 99.5522 30.6328 99.4243 30.4362C99.2963 30.2397 99.1025 30.0799 98.8675 29.977C98.6324 29.8741 98.3667 29.8329 98.104 29.8585C97.9303 29.8746 97.762 29.9198 97.6089 29.9913C97.4557 30.0628 97.3207 30.1593 97.2115 30.2752C97.1024 30.3911 97.0212 30.5242 96.9727 30.6668C96.9241 30.8093 96.9092 30.9587 96.9287 31.1062Z" fill="#263238"/>
<path d="M106.318 30.0917C106.344 30.3146 106.448 30.5258 106.615 30.6988C106.783 30.8717 107.007 30.9986 107.26 31.0634C107.512 31.1282 107.782 31.128 108.034 31.0629C108.286 30.9977 108.51 30.8706 108.678 30.6975C108.845 30.5243 108.948 30.313 108.974 30.09C109 29.8671 108.948 29.6427 108.824 29.4449C108.7 29.2472 108.51 29.0852 108.278 28.9792C108.045 28.8732 107.781 28.828 107.519 28.8494C107.344 28.8637 107.174 28.9072 107.018 28.9774C106.863 29.0476 106.726 29.1432 106.614 29.2586C106.503 29.3741 106.419 29.5071 106.368 29.65C106.317 29.793 106.3 29.9431 106.318 30.0917Z" fill="#263238"/>
<path d="M102.275 28.7031L103.782 35.6795L107.806 33.7483L102.275 28.7031Z" fill="#F0997A"/>
<path d="M108.956 27.6396L105.794 27.0429C105.828 26.8644 105.904 26.6935 106.018 26.5409C106.132 26.3883 106.281 26.2572 106.457 26.1555C106.633 26.0539 106.832 25.9839 107.041 25.9499C107.25 25.9159 107.465 25.9186 107.672 25.9579C108.102 26.0411 108.476 26.2633 108.716 26.5774C108.956 26.8914 109.042 27.2725 108.956 27.6396Z" fill="#263238"/>
<path d="M95.5939 29.1477L98.4362 27.7643C98.338 27.6035 98.2023 27.4613 98.0375 27.3463C97.8728 27.2312 97.6822 27.1458 97.4774 27.0951C97.2726 27.0444 97.0579 27.0294 96.8461 27.0512C96.6343 27.073 96.43 27.1311 96.2454 27.2218C95.8655 27.4097 95.5857 27.7148 95.4643 28.0736C95.3429 28.4324 95.3893 28.8172 95.5939 29.1477Z" fill="#263238"/>
<path d="M108.828 22.4264C95.7788 22.6813 90.3432 27.8513 90.3432 27.8513C88.8614 28.7464 86.5108 30.4118 85.7124 31.9199C84.9454 31.7635 84.1416 31.7974 83.3965 32.0176C82.6515 32.2379 81.9966 32.6351 81.5096 33.1622C81.0656 32.4459 80.7471 31.6783 80.5643 30.8838C79.5423 27.1786 79.2421 19.4915 89.5065 16.3614C98.9533 13.5025 105.717 14.6851 107.895 18.9707C108.337 20.0942 108.65 21.2516 108.828 22.4264Z" fill="#455A64"/>
<path d="M90.0366 26.8099C91.2837 24.3165 93.2953 22.1527 95.8618 20.5442C98.7297 18.6346 105.143 17.6473 108.036 17.2893C113.095 16.6491 114.474 17.4195 114.653 18.0596C114.698 18.2115 114.902 18.9221 114.953 19.0795C115.012 19.2199 115.012 19.3731 114.953 19.5135C114.385 20.5984 110.623 22.942 110.623 22.942C104.038 22.3018 96.3217 24.3091 90.3751 27.8569L90.0366 26.8099Z" fill="#146BB8"/>
<path d="M90.3433 27.8459C96.2898 24.2981 104.165 22.5079 110.591 22.931C110.591 22.931 114.353 20.6146 114.922 19.5025C115.228 18.8895 114.602 17.5224 108.343 18.3199C105.449 18.6833 99.0364 19.6707 96.2068 21.5748C93.627 23.1821 91.6021 25.3477 90.3433 27.8459Z" fill="#37474F"/>
<path d="M76.6682 51.0425C74.1133 51.4114 67.726 52.3065 65.2478 56.5325C62.0541 62.0333 57.1104 71.3315 53.9423 78.232C52.0261 82.3603 51.9111 83.6568 53.8848 87.3132C55.801 90.8123 65.2094 102.503 68.7288 105.986C71.3412 108.557 76.2978 112.832 78.0798 113.754C78.0798 113.754 81.0691 112.311 82.0974 103.642C82.0974 103.642 82.2635 102.698 84.9142 103.485C86.7602 104.027 89.0979 104.147 90.2093 103.241C91.3207 102.335 88.7275 101.846 87.4117 101.157C85.5057 100.017 83.3232 99.2532 81.0244 98.9225C77.7477 98.4505 75.2311 98.0219 73.3596 94.512C69.8275 87.834 67.8474 84.0257 67.8474 84.0257L77.1026 67.2683C80.1813 61.8543 79.3573 55.9574 76.6682 51.0425Z" fill="#FFBDA7"/>
<path d="M76.9427 49.8057C69.0544 51.4874 66.2057 53.2288 62.7374 60.075C60.3996 64.6807 56.3501 72.6715 56.3501 72.6715C56.3501 72.6715 58.0938 75.384 62.846 76.8975C69.5526 79.0132 71.7882 78.053 71.7882 78.053C71.7882 78.053 75.2054 71.7005 78.035 66.6228C81.631 60.2052 79.8745 52.5995 76.9427 49.8057Z" fill="#455A64"/>
<path d="M67.879 84.004C65.8223 81.7092 61.4087 81.5519 61.4087 81.5519C62.6329 81.3338 63.899 81.3506 65.1146 81.6012C66.3302 81.8518 67.4645 82.3298 68.4347 83.0004L67.879 84.004Z" fill="#F0997A"/>
</svg>
