<svg width="336" height="240" viewBox="0 0 336 240" fill="none" xmlns="http://www.w3.org/2000/svg">
<path d="M336 210.907H0V211.068H336V210.907Z" fill="#EBEBEB"/>
<path d="M302.333 221.272H266.67V221.433H302.333V221.272Z" fill="#EBEBEB"/>
<path d="M222.58 219.256H183.16V219.417H222.58V219.256Z" fill="#EBEBEB"/>
<path d="M268.39 218.329H255.494V218.49H268.39V218.329Z" fill="#EBEBEB"/>
<path d="M96.5393 216.377H67.5156V216.538H96.5393V216.377Z" fill="#EBEBEB"/>
<path d="M63.7727 216.377H53.397V216.538H63.7727V216.377Z" fill="#EBEBEB"/>
<path d="M124.771 219.095H88.3481V219.257H124.771V219.095Z" fill="#EBEBEB"/>
<path d="M159.264 182.177H29.5072C28.4907 182.175 27.5164 181.787 26.7982 181.097C26.0801 180.408 25.6768 179.473 25.6768 178.499V3.64611C25.6856 2.67727 26.0929 1.75089 26.81 1.06821C27.5272 0.385521 28.4964 0.00165968 29.5072 0H159.264C160.281 0 161.257 0.387537 161.977 1.07736C162.696 1.76718 163.101 2.70277 163.101 3.67832V178.499C163.101 179.474 162.696 180.41 161.977 181.099C161.257 181.789 160.281 182.177 159.264 182.177ZM29.5072 0.128838C28.5352 0.130545 27.6037 0.501866 26.917 1.1613C26.2304 1.82073 25.8448 2.71439 25.8448 3.64611V178.499C25.8448 179.43 26.2304 180.324 26.917 180.983C27.6037 181.643 28.5352 182.014 29.5072 182.016H159.264C160.236 182.014 161.168 181.643 161.856 180.984C162.544 180.324 162.931 179.431 162.933 178.499V3.64611C162.931 2.7138 162.544 1.82015 161.856 1.1609C161.168 0.501656 160.236 0.130541 159.264 0.128838H29.5072Z" fill="#EBEBEB"/>
<path d="M304.624 182.177H174.861C173.844 182.175 172.869 181.787 172.15 181.098C171.431 180.408 171.026 179.474 171.024 178.499V3.64611C171.035 2.67668 171.443 1.75031 172.162 1.0678C172.88 0.385295 173.85 0.00164158 174.861 0H304.624C305.634 0.00335268 306.601 0.387963 307.317 1.07047C308.033 1.75297 308.439 2.67838 308.448 3.64611V178.499C308.448 179.472 308.046 180.405 307.329 181.095C306.612 181.784 305.64 182.173 304.624 182.177ZM174.861 0.128838C173.888 0.130541 172.956 0.501656 172.269 1.1609C171.581 1.82015 171.194 2.7138 171.192 3.64611V178.499C171.194 179.431 171.581 180.324 172.269 180.984C172.956 181.643 173.888 182.014 174.861 182.016H304.624C305.597 182.014 306.529 181.643 307.217 180.984C307.904 180.324 308.292 179.431 308.293 178.499V3.64611C308.292 2.7138 307.904 1.82015 307.217 1.1609C306.529 0.501656 305.597 0.130541 304.624 0.128838H174.861Z" fill="#EBEBEB"/>
<path d="M179.229 205.458H186.292V124.914H179.229V205.458Z" fill="#F0F0F0"/>
<path d="M43.5052 210.824L183.577 210.824V205.458L43.5052 205.458V210.824Z" fill="#F0F0F0"/>
<path d="M179.229 124.914H40.7974V205.457H179.229V124.914Z" fill="#F5F5F5"/>
<path d="M180.896 124.914H188.194V119.837H180.896V124.914Z" fill="#E0E0E0"/>
<path d="M180.896 119.838H38.9023V124.915H180.896V119.838Z" fill="#EBEBEB"/>
<path d="M168.443 131.163H51.5758C48.6884 131.163 46.3477 133.407 46.3477 136.175V153.935C46.3477 156.703 48.6884 158.947 51.5758 158.947H168.443C171.331 158.947 173.671 156.703 173.671 153.935V136.175C173.671 133.407 171.331 131.163 168.443 131.163Z" fill="white"/>
<path d="M168.443 167.244H51.5758C48.6884 167.244 46.3477 169.488 46.3477 172.256V190.016C46.3477 192.784 48.6884 195.028 51.5758 195.028H168.443C171.331 195.028 173.671 192.784 173.671 190.016V172.256C173.671 169.488 171.331 167.244 168.443 167.244Z" fill="white"/>
<path d="M79.9209 134.133H140.105C140.762 134.133 141.295 133.622 141.295 132.993V131.466C141.295 130.836 140.762 130.326 140.105 130.326H79.9209C79.264 130.326 78.7315 130.836 78.7315 131.466V132.993C78.7315 133.622 79.264 134.133 79.9209 134.133Z" fill="#F5F5F5"/>
<path d="M79.9209 170.214H140.105C140.762 170.214 141.295 169.704 141.295 169.074V167.547C141.295 166.917 140.762 166.407 140.105 166.407H79.9209C79.264 166.407 78.7315 166.917 78.7315 167.547V169.074C78.7315 169.704 79.264 170.214 79.9209 170.214Z" fill="#F5F5F5"/>
<path d="M300.512 151.34H279.209V155.243H300.512V151.34Z" fill="#E6E6E6"/>
<path d="M262.886 210.907H266.818V77.3018H262.886V210.907Z" fill="#E6E6E6"/>
<path d="M249.272 155.237H279.216V151.334H249.272V155.237Z" fill="#F5F5F5"/>
<path d="M300.512 187.285H279.209V191.189H300.512V187.285Z" fill="#E6E6E6"/>
<path d="M249.272 191.189H279.216V187.285H249.272V191.189Z" fill="#F5F5F5"/>
<path d="M300.512 79.4412H279.209V83.345H300.512V79.4412Z" fill="#E6E6E6"/>
<path d="M249.272 83.3447H279.216V79.4409H249.272V83.3447Z" fill="#F5F5F5"/>
<path d="M300.512 115.387H279.209V119.291H300.512V115.387Z" fill="#E6E6E6"/>
<path d="M249.272 119.297H279.216V115.394H249.272V119.297Z" fill="#F5F5F5"/>
<path d="M292.831 210.907H296.762V77.3018H292.831V210.907Z" fill="#E6E6E6"/>
<path d="M275.278 210.907H279.209V77.3018H275.278V210.907Z" fill="#F5F5F5"/>
<path d="M249.272 210.907H253.203L253.203 77.3018H249.272L249.272 210.907Z" fill="#F5F5F5"/>
<path d="M59.0623 108.635L236.605 108.635V18.2748L59.0623 18.2748V108.635Z" fill="#E0E0E0"/>
<path d="M54.5801 108.635L234.071 108.635V18.2748L54.5801 18.2748V108.635Z" fill="#F5F5F5"/>
<path d="M227.633 101.511V25.3936L61.0042 25.3936V101.511L227.633 101.511Z" fill="white"/>
<path d="M168.001 240C239.96 240 298.295 236.735 298.295 232.708C298.295 228.68 239.96 225.416 168.001 225.416C96.0412 225.416 37.7065 228.68 37.7065 232.708C37.7065 236.735 96.0412 240 168.001 240Z" fill="#F5F5F5"/>
<path d="M260.615 134.777H74.2827C73.6897 134.775 73.1216 134.549 72.7023 134.147C72.283 133.745 72.0467 133.2 72.0449 132.632C72.0467 132.063 72.283 131.519 72.7023 131.117C73.1216 130.715 73.6897 130.488 74.2827 130.487H260.615C261.208 130.488 261.776 130.715 262.195 131.117C262.615 131.519 262.851 132.063 262.853 132.632C262.851 133.2 262.615 133.745 262.195 134.147C261.776 134.549 261.208 134.775 260.615 134.777Z" fill="#146BB8"/>
<path opacity="0.3" d="M260.615 134.777H216.995C216.402 134.775 215.834 134.549 215.415 134.147C214.996 133.745 214.759 133.2 214.758 132.632C214.759 132.063 214.996 131.519 215.415 131.117C215.834 130.715 216.402 130.488 216.995 130.487H260.615C261.208 130.488 261.776 130.715 262.195 131.117C262.615 131.519 262.851 132.063 262.853 132.632C262.851 133.2 262.615 133.745 262.195 134.147C261.776 134.549 261.208 134.775 260.615 134.777Z" fill="#263238"/>
<path d="M255.884 140.156H112.58V155.108H255.884V140.156Z" fill="#263238"/>
<path opacity="0.1" d="M255.884 140.156H112.58V155.108H255.884V140.156Z" fill="white"/>
<path d="M253.801 229.73H258.088L257.913 134.777H251.973L253.801 229.73Z" fill="#263238"/>
<path opacity="0.1" d="M253.801 229.73H258.088L257.913 134.777H251.973L253.801 229.73Z" fill="white"/>
<path d="M214.287 229.73H209.993L219.697 134.777H225.638L214.287 229.73Z" fill="#263238"/>
<path opacity="0.2" d="M214.287 229.73H209.993L219.697 134.777H225.638L214.287 229.73Z" fill="white"/>
<path d="M111.088 229.73H115.375L115.201 134.777H109.26L111.088 229.73Z" fill="#263238"/>
<path opacity="0.1" d="M111.088 229.73H115.375L115.201 134.777H109.26L111.088 229.73Z" fill="white"/>
<path d="M71.5744 229.73H67.2803L76.984 134.777H82.9244L71.5744 229.73Z" fill="#263238"/>
<path opacity="0.2" d="M71.5744 229.73H67.2803L76.984 134.777H82.9244L71.5744 229.73Z" fill="white"/>
<path d="M192.266 130.487H182.374L178.416 111.948H188.308L192.266 130.487Z" fill="#263238"/>
<path d="M205.39 126.667H162.476C162.142 126.671 161.811 126.608 161.504 126.482C161.197 126.357 160.921 126.172 160.692 125.939C160.463 125.706 160.288 125.43 160.176 125.128C160.064 124.826 160.019 124.506 160.043 124.187L161.683 98.1423C161.734 97.475 162.043 96.8501 162.551 96.3909C163.058 95.9317 163.727 95.6717 164.425 95.6622H207.346C207.679 95.6596 208.009 95.7232 208.316 95.8489C208.623 95.9746 208.899 96.1597 209.127 96.3926C209.356 96.6255 209.531 96.9011 209.643 97.2022C209.755 97.5034 209.801 97.8234 209.778 98.1423L208.139 124.187C208.087 124.855 207.776 125.48 207.267 125.939C206.758 126.398 206.089 126.658 205.39 126.667Z" fill="#263238"/>
<path d="M204.718 126.667H161.804C161.47 126.671 161.139 126.608 160.832 126.482C160.525 126.357 160.248 126.172 160.02 125.939C159.791 125.706 159.615 125.43 159.504 125.128C159.392 124.826 159.347 124.506 159.371 124.187L161.011 98.1423C161.061 97.475 161.371 96.8501 161.878 96.3909C162.386 95.9317 163.055 95.6717 163.753 95.6622H206.673C207.007 95.6596 207.337 95.7232 207.644 95.8489C207.95 95.9746 208.226 96.1597 208.455 96.3926C208.683 96.6255 208.859 96.9011 208.971 97.2022C209.083 97.5034 209.129 97.8234 209.106 98.1423L207.466 124.187C207.414 124.855 207.103 125.48 206.594 125.939C206.086 126.398 205.416 126.658 204.718 126.667Z" fill="#146BB8"/>
<path d="M161.798 125.379C161.648 125.38 161.501 125.352 161.363 125.296C161.226 125.241 161.101 125.159 160.998 125.057C160.897 124.95 160.819 124.825 160.769 124.689C160.72 124.552 160.699 124.408 160.709 124.264L162.349 98.2197C162.374 97.8759 162.531 97.5534 162.791 97.3152C163.051 97.0769 163.394 96.9401 163.753 96.9313H206.674C206.824 96.929 206.972 96.9568 207.111 97.013C207.249 97.0692 207.373 97.1524 207.476 97.2573C207.578 97.3623 207.657 97.4867 207.706 97.6225C207.755 97.7582 207.775 97.9024 207.762 98.0457L206.123 124.09C206.099 124.435 205.942 124.758 205.682 124.996C205.422 125.235 205.078 125.371 204.718 125.379H161.798Z" fill="white"/>
<path opacity="0.2" d="M180.647 95.6621L183.436 104.816L191.715 95.6621H180.647Z" fill="black"/>
<path d="M113.938 73.4389C114.005 73.935 114.327 74.3086 114.67 74.2828C115.013 74.2571 115.228 73.8319 115.161 73.3359C115.094 72.8398 114.771 72.4662 114.435 72.492C114.099 72.5177 113.877 72.9558 113.938 73.4389Z" fill="#263238"/>
<path d="M114.502 74.1787C115.107 75.4646 115.889 76.667 116.827 77.754C116.088 78.469 114.737 78.1791 114.737 78.1791L114.502 74.1787Z" fill="#A02724"/>
<path d="M112.224 71.5503C112.173 71.5594 112.121 71.5594 112.07 71.5503C111.995 71.519 111.936 71.4614 111.905 71.3894C111.873 71.3174 111.872 71.2366 111.902 71.1638C112.076 70.7347 112.357 70.3528 112.72 70.0509C113.083 69.749 113.517 69.5362 113.985 69.4309C114.024 69.4245 114.064 69.4255 114.103 69.434C114.142 69.4425 114.179 69.4583 114.211 69.4804C114.244 69.5026 114.271 69.5307 114.292 69.5631C114.314 69.5955 114.328 69.6316 114.334 69.6693C114.348 69.7461 114.33 69.825 114.283 69.8889C114.236 69.9528 114.166 69.9966 114.086 70.0107C113.719 70.0956 113.38 70.2658 113.099 70.5063C112.818 70.7468 112.603 71.0501 112.473 71.3893C112.448 71.4334 112.413 71.4711 112.369 71.4992C112.326 71.5272 112.276 71.5448 112.224 71.5503Z" fill="#263238"/>
<path d="M98.7103 81.2134L102.742 84.1766L108.246 88.2157C107.944 88.8227 107.762 89.4779 107.708 90.1483C107.513 91.6299 107.319 92.725 110.752 93.6334C111.117 93.7168 111.449 93.899 111.709 94.1583C111.969 94.4175 112.145 94.7429 112.217 95.0957C112.352 95.9718 111.794 97.0282 108.622 97.55C105.55 97.99 102.412 97.4777 99.6645 96.0877C98.3205 95.4435 98.3205 94.6705 98.885 93.3628C100.578 89.6458 99.7586 84.9046 98.7103 81.2134Z" fill="#B55B52"/>
<path d="M94.0796 94.5353C94.8539 93.1072 95.4926 91.6153 95.9881 90.0775C95.9881 90.0775 106.202 89.5428 109.576 90.5091C112.949 91.4754 115.046 95.6626 115.046 95.6626L94.0796 94.5353Z" fill="#146BB8"/>
<path d="M98.3537 101.821C98.105 102.542 97.8295 103.425 97.5674 104.236L96.8081 106.749C96.3377 108.424 95.8807 110.105 95.5245 111.78C95.1454 113.418 94.856 115.073 94.6577 116.74C94.4505 118.271 94.401 119.819 94.5098 121.359C94.5494 122.011 94.6529 122.658 94.819 123.292C94.8593 123.42 94.8929 123.562 94.9399 123.685L95.0743 124.032C95.0425 123.97 95.0066 123.91 94.9668 123.852C94.8982 123.758 94.8241 123.668 94.745 123.582C94.6585 123.482 94.5591 123.393 94.4494 123.317C94.315 123.227 94.2948 123.24 94.3217 123.272C94.5185 123.408 94.7303 123.523 94.9534 123.614C95.2558 123.743 95.6254 123.871 95.995 123.994C96.7543 124.239 97.5943 124.464 98.4612 124.683C101.929 125.521 105.712 126.171 109.401 126.925L109.28 131.389C107.31 131.641 105.327 131.798 103.34 131.859C101.324 131.93 99.3047 131.897 97.2919 131.763C96.226 131.694 95.1649 131.57 94.1134 131.389C93.5623 131.292 92.9911 131.183 92.3863 131.022C91.6907 130.85 91.0152 130.61 90.3703 130.307C89.8929 130.086 89.4422 129.816 89.0263 129.502C88.7319 129.277 88.4597 129.027 88.2132 128.754C88.0592 128.58 87.9156 128.397 87.7831 128.207C87.7159 128.097 87.642 127.988 87.5815 127.878L87.4941 127.724L87.0305 126.815C86.8893 126.513 86.7751 126.216 86.6541 125.913C86.2302 124.786 85.924 123.621 85.7402 122.435C85.0682 117.958 85.5991 113.964 86.298 110.079C86.6743 108.147 87.1178 106.214 87.642 104.378C87.9108 103.444 88.193 102.51 88.4954 101.589C88.7978 100.668 89.1204 99.7787 89.5101 98.7673L98.3537 101.821Z" fill="#B55B52"/>
<path d="M92.1374 93.7361C98.4878 92.1256 102.258 97.1117 100.107 105.332C97.9569 113.551 97.2379 113.861 97.2379 113.861L84.1406 111.767C85.7534 103.715 85.6257 95.3788 92.1374 93.7361Z" fill="#146BB8"/>
<path d="M112.654 125.141L111.666 125.057C108.857 125.057 108.373 125.791 106.646 127.331L105.974 130.719C110.51 132.942 112.943 130.5 112.949 130.5H117.149L115.671 127.279C115.413 126.697 114.997 126.192 114.467 125.816C113.936 125.44 113.31 125.206 112.654 125.141Z" fill="#B55B52"/>
<path d="M96.976 74.8038C98.1184 80.6723 98.4746 84.1638 101.982 86.7857C107.251 90.7217 114.508 86.9789 115.221 80.872C115.859 75.3771 113.877 66.6999 107.547 65.1602C106.135 64.826 104.658 64.8381 103.252 65.1955C101.847 65.5529 100.558 66.244 99.5044 67.205C98.451 68.166 97.6671 69.366 97.2252 70.694C96.7833 72.0221 96.6976 73.4355 96.976 74.8038Z" fill="#B55B52"/>
<path d="M109.106 76.852C113.474 76.517 112.197 72.1043 110.846 71.1831C112.896 70.4358 114.307 67.3179 112.338 65.1792C113.494 62.2868 110.188 58.8018 104.388 59.3235C100.155 59.6972 99.6842 61.8423 99.6842 61.8423C99.6842 61.8423 94.6106 61.3334 92.5005 65.3467C90.6996 68.7867 92.8836 70.6226 92.8836 70.6226C92.8836 70.6226 89.0935 71.6791 90.1418 76.4203C91.2573 81.5352 95.3565 80.3499 95.3565 80.3499C95.3565 80.3499 94.4359 85.0396 99.9799 85.104C104.771 85.162 104.832 81.722 104.832 81.722C104.832 81.722 111.041 81.168 109.106 76.852Z" fill="#263238"/>
<path d="M105.854 77.1938C106.344 78.4527 107.301 79.4941 108.542 80.1185C110.141 80.9044 111.364 79.2746 111.082 77.5997C110.827 76.0987 109.462 74.1726 107.776 74.0824C106.089 73.9922 105.256 75.6349 105.854 77.1938Z" fill="#B55B52"/>
<path d="M171.004 222.355L176.978 220.03L172.758 206.276L166.783 208.595L171.004 222.355Z" fill="#B55B52"/>
<path opacity="0.2" d="M168.833 215.269L174.868 213.143L172.758 206.276L166.783 208.595L168.833 215.269Z" fill="black"/>
<path d="M176.46 217.737L169.626 220.011C169.568 220.028 169.515 220.056 169.469 220.092C169.423 220.129 169.384 220.174 169.356 220.225C169.328 220.276 169.311 220.332 169.305 220.389C169.3 220.446 169.306 220.504 169.323 220.559L170.869 225.854C170.968 226.127 171.176 226.351 171.446 226.479C171.716 226.607 172.028 226.627 172.314 226.537C174.673 225.699 175.627 225.249 178.543 224.037C181.414 222.886 184.222 221.596 186.957 220.172C189.235 218.884 187.864 216.687 186.755 217.048C184.128 217.898 179.82 218.452 177.636 217.731C177.254 217.607 176.84 217.61 176.46 217.737Z" fill="#263238"/>
<path d="M123.023 143.011C123.023 143.011 168.175 146.876 169.344 159.328C171.696 184.664 175.304 209.092 175.304 209.092L166.118 212.313C166.118 212.313 154.876 184.484 155.024 164.643C142 161.119 107.755 166.292 102.157 156.661C97.2113 148.158 101.552 142.051 101.552 142.051L123.023 143.011Z" fill="#263238"/>
<path d="M165.433 214.316L176.871 210.612L176.373 205.62L163.478 209.601L165.433 214.316Z" fill="#146BB8"/>
<path d="M178.981 218.001C178.431 218.171 177.863 218.281 177.287 218.33C177.258 218.334 177.228 218.329 177.202 218.316C177.176 218.304 177.154 218.284 177.139 218.259C177.125 218.236 177.117 218.209 177.117 218.182C177.117 218.155 177.125 218.128 177.139 218.105C177.287 217.911 178.604 216.211 179.444 216.236C179.54 216.242 179.634 216.27 179.716 216.318C179.798 216.367 179.866 216.434 179.915 216.513C180.002 216.627 180.056 216.761 180.072 216.901C180.087 217.042 180.063 217.184 180.002 217.312C179.762 217.655 179.398 217.9 178.981 218.001ZM177.637 218.001C178.799 217.847 179.592 217.551 179.774 217.183C179.812 217.099 179.825 217.007 179.812 216.916C179.799 216.825 179.76 216.739 179.7 216.668C179.679 216.627 179.646 216.591 179.606 216.566C179.566 216.541 179.519 216.528 179.471 216.526C178.987 216.507 178.154 217.338 177.603 218.001H177.637Z" fill="#146BB8"/>
<path d="M177.32 218.322C177.296 218.329 177.271 218.329 177.247 218.322C177.222 218.318 177.199 218.309 177.179 218.294C177.159 218.28 177.143 218.261 177.132 218.239C177.132 218.168 176.36 216.538 176.763 215.765C176.815 215.666 176.89 215.58 176.982 215.513C177.074 215.446 177.18 215.4 177.294 215.379C177.417 215.339 177.551 215.341 177.673 215.384C177.796 215.427 177.899 215.51 177.966 215.617C178.335 216.21 177.872 217.723 177.394 218.271C177.376 218.295 177.35 218.313 177.32 218.322ZM177.32 215.681C177.263 215.7 177.211 215.73 177.166 215.768C177.12 215.807 177.084 215.854 177.058 215.907C176.817 216.364 177.112 217.343 177.334 217.891C177.704 217.285 177.972 216.158 177.73 215.771C177.683 215.701 177.603 215.617 177.388 215.662L177.32 215.681Z" fill="#146BB8"/>
<path d="M139.037 226.446L145.421 226.156L146.462 211.707L140.078 211.997L139.037 226.446Z" fill="#B55B52"/>
<path d="M145.569 225.113L138.338 224.894C138.278 224.889 138.218 224.896 138.16 224.915C138.103 224.933 138.05 224.961 138.005 224.999C137.959 225.037 137.922 225.083 137.895 225.134C137.868 225.186 137.852 225.242 137.848 225.3L137.317 230.769C137.311 230.914 137.336 231.059 137.389 231.195C137.442 231.331 137.523 231.456 137.627 231.562C137.731 231.668 137.855 231.753 137.993 231.812C138.131 231.872 138.281 231.905 138.432 231.909C140.952 231.941 142.155 231.838 145.334 231.909C147.289 231.967 151.14 232.244 153.821 231.909C156.502 231.574 156.092 229.055 154.923 228.959C152.161 228.746 148.458 226.917 146.691 225.493C146.374 225.247 145.977 225.112 145.569 225.113Z" fill="#263238"/>
<path d="M147.84 226.252C147.263 226.22 146.69 226.129 146.133 225.981C146.105 225.975 146.079 225.961 146.059 225.941C146.038 225.921 146.025 225.895 146.02 225.867C146.015 225.84 146.019 225.812 146.03 225.786C146.042 225.76 146.061 225.739 146.086 225.724C146.294 225.588 148.156 224.435 148.935 224.77C149.024 224.807 149.101 224.865 149.16 224.938C149.218 225.011 149.257 225.098 149.271 225.189C149.31 225.325 149.311 225.468 149.273 225.603C149.235 225.739 149.16 225.863 149.056 225.962C148.704 226.204 148.269 226.308 147.84 226.252ZM146.55 225.782C147.692 226.039 148.566 226.033 148.855 225.782C148.921 225.714 148.967 225.63 148.988 225.54C149.01 225.449 149.005 225.355 148.976 225.266C148.969 225.222 148.951 225.179 148.923 225.143C148.895 225.107 148.857 225.078 148.814 225.06C148.371 224.867 147.282 225.35 146.496 225.782H146.55Z" fill="#146BB8"/>
<path d="M146.14 225.988C146.116 225.994 146.091 225.994 146.066 225.988C146.045 225.975 146.027 225.957 146.014 225.936C146.001 225.915 145.994 225.891 145.992 225.866C145.992 225.795 145.905 224.017 146.57 223.437C146.657 223.356 146.765 223.296 146.882 223.265C147 223.233 147.123 223.231 147.242 223.257C147.371 223.264 147.493 223.312 147.59 223.394C147.686 223.476 147.751 223.587 147.773 223.708C147.894 224.384 146.893 225.641 146.241 225.988C146.209 226.001 146.172 226.001 146.14 225.988ZM147.101 223.534C147.041 223.53 146.98 223.538 146.924 223.558C146.867 223.578 146.815 223.61 146.772 223.65C146.375 223.991 146.288 225.009 146.288 225.583C146.859 225.145 147.531 224.185 147.451 223.74C147.451 223.657 147.383 223.56 147.168 223.528L147.101 223.534Z" fill="#146BB8"/>
<path opacity="0.2" d="M140.078 211.997L146.469 211.707L145.864 219.972L139.5 219.965L140.078 211.997Z" fill="black"/>
<path d="M108.024 142.321C108.024 142.321 156.677 149.452 155.904 160.191C154.513 179.516 147.753 217.285 147.753 217.285L138.17 217.414C138.17 217.414 135.905 178.673 139.514 164.552C127.545 164.552 93.7842 164.153 89.181 158.258C84.0872 151.745 89.3221 141.509 89.3221 141.509L108.024 142.321Z" fill="#263238"/>
<path d="M137.041 218.136L148.639 217.962L149.211 212.087L136.483 212.564L137.041 218.136Z" fill="#146BB8"/>
<path d="M116.592 93.0863C112.674 92.3519 95.0072 92.5645 95.0072 92.5645C93.2412 92.5181 91.5214 93.1086 90.1876 94.219C88.8537 95.3295 88.0029 96.8792 87.8034 98.5619C87.1851 103.786 90.6459 115.459 90.7669 121.411C90.9147 128.723 89.4565 131.686 89.3087 141.529L123.023 143.011C123.023 123.215 122.122 106.827 121.309 98.9677C121.02 96.2041 120.51 93.8142 116.592 93.0863Z" fill="#146BB8"/>
<path opacity="0.3" d="M116.592 93.0863C112.674 92.3519 95.0072 92.5645 95.0072 92.5645C93.2412 92.5181 91.5214 93.1086 90.1876 94.219C88.8537 95.3295 88.0029 96.8792 87.8034 98.5619C87.1851 103.786 90.6459 115.459 90.7669 121.411C90.9147 128.723 89.4565 131.686 89.3087 141.529L123.023 143.011C123.023 123.215 122.122 106.827 121.309 98.9677C121.02 96.2041 120.51 93.8142 116.592 93.0863Z" fill="white"/>
<path d="M121.208 99.3223C122.263 102.801 123.325 106.376 124.42 109.868C125.516 113.359 126.638 116.87 127.901 120.175C128.21 121.019 128.573 121.804 128.869 122.616L129.386 123.756L129.454 123.898V123.969V124.008V123.963C129.337 123.764 129.193 123.582 129.024 123.421C128.795 123.209 128.708 123.189 128.688 123.189C128.837 123.319 129.01 123.422 129.198 123.492C129.527 123.644 129.866 123.776 130.213 123.885C130.972 124.136 131.826 124.362 132.693 124.587C136.207 125.444 140.044 126.101 143.781 126.868L143.66 131.332C141.654 131.591 139.635 131.748 137.612 131.802C135.564 131.878 133.513 131.841 131.47 131.693C130.383 131.618 129.302 131.485 128.231 131.293C127.666 131.19 127.081 131.061 126.45 130.888C125.701 130.686 124.979 130.401 124.299 130.037C123.758 129.739 123.261 129.373 122.821 128.949C122.485 128.617 122.196 128.244 121.961 127.841L121.732 127.435L120.973 126.056C120.529 125.154 120.046 124.246 119.629 123.351C118.802 121.54 118.077 119.75 117.351 117.952C116.625 116.155 116.007 114.358 115.382 112.554C114.139 108.927 113.017 105.339 112.022 101.603L121.208 99.3223Z" fill="#B55B52"/>
<path d="M111.632 95.7339C116.242 91.2246 122.136 93.6854 124.669 101.828C127.203 109.971 126.746 110.563 126.746 110.563L114.361 115.169C111.437 107.413 106.915 100.327 111.632 95.7339Z" fill="#146BB8"/>
<path d="M147.074 125.141L146.086 125.057C143.277 125.057 142.8 125.791 141.073 127.331L140.401 130.719C144.937 132.942 147.37 130.5 147.37 130.5H151.576L150.091 127.279C149.834 126.696 149.419 126.19 148.888 125.814C148.357 125.438 147.731 125.205 147.074 125.141Z" fill="#B55B52"/>
<path d="M90.7871 166.911H133.849C134.795 166.911 135.562 166.175 135.562 165.268V162.614C135.562 161.707 134.795 160.971 133.849 160.971H90.7871C89.8408 160.971 89.0735 161.707 89.0735 162.614V165.268C89.0735 166.175 89.8408 166.911 90.7871 166.911Z" fill="#146BB8"/>
<path d="M90.9822 233.036H89.0737L91.2712 166.904H93.9121L90.9822 233.036Z" fill="#146BB8"/>
<path opacity="0.4" d="M90.9822 233.036H89.0737L91.2712 166.904H93.9121L90.9822 233.036Z" fill="white"/>
<path d="M108.535 233.036H110.443L108.252 166.904H105.611L108.535 233.036Z" fill="#146BB8"/>
<path opacity="0.4" d="M108.535 233.036H110.443L108.252 166.904H105.611L108.535 233.036Z" fill="white"/>
<path d="M116.101 233.036H114.193L116.39 166.904H119.031L116.101 233.036Z" fill="#146BB8"/>
<path opacity="0.4" d="M116.101 233.036H114.193L116.39 166.904H119.031L116.101 233.036Z" fill="white"/>
<path d="M133.654 233.036H135.563L133.372 166.904H130.731L133.654 233.036Z" fill="#146BB8"/>
<path opacity="0.4" d="M133.654 233.036H135.563L133.372 166.904H130.731L133.654 233.036Z" fill="white"/>
<g opacity="0.3">
<path d="M91.2708 166.904H93.9118L93.7841 169.713H91.1768L91.2708 166.904Z" fill="#146BB8"/>
<path d="M108.34 169.713H105.732L105.611 166.904H108.246L108.34 169.713Z" fill="#146BB8"/>
<path d="M119.025 166.904L118.904 169.713H116.296L116.39 166.904H119.025Z" fill="#146BB8"/>
<path d="M133.466 169.713H130.852L130.731 166.904H133.372L133.466 169.713Z" fill="#146BB8"/>
</g>
<path d="M261.408 86.0701H153.773C152.937 86.0785 152.108 85.9204 151.339 85.606C150.569 85.2916 149.876 84.8276 149.304 84.2434C148.731 83.6592 148.291 82.9675 148.011 82.2119C147.731 81.4563 147.618 80.6534 147.678 79.8537L151.784 14.5522C151.913 12.8791 152.692 11.313 153.965 10.1624C155.239 9.01185 156.916 8.36017 158.666 8.33576H266.273C267.109 8.32743 267.938 8.48546 268.708 8.79988C269.477 9.1143 270.17 9.57828 270.743 10.1625C271.316 10.7467 271.756 11.4384 272.036 12.194C272.315 12.9496 272.428 13.7525 272.368 14.5522L268.255 79.8795C268.122 81.543 267.346 83.0992 266.08 84.2439C264.814 85.3887 263.148 86.0398 261.408 86.0701Z" fill="#146BB8"/>
<path d="M168.175 72.2649L178.1 104.816L207.547 72.2649H168.175Z" fill="#146BB8"/>
<path opacity="0.1" d="M256.16 59.7942H195.841C195.372 59.7989 194.907 59.7103 194.476 59.5341C194.044 59.3579 193.655 59.0979 193.334 58.7704C193.012 58.4429 192.765 58.0551 192.608 57.6315C192.451 57.2079 192.387 56.7576 192.421 56.3091L194.725 19.7063C194.798 18.7683 195.234 17.8902 195.948 17.2452C196.662 16.6001 197.602 16.2348 198.583 16.2212H258.901C259.372 16.2115 259.839 16.2967 260.273 16.4713C260.707 16.6458 261.098 16.9057 261.42 17.2343C261.743 17.5628 261.99 17.9527 262.145 18.3785C262.3 18.8043 262.361 19.2567 262.322 19.7063L260.017 56.3091C259.945 57.2471 259.509 58.1251 258.795 58.7702C258.081 59.4153 257.141 59.7806 256.16 59.7942Z" fill="white"/>
<path opacity="0.1" d="M223.89 75.5829H163.565C163.097 75.5867 162.632 75.4975 162.202 75.3209C161.771 75.1443 161.383 74.8841 161.062 74.5567C160.742 74.2293 160.495 73.8418 160.338 73.4187C160.181 72.9955 160.118 72.5457 160.151 72.0978L162.456 35.4949C162.528 34.5581 162.963 33.6809 163.676 33.036C164.388 32.3911 165.327 32.025 166.307 32.0099H226.632C227.102 32.0011 227.569 32.087 228.002 32.2619C228.435 32.4369 228.825 32.697 229.147 33.0254C229.468 33.3539 229.715 33.7434 229.87 34.1687C230.024 34.5941 230.085 35.0459 230.046 35.4949L227.741 72.0978C227.669 73.0347 227.234 73.9118 226.521 74.5568C225.809 75.2017 224.87 75.5677 223.89 75.5829Z" fill="white"/>
<g opacity="0.5">
<path d="M162.765 14.0178C162.753 14.5124 162.549 14.9849 162.192 15.3424C161.835 15.6999 161.352 15.9167 160.837 15.9503C160.592 15.9387 160.353 15.8779 160.134 15.7717C159.915 15.6656 159.722 15.5166 159.568 15.3343C159.413 15.1521 159.3 14.9407 159.236 14.7138C159.173 14.487 159.159 14.2499 159.197 14.0178C159.212 13.524 159.418 13.0532 159.774 12.6963C160.13 12.3393 160.612 12.1216 161.126 12.0852C161.371 12.0968 161.61 12.1577 161.829 12.2638C162.047 12.3699 162.24 12.519 162.395 12.7012C162.55 12.8835 162.662 13.0949 162.726 13.3217C162.79 13.5485 162.803 13.7857 162.765 14.0178Z" fill="white"/>
<path d="M169.344 14.0178C169.33 14.512 169.125 14.9836 168.769 15.3408C168.412 15.698 167.93 15.9153 167.415 15.9503C167.17 15.9396 166.93 15.8794 166.71 15.7736C166.491 15.6679 166.297 15.519 166.142 15.3366C165.986 15.1543 165.873 14.9426 165.809 14.7153C165.744 14.4881 165.731 14.2504 165.769 14.0178C165.784 13.524 165.99 13.0532 166.346 12.6963C166.702 12.3393 167.184 12.1216 167.698 12.0852C167.943 12.0969 168.182 12.1578 168.401 12.2639C168.62 12.3699 168.813 12.5188 168.969 12.7009C169.124 12.8831 169.237 13.0944 169.302 13.3212C169.367 13.548 169.381 13.7853 169.344 14.0178Z" fill="white"/>
<path d="M175.97 14.0178C175.958 14.5124 175.754 14.9849 175.397 15.3424C175.04 15.6999 174.557 15.9167 174.042 15.9503C173.797 15.9387 173.557 15.8779 173.339 15.7717C173.12 15.6656 172.927 15.5166 172.773 15.3343C172.618 15.1521 172.505 14.9407 172.441 14.7138C172.377 14.487 172.364 14.2499 172.402 14.0178C172.417 13.524 172.623 13.0532 172.979 12.6963C173.335 12.3393 173.817 12.1216 174.331 12.0852C174.575 12.0968 174.815 12.1577 175.034 12.2638C175.252 12.3699 175.445 12.519 175.6 12.7012C175.754 12.8835 175.867 13.0949 175.931 13.3217C175.995 13.5485 176.008 13.7857 175.97 14.0178Z" fill="white"/>
</g>
<path opacity="0.3" d="M260.574 85.4649H152.967C152.108 85.4714 151.257 85.3075 150.467 84.9836C149.678 84.6596 148.966 84.1825 148.378 83.5824C147.79 82.9823 147.338 82.272 147.05 81.4963C146.761 80.7205 146.644 79.896 146.704 79.0746L150.817 13.7731C150.946 12.059 151.741 10.4536 153.045 9.27411C154.349 8.09458 156.067 7.42658 157.859 7.40204H265.44C266.299 7.39557 267.15 7.55947 267.94 7.88344C268.729 8.20741 269.441 8.68444 270.029 9.28458C270.617 9.88471 271.069 10.595 271.357 11.3707C271.645 12.1465 271.763 12.971 271.703 13.7924L267.597 79.0939C267.466 80.8042 266.674 82.406 265.374 83.5848C264.075 84.7635 262.363 85.4342 260.574 85.4649ZM157.859 7.73058C156.15 7.75056 154.51 8.38536 153.266 9.50922C152.021 10.6331 151.262 12.164 151.139 13.7988L147.027 79.1003C146.967 79.8783 147.077 80.6597 147.348 81.3949C147.62 82.1302 148.048 82.8035 148.605 83.372C149.162 83.9406 149.836 84.3921 150.585 84.698C151.333 85.004 152.14 85.1576 152.954 85.1493H260.574C262.284 85.1278 263.922 84.4925 265.167 83.369C266.411 82.2454 267.17 80.7153 267.294 79.081L271.4 13.7795C271.458 12.9993 271.346 12.216 271.072 11.4793C270.797 10.7427 270.366 10.0687 269.806 9.50008C269.246 8.93144 268.568 8.48055 267.817 8.17595C267.065 7.87135 266.256 7.7197 265.44 7.73058H157.859Z" fill="#263238"/>
<path d="M202.305 47.2901C201.848 48.2178 201.432 49.0101 200.961 49.8669C200.491 50.7237 200.021 51.4967 199.537 52.3019C198.549 53.906 197.521 55.5229 196.419 57.0303C195.863 57.8033 195.294 58.5699 194.712 59.33C194.1 60.0773 193.522 60.8374 192.871 61.5654C191.599 63.0741 190.227 64.5028 188.765 65.8428C188.395 66.1907 187.992 66.487 187.602 66.8542C187.215 67.2019 186.807 67.5267 186.379 67.8269L185.089 68.761L184.692 69.0251C184.517 69.1317 184.335 69.2285 184.148 69.315C183.779 69.4848 183.391 69.6144 182.992 69.7015C182.203 69.8782 181.383 69.8843 180.592 69.7193C179.8 69.5544 179.057 69.2227 178.416 68.7481C178.098 68.5076 177.807 68.2355 177.549 67.9364L177.367 67.7045L177.28 67.5885L177.247 67.537L177.126 67.3309L176.642 66.4934C176.494 66.2229 176.393 65.9652 176.272 65.7011C175.849 64.7291 175.503 63.7277 175.237 62.7056C174.769 60.843 174.442 58.9507 174.256 57.0432C174.06 55.1855 173.974 53.3186 174.001 51.4516C174.015 50.9219 174.226 50.4145 174.596 50.0209C174.966 49.6273 175.471 49.3734 176.019 49.305C176.567 49.2366 177.123 49.3582 177.586 49.6478C178.049 49.9375 178.388 50.3762 178.543 50.8847V50.962C179.434 54.2452 180.536 57.4724 181.843 60.6249C182.142 61.2918 182.49 61.9376 182.885 62.5574C182.972 62.6863 183.059 62.8409 183.147 62.9504L183.402 63.2467L183.463 63.324L183.429 63.2725L183.355 63.1759C183.25 63.0438 183.128 62.9248 182.992 62.8215C182.724 62.6141 182.412 62.4647 182.078 62.3835C181.744 62.3157 181.398 62.3157 181.063 62.3835C180.89 62.4186 180.721 62.4727 180.559 62.5445C180.472 62.5445 180.398 62.6283 180.318 62.6669C180.237 62.7056 180.116 62.8022 180.203 62.7314L181.043 61.9454C181.326 61.7007 181.601 61.4043 181.877 61.1209C182.152 60.8374 182.434 60.5604 182.703 60.2577C184.919 57.7105 186.936 55.0105 188.738 52.1795C189.658 50.743 190.566 49.2807 191.426 47.799L192.723 45.5701L193.952 43.3928L194.02 43.2768C194.603 42.2761 195.567 41.53 196.71 41.1944C197.854 40.8589 199.088 40.9598 200.156 41.4761C201.224 41.9925 202.042 42.8842 202.44 43.9652C202.838 45.0462 202.785 46.2329 202.292 47.2772L202.305 47.2901Z" fill="#263238"/>
<path d="M174.632 51.1685L171.36 49.3712L174.881 45.9248C175.913 46.6578 176.87 47.484 177.737 48.392C177.941 48.5998 178.092 48.8506 178.177 49.1242C178.262 49.3978 178.28 49.6868 178.227 49.9679C178.175 50.249 178.055 50.5145 177.876 50.7431C177.698 50.9717 177.466 51.1571 177.2 51.2845C176.794 51.4649 176.348 51.5487 175.901 51.5285C175.454 51.5083 175.019 51.3848 174.632 51.1685Z" fill="#FFC3BD"/>
<path d="M170.614 45.6795L172.395 44.462C172.626 44.3007 172.915 44.2332 173.198 44.2742C173.481 44.3152 173.735 44.4613 173.907 44.681L174.881 45.9243L171.36 49.3707L170.251 46.9486C170.15 46.7292 170.132 46.4834 170.198 46.2523C170.264 46.0212 170.411 45.819 170.614 45.6795Z" fill="#FFC3BD"/>
<path d="M195.256 44.4046C195.523 43.5628 196.027 42.8078 196.712 42.2226C197.397 41.6373 198.237 41.2444 199.14 41.087C200.445 40.8107 201.767 40.617 203.099 40.5073C207.107 40.3573 211.121 40.4262 215.121 40.7134C217.217 40.8487 219.361 41.1321 221.068 41.4027H221.128C222.032 41.5464 222.84 42.0279 223.374 42.7416C223.908 43.4553 224.125 44.3429 223.978 45.2098C223.138 49.8609 220.671 57.9519 220.403 65.5856C220.046 75.6092 220.208 81.3811 220.026 83.7968L193.113 83.3008C191.238 58.8023 193.57 49.9511 195.256 44.4046Z" fill="white"/>
<path d="M221.847 41.0218H221.76C219.959 40.7384 217.728 40.4356 215.49 40.2939L214.294 40.2295C213.118 44.8934 206.109 52.7397 203.986 64.6314C203.166 54.6916 202.534 44.3008 203.737 40.2488C201.835 40.3042 199.937 40.4569 198.052 40.7062C197.055 40.9224 196.135 41.388 195.387 42.0557C194.638 42.7233 194.088 43.5691 193.791 44.5069C192.138 49.1708 188.98 59.6196 190.922 85.3099H220.833C221.027 82.7331 220.329 77.3219 221.411 68.9926C222.452 60.9273 223.951 49.9503 224.831 45.048C224.989 44.1353 224.764 43.1997 224.205 42.4455C223.646 41.6912 222.798 41.1795 221.847 41.0218Z" fill="#263238"/>
<path opacity="0.2" d="M203.347 83.9701C203.302 83.9719 203.258 83.9568 203.224 83.9279C203.19 83.8991 203.169 83.8588 203.166 83.8155C202.534 76.5683 203.717 66.1647 203.73 66.0552C203.733 66.0331 203.74 66.0117 203.751 65.9923C203.762 65.9729 203.777 65.9558 203.795 65.942C203.813 65.9282 203.834 65.918 203.856 65.912C203.879 65.906 203.902 65.9043 203.925 65.907C203.972 65.9119 204.015 65.9341 204.045 65.969C204.075 66.0039 204.09 66.0487 204.086 66.0938C204.086 66.1969 202.89 76.5748 203.522 83.7833C203.524 83.8058 203.522 83.8286 203.516 83.8503C203.509 83.8721 203.498 83.8923 203.483 83.9098C203.468 83.9273 203.449 83.9416 203.428 83.952C203.407 83.9623 203.384 83.9685 203.36 83.9701H203.347Z" fill="white"/>
<path opacity="0.3" d="M220.792 51.2202C219.684 56.0387 220.275 62.7126 221.464 68.8001C222.345 61.9653 223.548 53.0948 224.428 47.6063C223.198 46.8204 221.673 47.3744 220.792 51.2202Z" fill="black"/>
<path d="M203.669 40.4744C207.157 39.74 207.762 37.6786 207.513 35.3982C207.452 34.8284 207.356 34.2627 207.224 33.7039L211.579 30.2897L214.784 27.7903C213.911 31.4879 212.95 38.2326 215.584 40.7514C215.584 40.7514 213.434 44.1334 207.453 43.7211C202.399 43.3732 203.669 40.4744 203.669 40.4744Z" fill="#FFC3BD"/>
<path d="M208.972 42.8708L208.004 43.7469L211.095 44.8614L210.692 43.7341L208.972 42.8708Z" fill="#E0E0E0"/>
<path d="M211.337 46.4331C211.337 46.4331 210.121 43.4892 208.972 42.8643C211.232 42.3477 213.302 41.2496 214.959 39.6885L216.794 40.3906C216.794 40.3906 217.372 43.8048 211.337 46.4331Z" fill="#F5F5F5"/>
<path d="M207.278 42.6396L208.004 43.7477L204.751 44.0182L205.403 43.0326L207.278 42.6396Z" fill="#E0E0E0"/>
<path d="M203.118 45.6019C204.31 44.3849 205.719 43.3814 207.278 42.6386C205.511 42.1362 205.403 39.8042 205.403 39.8042L203.689 40.1199C203.689 40.1199 200.544 43.0509 203.118 45.6019Z" fill="#F5F5F5"/>
<path opacity="0.2" d="M207.224 33.698C207.355 34.2591 207.451 34.8269 207.513 35.3987C209.14 35.1153 211.317 33.4661 211.545 31.8879C211.623 31.3587 211.638 30.8228 211.592 30.2903L207.224 33.698Z" fill="black"/>
<path d="M201.936 16.8392C200.377 18.6752 200.524 25.3168 203.824 25.3941C207.123 25.4714 204.771 13.4894 201.936 16.8392Z" fill="#263238"/>
<path d="M216.149 21.6707C215.819 26.7018 215.887 29.6587 213.239 32.2612C209.261 36.1714 202.809 33.9232 201.566 28.9178C200.457 24.4085 201.183 16.9424 206.311 14.9003C207.43 14.441 208.655 14.2665 209.865 14.3936C211.076 14.5208 212.232 14.9454 213.221 15.6262C214.21 16.3071 215 17.2212 215.513 18.2801C216.025 19.339 216.244 20.5069 216.149 21.6707Z" fill="#FFC3BD"/>
<path d="M213.568 17.484C210.269 20.6213 214.556 22.921 212.896 24.6088C216.008 26.1677 214.865 27.3144 214.865 27.3144C214.543 28.1721 214.543 29.1107 214.865 29.9684C218.373 29.1052 224.885 17.935 217.775 16.2214C213.521 18.0381 213.568 17.484 213.568 17.484Z" fill="#263238"/>
<path d="M214.919 19.7381C211.794 20.2019 207.863 18.7718 205.423 17.5608C202.984 16.3497 202.628 18.6366 203.528 19.3323C201.963 19.3838 199.98 18.1985 200.471 15.5509C200.921 13.1352 204.221 10.8483 208.918 12.8904C212.244 14.3334 216.343 12.433 217.943 14.1015C219.542 15.7699 217.002 19.4225 214.919 19.7381Z" fill="#263238"/>
<path d="M217.056 16.4592C219.153 16.1951 219.24 14.9261 218.655 12.7036C220.92 15.7893 219.999 16.7362 218.655 17.4835C217.157 17.0004 217.056 16.4592 217.056 16.4592Z" fill="#263238"/>
<path d="M217.56 25.5292C217.095 26.5133 216.284 27.3092 215.269 27.7774C213.972 28.3379 213.313 27.1912 213.662 25.8448C213.978 24.6273 215.006 22.8751 216.35 22.888C217.694 22.9009 218.145 24.2859 217.56 25.5292Z" fill="#FFC3BD"/>
<path d="M207.957 23.1908C207.957 23.5966 207.729 23.9316 207.453 23.938C207.178 23.9445 206.976 23.6095 206.976 23.1908C206.976 22.772 207.205 22.45 207.48 22.45C207.756 22.45 207.957 22.7785 207.957 23.1908Z" fill="#263238"/>
<path d="M203.145 23.2297C203.145 23.642 202.917 23.9706 202.635 23.977C202.352 23.9834 202.131 23.6485 202.137 23.2362C202.144 22.8239 202.359 22.4954 202.641 22.4954C202.924 22.4954 203.145 22.8239 203.145 23.2297Z" fill="#263238"/>
<path d="M204.96 23.3716C204.457 24.6262 203.779 25.8095 202.944 26.8889C203.233 27.0838 203.563 27.2164 203.911 27.2775C204.259 27.3387 204.617 27.327 204.96 27.2432V23.3716Z" fill="#ED847E"/>
<path d="M206.653 28.3449C207.141 28.2925 207.612 28.1435 208.037 27.9073C208.461 27.6711 208.83 27.3529 209.119 26.9728C209.137 26.9463 209.143 26.9141 209.136 26.8833C209.129 26.8525 209.11 26.8256 209.082 26.8085C209.055 26.7914 209.021 26.7856 208.989 26.7922C208.957 26.7989 208.929 26.8175 208.911 26.844C208.588 27.249 208.17 27.5763 207.692 27.7999C207.214 28.0235 206.688 28.1373 206.156 28.1323C206.139 28.1323 206.123 28.1355 206.108 28.1417C206.093 28.148 206.079 28.1571 206.068 28.1685C206.056 28.18 206.048 28.1936 206.042 28.2084C206.036 28.2232 206.034 28.239 206.035 28.2547C206.035 28.2705 206.038 28.2861 206.045 28.3006C206.051 28.3152 206.061 28.3282 206.073 28.3391C206.085 28.3499 206.099 28.3583 206.114 28.3638C206.13 28.3692 206.146 28.3716 206.163 28.3707C206.337 28.3449 206.499 28.3449 206.653 28.3449Z" fill="#263238"/>
<path d="M210.289 21.5612C210.331 21.5589 210.371 21.543 210.403 21.5161C210.43 21.4977 210.452 21.4742 210.469 21.4471C210.486 21.4199 210.497 21.3897 210.502 21.3583C210.506 21.327 210.504 21.295 210.495 21.2646C210.486 21.2341 210.471 21.2057 210.45 21.1811C210.219 20.8761 209.916 20.6281 209.565 20.4578C209.215 20.2876 208.827 20.1998 208.434 20.2019C208.401 20.2043 208.37 20.213 208.341 20.2274C208.312 20.2417 208.286 20.2615 208.266 20.2856C208.245 20.3096 208.23 20.3374 208.22 20.3674C208.211 20.3973 208.208 20.4286 208.212 20.4596C208.219 20.524 208.251 20.5833 208.303 20.6253C208.354 20.6673 208.42 20.6887 208.488 20.6851C208.8 20.6823 209.108 20.7524 209.385 20.8893C209.663 21.0262 209.901 21.2259 210.08 21.471C210.105 21.5009 210.137 21.5247 210.173 21.5404C210.209 21.5561 210.249 21.5632 210.289 21.5612Z" fill="#263238"/>
<path d="M201.197 21.7612C201.237 21.756 201.275 21.7415 201.308 21.7191C201.34 21.6966 201.367 21.6669 201.385 21.6324C201.514 21.3536 201.709 21.1079 201.955 20.9154C202.202 20.7228 202.492 20.5888 202.803 20.5244C202.836 20.5214 202.868 20.5118 202.897 20.4962C202.926 20.4806 202.951 20.4594 202.97 20.4338C202.99 20.4083 203.004 20.379 203.011 20.348C203.018 20.317 203.018 20.2849 203.011 20.2538C203 20.1918 202.964 20.1362 202.912 20.098C202.86 20.0598 202.795 20.0419 202.729 20.0477C202.337 20.1218 201.97 20.2843 201.656 20.5218C201.343 20.7593 201.094 21.065 200.928 21.4134C200.9 21.4708 200.896 21.5365 200.917 21.5966C200.939 21.6567 200.984 21.7065 201.042 21.7355C201.091 21.757 201.144 21.7658 201.197 21.7612Z" fill="#263238"/>
<path d="M225.631 43.9343C226.451 45.5899 227.136 47.1553 227.808 48.7658C228.48 50.3762 229.078 52.0189 229.676 53.6616C230.85 57.0096 231.797 60.4266 232.512 63.8913C232.667 64.7868 232.841 65.6629 232.956 66.5841L233.043 67.2669L233.09 67.6083V67.7822V68.0206C233.157 68.6869 233.157 69.3578 233.09 70.024C232.935 71.4819 232.411 72.8815 231.565 74.1017C230.771 75.2194 229.729 76.1544 228.514 76.8396C227.501 77.4098 226.411 77.8433 225.275 78.1279C224.263 78.3935 223.228 78.5703 222.183 78.6562C220.213 78.8348 218.226 78.759 216.277 78.4307C215.748 78.3457 215.266 78.087 214.914 77.6991C214.563 77.3112 214.363 76.8181 214.348 76.3043C214.334 75.7905 214.506 75.2879 214.836 74.8826C215.166 74.4772 215.632 74.1944 216.156 74.0824L216.398 74.0309C217.07 73.8827 217.95 73.7024 218.703 73.5091C219.455 73.3158 220.221 73.0904 220.934 72.8649C222.177 72.4831 223.33 71.8702 224.327 71.0612C224.591 70.827 224.791 70.5353 224.912 70.2108C224.959 69.9834 224.959 69.7491 224.912 69.5216C224.889 69.348 224.855 69.1759 224.811 69.0062L224.569 67.9562C224.415 67.2218 224.193 66.4617 223.991 65.7144C223.575 64.2005 223.104 62.6867 222.567 61.1664C222.029 59.6461 221.478 58.1323 220.893 56.6184C220.309 55.1046 219.69 53.5907 219.065 52.1091C218.44 50.6275 217.782 49.0685 217.157 47.6578V47.5933C216.654 46.5187 216.618 45.2967 217.055 44.1961C217.492 43.0955 218.368 42.2066 219.489 41.7248C220.61 41.243 221.885 41.2078 223.033 41.627C224.181 42.0462 225.108 42.8855 225.611 43.9601L225.631 43.9343Z" fill="#263238"/>
<path d="M214.153 75.9374L211.189 77.3031L216.31 79.0488C216.31 79.0488 219.724 78.0052 218.071 76.1886L217.15 75.9116C215.672 75.4478 214.946 75.4994 214.153 75.9374Z" fill="#FFC3BD"/>
<path d="M211.586 80.7685L213.837 81.1808C214.159 81.2374 214.491 81.1965 214.787 81.0637C215.083 80.931 215.329 80.7129 215.49 80.4399L216.31 79.0292L211.189 77.3027L210.517 78.6491C210.413 78.8527 210.358 79.0764 210.357 79.3032C210.357 79.5301 210.41 79.7541 210.513 79.9583C210.616 80.1625 210.766 80.3416 210.952 80.482C211.138 80.6224 211.354 80.7203 211.586 80.7685Z" fill="#FFC3BD"/>
</svg>
