<svg width="40" height="40" viewBox="0 0 40 40" fill="none" xmlns="http://www.w3.org/2000/svg">
<path d="M25.0501 17.9499L34.4835 11.6333C35.4335 11 35.6835 9.69996 35.0501 8.76663L32.0168 4.24992C31.3835 3.29993 30.0835 3.04993 29.1501 3.68326L19.7168 9.99995L25.0501 17.9499Z" stroke="#0A365C" stroke-width="2.5" stroke-linecap="round" stroke-linejoin="round"/>
<path d="M20.2899 10.7987L12.3271 16.1318L16.5937 22.5021L24.5564 17.169L20.2899 10.7987Z" stroke="#0A365C" stroke-width="2.5" stroke-linecap="round" stroke-linejoin="round"/>
<path d="M9.71674 26.5L16.3001 22.1L12.5667 16.5333L5.98339 20.9333C5.21673 21.45 5.01673 22.4833 5.5334 23.25L7.41673 26.05C7.91673 26.8 8.95007 27 9.71674 26.5Z" stroke="#0A365C" stroke-width="2.5" stroke-linecap="round" stroke-linejoin="round"/>
<path d="M20.0834 20.3334L12.6001 36.6667" stroke="#0A365C" stroke-width="2.5" stroke-linecap="round" stroke-linejoin="round"/>
<path d="M20 20.3334L27.4 36.6667" stroke="#0A365C" stroke-width="2.5" stroke-linecap="round" stroke-linejoin="round"/>
</svg>
